<?xml version="1.0" encoding="UTF-8"?>
<svg id="Calque_1" data-name="Calque 1" xmlns="http://www.w3.org/2000/svg" viewBox="0 0 702 702">
  <defs>
    <style>
      .cls-1 {
        fill: #fefefe;
      }

      .cls-1, .cls-2, .cls-3, .cls-4, .cls-5, .cls-6, .cls-7, .cls-8, .cls-9, .cls-10, .cls-11, .cls-12, .cls-13, .cls-14, .cls-15, .cls-16, .cls-17, .cls-18, .cls-19, .cls-20, .cls-21, .cls-22, .cls-23, .cls-24, .cls-25, .cls-26, .cls-27, .cls-28 {
        stroke-width: 0px;
      }

      .cls-2 {
        fill: #0d629e;
      }

      .cls-3 {
        fill: #f97502;
      }

      .cls-4 {
        fill: #fef316;
      }

      .cls-5 {
        fill: #735678;
      }

      .cls-6 {
        fill: #fdbf01;
      }

      .cls-7 {
        fill: #2d2143;
      }

      .cls-8 {
        fill: #f75f01;
      }

      .cls-9 {
        fill: #ffe103;
      }

      .cls-10 {
        fill: #bdddf4;
      }

      .cls-11 {
        fill: #08cfce;
      }

      .cls-12 {
        fill: #fd9d02;
      }

      .cls-13 {
        fill: #09d0cf;
      }

      .cls-14 {
        fill: #fff;
      }

      .cls-15 {
        fill: #01011a;
      }

      .cls-16 {
        fill: #60e7fd;
      }

      .cls-17 {
        fill: #14dece;
      }

      .cls-18 {
        fill: #ee4c04;
      }

      .cls-19 {
        fill: #08a3ba;
      }

      .cls-20 {
        fill: #d1c88c;
      }

      .cls-21 {
        fill: #08d0cf;
      }

      .cls-22 {
        fill: #09b3ff;
      }

      .cls-23 {
        fill: #e0fdff;
      }

      .cls-24 {
        fill: #0eb9bf;
      }

      .cls-25 {
        fill: #fffffe;
      }

      .cls-26 {
        fill: #60e8fe;
      }

      .cls-27 {
        fill: #0476ee;
      }

      .cls-28 {
        fill: #ffcf03;
      }
    </style>
  </defs>
  <path class="cls-15" d="M649.65,349.23c0,55.42,0,110.83.01,166.25,0,4-.31,7.99-.4,11.98-.04,1.85-.72,2.84-2.33,3.71-13.7,7.41-27.34,14.92-41.03,22.37-41.33,22.48-82.29,45.64-123.37,68.57-41.91,23.4-83.89,46.69-125.9,69.93-2.12,1.17-3.81,1.23-5.97.03-61.3-33.9-122.7-67.62-183.81-101.87-35.19-19.72-70.36-39.46-105.91-58.53-1.32-.71-2.03-1.47-2.1-3.09-.11-2.47-.25-4.95-.25-7.43,0-114.91,0-229.82-.06-344.73,0-2.36.82-3.61,2.8-4.68,13.68-7.44,27.32-14.97,40.96-22.47,40.31-22.18,80.52-44.54,120.68-66.98,42.96-24,85.75-48.29,128.8-72.12,1.7-.94,2.91-.83,4.54.07,47.58,26.38,94.7,53.56,142.13,80.19,42.14,23.66,84.63,46.68,126.89,70.12,7.33,4.07,14.58,8.29,21.94,12.32,1.76.97,2.41,2.07,2.41,4.11-.06,57.41-.05,114.83-.05,172.24Z"/>
  <path class="cls-14" d="M155.02,250.02c-2.33-7.57-2.84-15.21-.41-22.84,3.09-9.69,12.32-16.72,22.47-17.49,6.16-.47,11.88.74,17.33,3.58,6.66,3.47,13.06,7.38,19.54,11.16,30.55,17.8,60.84,36.02,90.92,54.61.61.38,1.18.8,1.77,1.21.07,1.24-.89,1.38-1.74,1.56-10.94,2.27-21.66,5.48-32.79,7.01-12.73,1.75-25.5,2.21-38.25,1.54-18.21-.96-35.66-5.33-51.93-13.89-11.19-5.89-19.92-14.29-26.33-25.14-.25-.42-.31-.9-.58-1.3Z"/>
  <path class="cls-9" d="M191.02,178.01c-1.64-2.83-3.24-5.68-4.94-8.48-.72-1.19-.58-2.16.09-3.32,8.97-15.46,17.93-30.93,26.79-46.45,1.11-1.94,2.43-2.63,4.59-2.62,17.5.06,35,.05,52.5,0,1.92,0,3.27.46,4.31,2.27,8.96,15.65,17.99,31.27,27.03,46.87.68,1.18.77,2.19,0,3.32-.59.85-1.07,1.78-1.59,2.67-.79.6-1.73.8-2.68.98-5.43,1.02-10.65,2.85-15.97,4.3-2.26.62-3.91,2.06-5.31,3.9-3.5,4.61-5.83,9.91-8.78,14.85-.66,1.1-1.34,2.18-1.91,3.33-2.38,4.83-6,7.6-11.62,7.79-8.62.3-17.21.78-25.82-.31-2.89-.37-4.67-1.73-5.86-4.25-2.59-5.51-4.25-11.38-6.62-16.97-.25-.59-.45-1.2-.68-1.79-1.43-3.73-4.15-5.54-8.13-5.4-3.98.14-7.94-.85-11.94-.06-1.14.23-2.41.19-3.45-.62Z"/>
  <path class="cls-9" d="M81.62,356.99c-1.64-2.83-3.24-5.69-4.94-8.48-.72-1.19-.59-2.17.09-3.32,3.87-6.61,7.69-13.26,11.52-19.9,5.11-8.85,10.27-17.67,15.28-26.57,1.1-1.96,2.45-2.61,4.6-2.6,16.71.06,33.42.05,50.12,0,1.42,0,2.4.4,3.25,1.51.87,1.14,1.78,2.3,2.87,3.21,4,3.37,6.5,7.81,9.04,12.26,6.01,10.54,12.04,21.07,18.18,31.54.99,1.69,1.23,3.01-.02,4.56-.5.61-.82,1.37-1.22,2.06-.79.6-1.73.8-2.68.98-5.43,1.02-10.65,2.85-15.97,4.3-2.26.62-3.91,2.06-5.31,3.9-3.5,4.61-5.83,9.91-8.78,14.85-.66,1.1-1.34,2.18-1.91,3.33-2.38,4.83-6,7.6-11.62,7.79-8.62.3-17.21.78-25.82-.31-2.89-.37-4.67-1.73-5.86-4.25-2.59-5.51-4.25-11.38-6.62-16.97-.25-.59-.45-1.2-.68-1.79-1.43-3.73-4.15-5.54-8.13-5.4-3.98.14-7.94-.85-11.94-.06-1.14.23-2.41.19-3.45-.62Z"/>
  <path class="cls-9" d="M300.87,113.28c-1.64-2.74-3.27-5.48-4.91-8.21-.57-.95-.33-1.79.19-2.69,3.94-6.76,7.87-13.53,11.78-20.31,5.07-8.78,10.18-17.54,15.16-26.38,1.04-1.85,2.25-2.55,4.37-2.54,17.59.07,35.19.07,52.78,0,2.08,0,3.34.6,4.41,2.47,6.12,10.76,12.38,21.44,18.57,32.16,2.8,4.84,5.54,9.71,8.37,14.53.64,1.1.76,2.04.02,3.1-.59.85-1.11,1.74-1.66,2.62-.96.63-2.04.89-3.16,1.03-5.23.64-10.41,1.65-15.62,2.43-2.38.36-4.15,1.45-5.42,3.5-2.75,4.43-4.58,9.3-6.92,13.93-1.9,3.78-3.35,7.77-5.56,11.41-1.69,2.77-3.95,4.41-7.29,4.75-9.74.97-19.44.65-29.14-.6-2.29-.3-3.75-1.47-4.58-3.66-.97-2.55-1.75-5.14-2.35-7.79-1.02-4.52-2.18-9.01-3.51-13.45-1.43-4.79-2.58-5.28-7.5-5.75-4.97-.48-9.88.38-14.81.08-1.1-.06-2.26.15-3.22-.64Z"/>
  <path class="cls-14" d="M442.43,346.44c.12-2.79.27-5.58.36-8.37.06-1.84-.06-3.67-.25-5.5-.16-1.55-.05-1.67,1.55-1.49,3.25.36,6.51.73,9.73,1.26,18.03,2.94,36.07,5.86,54.08,8.91,12.74,2.16,25.52,4.1,38.19,6.64,6.85,1.37,12.76,4.54,17.56,9.62,3.65,3.87,6,8.43,6.45,13.82.55,3.37-.05,6.46-1.96,9.35-1.66,2.52-2.68,5.46-4.84,7.68-5.23,5.35-11.88,7.65-19.08,8.56-15.31,1.93-29.88-.75-43.88-7.11-13.64-6.2-25.68-14.87-37.37-24.08-5.97-4.7-11.55-9.84-16.78-15.35-1.25-1.32-3.03-2.14-3.78-3.94Z"/>
  <path class="cls-22" d="M407.84,533.11c3.16-6.01,6.69-11.8,10.08-17.68,5.5-9.55,11.04-19.07,16.47-28.66,1.03-1.83,2.26-2.58,4.37-2.58,17.58.06,35.17.06,52.75,0,2.07,0,3.37.61,4.43,2.47,8.96,15.67,18,31.28,27.02,46.91.08.13.1.3.14.45-.43.47-.98.47-1.55.43-7.1-.45-14.22-.04-21.32-.23-2.31-.06-3.7.8-4.66,2.9-3.16,6.91-5.86,14-8.88,20.96-.73,1.69-1.59,3.31-2.38,4.97-.82,1.72-2.07,2.86-4.01,3.01-9.87.78-19.75,1.28-29.64.45-2.24-.19-3.59-1.34-4.55-3.33-3.62-7.48-6.8-15.16-10.23-22.72-3.71-8.17-3.19-6.61-9.98-6.66-5.1-.04-10.22-.33-15.32.36-.94.13-2.32.53-2.74-1.06Z"/>
  <path class="cls-17" d="M599.89,422.69c.88.38,1.22,1.23,1.65,1.98,6.2,10.69,12.41,21.38,18.57,32.09,2.95,5.11,5.76,10.3,8.93,15.29.5.79.55,1.42-.03,2.17-.68.88-1.3,1.82-1.94,2.73-1.88,1.36-4.14,1.09-6.24,1.41-4.27.64-8.51,1.47-12.79,2.05-2.42.33-4.14,1.5-5.47,3.45-3.09,4.52-4.9,9.69-7.34,14.53-1.94,3.85-3.37,7.95-5.7,11.62-1.36,2.14-3.07,3.45-5.71,3.86-7.33,1.12-14.66.87-21.99.36-1.67-.12-3.36.07-5.01-.35-1.11-.35-1.91-1.09-2.59-2.03-4.1-5.61-6.99-11.81-9.12-18.4-2.29-7.08-4.41-14.2-6.38-21.37-.23-.85-.51-1.69-.36-2.59.12-.65.45-1.2.93-1.63,7.7-6.92,14.82-14.47,22.89-20.99.62-.5,1.27-.96,2.22-1.19-1.47.23-2.81.36-4.11.02-.8-.21-1.49-.66-.23-1.34,2.62-.47,5.28-.48,7.87-.1,5.92.87,11.78-.2,17.67-.28,1.56-.02,2.72-.85,3.18-2.44.79-2.72,1.13-5.46.62-8.28-.35-1.91-1.43-3.03-3.41-3.03-4.07,0-8.14-.26-12.2.21-3.82.45-7.65.18-11.48.17-.71,0-1.45-.09-1.95-.72.38-1.22,1.46-1.02,2.36-1.14.55-.07,1.11-.03,1.67-.03q4.23-.02,5.84-3.91c.55-1.33,1.29-2.32,2.95-2.31,8.75.04,17.51-.01,26.26.04.15,0,.3.1.44.16Z"/>
  <path class="cls-9" d="M536.35,198.74c-1.73-1.13-3.44-2.29-5.2-3.36-.86-.52-.47-1.02-.15-1.58,1.18-2.07,2.36-4.15,3.56-6.22,2.39-4.14,4.81-8.26,7.16-12.42.73-1.3,1.61-2.03,3.19-2.03,13.64.04,27.27.04,40.91.05.16,0,.31.06.47.09.68.51.93,1.27,1.2,2.03,4.35,12.22,9.98,23.89,15.25,35.72,2.23,5,5.34,7.24,10.9,6.78,3.48-.29,6.99-.76,10.52-.59,1.03.05,2.1-.12,3,.57.99,1.63,1.98,3.26,2.97,4.89.51.84.45,1.65-.06,2.48-.67,1.08-1.33,2.17-1.99,3.26-1.21,1.01-2.75.66-4.13.98-5.14,1.2-10.13,2.91-15.19,4.36-2.03.58-3.37,2.09-4.58,3.69-3.13,4.17-5.32,8.9-7.91,13.39-1.51,2.63-2.91,5.32-4.67,7.8-1.81,2.54-4.13,4.12-7.33,4.4-9.08.81-18.14.81-27.24.14-4.13-.31-6.34-2.43-7.62-6.08-1.53-4.37-3.23-8.68-4.81-13.03-.92-2.55-2.39-4.87-3-7.54,3.14-3.96,3.73-8.85,4.84-13.54.27-1.16.33-2.41.07-3.56-1.06-4.7-1.53-9.6-4.24-13.79,3,.67,4.92-.97,6.98-2.87,1.94-1.8,3.55-3.86,5.36-5.74,1.25-1.3,1.22-2.67.22-4.09-1.34-1.88-2.74-3.73-4.55-5.2-2.24-1.82-3.61-1.76-5.55.42-2.49,2.8-4.86,5.69-6.81,8.91-.4.66-.67,1.48-1.57,1.69Z"/>
  <path class="cls-17" d="M299.9,226c2.8-5.46,5.6-10.91,8.4-16.37,4.35-8.51,8.78-17,13-25.58,1.13-2.3,2.39-3.21,5.09-3.15,10.92.22,21.85.13,32.78.17.86,0,1.76-.19,2.59.22-1.01,1.1-2.36.81-3.6.81-9.74.03-19.47.01-29.21.02-3.88,0-4.06.23-3.21,3.92,2.48,4.93,5.54,9.53,8.21,14.36.91,1.64,2.37,1.93,4.07,1.92,8.15-.03,16.31-.01,24.46-.01,2,0,3.98.05,5.97.34,3.03.45,4.39-.3,5.8-3.06,2.29-4.49,4.78-8.86,7-13.38,1.16-1.51,2.1-3.17,3.16-4.75.58.26.66.87.91,1.34,5.43,10.3,10.85,20.61,16.27,30.91.15.28.27.58.45.84.71,1,.38,1.69-.51,2.42-2.34,1.93-4.47,4.1-6.46,6.4-4.32,5-7.67,10.58-10.15,16.69-.18.44-.4.86-.6,1.3-2.89,6.25-7.12,11.51-12.23,16.05-2.26,2.01-5.05,2.91-8.17,2.86-5.91-.09-11.81-.05-17.72-.02-2.17.01-4.3-.35-6.42-.67-2.59-.38-4.45-2.03-5.98-4.07-5.38-7.22-9.47-15.14-12.81-23.47-.33-.82-.69-1.62-1.07-2.41-.66-1.36-1.69-2.1-3.23-2.01-4.72.28-9.39-.47-14.1-.53-.95-.01-2.34.55-2.71-1.09Z"/>
  <path class="cls-10" d="M155.02,250.02c2.81,2.76,4.55,6.32,6.98,9.38,4.59,5.75,10.04,10.45,16.3,14.22,11.69,7.03,24.4,11.33,37.76,13.83,4.92.92,9.88,1.54,14.88,1.99,8.39.76,16.77.46,25.14.27,4.17-.1,8.38-.7,12.57-1.21,8.78-1.07,17.46-2.63,25.99-4.94,3.54-.95,7-2.14,10.69-2.39.61-.04,1.04-.37,1.31-.91,1.9,1.15,3.8,2.3,5.81,3.51-.74,1.32-1.82,2.13-2.82,3-7.72,6.71-14.4,14.28-19.48,23.2-1.58,2.78-3.1,5.59-4.33,8.54-.54,1.3-1.3,1.75-2.71,1.77-13.18.19-26.38.23-39.54-.34-29.78-1.29-54.15-13.68-72.87-36.89-7.83-9.71-12.93-20.84-15.68-33.03Z"/>
  <path class="cls-10" d="M442.43,346.44c2.69,1.77,4.84,4.14,7.08,6.41,6.56,6.66,13.81,12.5,21.27,18.1,6.31,4.75,12.87,9.12,19.67,13.11,10.05,5.89,20.76,10,32.32,11.9,5.88.97,11.76,1.08,17.63.77,5.65-.3,11.14-1.55,16.28-4.2,3.97-2.05,7.04-4.87,9.12-8.81.78-1.48,1.55-2.97,2.45-4.38,1.57-2.47,1.95-5.18,1.88-8.01.87,3.47.73,7,.14,10.45-2.57,15.01-11.15,25.66-24.33,32.84-8.34,4.54-17.39,6.15-26.77,6.39-15.94.41-30.59-3.98-44.35-11.77-9.31-5.27-17.47-12.08-25.46-19.1-4.63-4.06-9.05-8.34-13.4-12.69-1.26-1.26-1.43-2.37-.75-4.02,3.35-8.16,5.64-16.62,6.85-25.36.08-.55.26-1.08.39-1.63Z"/>
  <path class="cls-22" d="M442.63,136.73c-2.56-.6-5.13-1.15-7.68-1.81-2.22-.58-4.4-.6-6.61.02-1.44.4-2.91.69-4.54,1.07,0-1.11.51-1.73.88-2.38,2.72-4.7,5.51-9.35,8.13-14.1.98-1.78,2.23-2.41,4.23-2.4,17.66.06,35.31.06,52.97,0,2,0,3.21.66,4.22,2.41,8.79,15.38,17.66,30.72,26.51,46.07.16.27.28.57.42.85-.13,1.26-1.09.92-1.81.89-6.86-.35-13.73,0-20.59-.19-2.52-.07-3.99.95-5,3.2-2.78,6.19-5.29,12.5-7.91,18.75-.96,2.29-2.07,4.5-3.12,6.73-.86,1.83-2.17,2.93-4.18,3.13-6.51.63-13.04,1.03-19.58.8-1.34-.05-2.07-.6-1.94-2.08.07-.78.18-1.59-.15-2.36-.57-5.39-.92-10.8-1.84-16.14-.15-.84.13-1.5.45-2.26,2.58-6.07,4.57-12.25,2.66-18.96-.22-.77-.45-1.54-.55-2.32-.59-4.7-3-8.5-5.88-12.09-.81-1-1.77-1.83-2.79-2.6-.95-.71-2.04-1.25-2.82-2.19.77-.97,1.87-.76,2.88-.77,3.04-.05,6.07.04,9.11-.04,2.98-.08,3.73-.82,3.77-3.7.04-2.8.07-5.59-.01-8.39-.07-2.38-.82-3.17-3.19-3.26-3.27-.13-6.55-.11-9.83-.02-3.45.1-6.85-.38-10.28-.48-3.12-.09-3.18.08-1.81,2.77,1.56,3.07,3.33,6.01,5.06,8.98.51.88,1.22,1.73.83,2.88Z"/>
  <path class="cls-27" d="M407.84,533.11c1.15.85,2.51.59,3.68.34,1.51-.32,3.01-.33,4.51-.34,4.64-.02,9.27.07,13.91-.07,2.14-.06,3.5.73,4.37,2.61,1.38,2.97,2.82,5.91,4.16,8.89,1.61,3.56,3.11,7.16,4.71,10.72,1.28,2.84,2.68,5.62,3.96,8.45.59,1.31,1.46,1.87,2.91,2.06,6.77.89,13.57.55,20.32.27,3.37-.14,6.83.1,10.22-.69,1.42-.33,2.25-.88,2.89-2.11,1.88-3.62,3.38-7.4,4.98-11.13,2.33-5.42,4.36-10.96,6.97-16.26.83-1.68,1.92-2.32,3.74-2.3,6.87.07,13.75.06,20.62.02,1.14,0,2.16.59,3.3.47.81.93.32,1.76-.18,2.6-4.11,7.11-8.22,14.23-12.32,21.35-4.85,8.43-9.74,16.84-14.52,25.32-1.02,1.81-2.22,2.56-4.36,2.55-17.74-.08-35.48-.08-53.22,0-1.95,0-3.1-.61-4.05-2.26-4.28-7.48-8.66-14.89-12.96-22.35-4.69-8.16-9.31-16.36-14.01-24.52-.78-1.36-.93-2.52.34-3.61Z"/>
  <path class="cls-8" d="M411.75,589.28c.82,1,.34,1.88-.2,2.82-3.9,6.77-7.76,13.56-11.66,20.33-5.01,8.71-10.08,17.37-15.02,26.12-1.07,1.89-2.27,2.65-4.52,2.64-17.73-.1-35.47-.08-53.2-.02-1.9,0-3.08-.5-4.05-2.21-4.35-7.71-8.83-15.34-13.24-23.01-4.57-7.95-9.09-15.92-13.66-23.87-.54-.94-1-1.83-.16-2.82,7.97-1.21,15.98-.76,23.99-.66,2.2.35,3.14,2.06,3.98,3.79,3.36,6.9,6.29,14,9.46,20.99.59,1.31,1.36,2.57,1.79,3.92,1.06,3.31,3.5,4.37,6.63,4.33,6.47-.07,12.95.45,19.4-.34,2.15-.26,4.31.02,6.47-.21,2.07-.22,3.47-1.13,4.43-3.11,3.05-6.35,5.52-12.94,8.28-19.41,1.07-2.5,2.15-4.99,3.4-7.41.19-.37.41-.72.68-1.04.19-.22.42-.39.67-.54.86-.48,1.81-.59,2.76-.58,7.92.08,15.86-.32,23.77.27Z"/>
  <path class="cls-2" d="M178.88,471.62c-1.96,10.87-2.69,21.83-2.33,32.87.05,1.41-.24,2.6-.98,3.83-2.58,4.31-5.09,8.66-7.55,13.05-.87,1.56-1.95,2.23-3.81,2.22-17.97-.07-35.95-.06-53.92,0-1.84,0-2.94-.61-3.84-2.18-4.39-7.69-8.85-15.33-13.28-23-4.62-8-9.21-16.03-13.85-24.02-.69-1.19-.77-2.22.23-3.23,7.32-1.25,14.7-.56,22.05-.64.8,0,1.57.2,2.26.63,2.13,1.96,3.01,4.66,4.17,7.19,3.37,7.33,6.45,14.79,9.93,22.07.83,1.75,1.94,2.77,3.95,2.94,6.7.57,13.41.45,20.1.08,2.31-.13,4.62-.18,6.93-.27,2.61-.1,4.42-1.09,5.6-3.65,3.03-6.62,5.66-13.39,8.51-20.08.81-1.91,1.72-3.78,2.62-5.65.67-1.38,1.64-2.34,3.19-2.64,3.34-.05,6.72-.84,10,.49Z"/>
  <path class="cls-19" d="M298.5,533.04c1.12,1.08.94,2.11.19,3.4-4.53,7.78-8.97,15.62-13.46,23.42-4.58,7.95-9.19,15.87-13.78,23.81-.74,1.29-1.72,1.84-3.3,1.84-18.05-.06-36.11-.07-54.16.02-2,0-3.04-.73-3.96-2.36-3.64-6.46-7.37-12.87-11.08-19.3-2.62-4.54-5.27-9.07-7.91-13.61.74-.51,1.36-.07,1.89.11,3.93,1.33,7.88.56,11.83.22,3.57-.31,7.13-.73,10.69-1.1,1.81,2.21,2.41,5.02,3.68,7.49.76,1.49,1.53,3,2.1,4.57.95,2.6,2.73,3.78,5.42,3.86,6.31.21,12.62.35,18.92-.07,2.23-.15,4.46-.23,6.69-.28,2.77-.06,4.79-.99,6.01-3.79,3.45-7.91,6.85-15.83,9.91-23.9,4.5-1.56,9-3.13,13.5-4.69,5.61-.35,11.21.3,16.81.35Z"/>
  <path class="cls-17" d="M166.6,174.14c.65.24.97.82,1.29,1.36,3.01,5.16,6.02,10.33,9,15.51.35.61.77,1.22.84,2.19-3.53.33-6.94,1.3-10.38,2.09-4.09.94-7.8,2.7-11.32,5-4.96,3.24-9.09,7.23-12.3,12.23-1.83,2.85-3.42,5.77-4.23,9.06-1.41,5.81-3.11,11.56-2.75,17.67.29,4.98,1.51,9.77,2.67,14.58.85,3.49,1.82,6.94,2.74,10.41.31,1.76-1.05,1.74-2.08,1.78-3.47.11-6.96.28-10.42-.1-1.89-.21-3.79-.2-5.66-.47-1.4-.32-2.34-1.22-3.18-2.36-4.07-5.54-6.86-11.7-8.97-18.2-2.3-7.07-4.41-14.19-6.38-21.36-.23-.85-.51-1.69-.36-2.59.13-.74.55-1.32,1.09-1.81,7.48-6.69,14.38-14.03,22.19-20.37.8-.65,1.57-1.37,2.82-1.65-1.52.23-2.86.37-4.16.02-.8-.21-1.49-.66-.24-1.34,2.62-.47,5.28-.48,7.87-.1,5.92.87,11.78-.2,17.67-.28,1.56-.02,2.72-.85,3.18-2.44.79-2.72,1.13-5.46.62-8.28-.35-1.91-1.43-3.03-3.41-3.03-4.07,0-8.14-.26-12.2.21-3.82.45-7.65.18-11.48.17-.71,0-1.45-.09-1.95-.72.38-1.22,1.46-1.02,2.36-1.14.55-.07,1.11-.03,1.67-.03q4.23-.02,5.84-3.91c.55-1.32,1.29-2.32,2.95-2.31,8.75.04,17.51-.01,26.26.04.15,0,.3.1.44.16Z"/>
  <path class="cls-12" d="M320.54,589.23c-5.67,0-11.34.06-17.01-.02-1.85-.03-3.6.73-5.46.49-.69-.09-1.46.17-2.03-.44,3.97-6.92,7.93-13.85,11.91-20.76,5.06-8.79,10.17-17.54,15.16-26.37.99-1.75,2.15-2.45,4.17-2.44,17.74.07,35.48.05,53.22.01,1.74,0,2.97.36,3.92,2.03,9.06,15.87,18.2,31.7,27.32,47.54-.12.51-.36.97-.96.82-3.39-.8-6.83-.27-10.24-.37-3.91-.12-7.82-.01-11.73-.03-1.36,0-2.7.05-4,.5-2-.67-2.4-2.65-3.13-4.19-3.68-7.79-7-15.75-10.68-23.54-.41-.88-.74-1.77-.6-2.77.65-2.1,2.04-3.79,3.17-5.61,1.89-3.06,3.67-6.19,5.53-9.26.86-1.42.35-1.83-1.04-1.9-.64-.03-1.28-.05-1.92-.05-14.71,0-29.42-.01-44.13.02-1.07,0-2.54-.46-3.09.67-.55,1.12.74,1.98,1.36,2.85,2.14,2.99,4.41,5.89,6.71,8.76,1.1,1.36,2.31,2.67,2.95,4.34.16.68-.09,1.26-.45,1.8-5.75,8.69-10.94,17.75-17.07,26.2-.51.71-1,1.46-1.91,1.73Z"/>
  <path class="cls-21" d="M178.88,471.62c-3.48.03-6.95.07-10.43.1-1.84.71-2.45-.74-3.01-1.9-1.71-3.5-3.29-7.06-4.86-10.62-2.15-4.87-4.3-9.74-6.59-14.55-.37-.78-.85-1.55-.57-2.49,2.64-4.38,5.49-8.63,7.97-13.1,1.96-3.54,1.87-3.74-2.13-3.75-13.74-.01-27.49,0-41.23,0-1.12,0-2.24-.05-3.36.02-.92.06-2.14-.36-2.62.64-.42.87.6,1.55,1.1,2.23,2.74,3.74,5.6,7.39,8.47,11.03.69.87,1.5,1.67,1.93,2.73.25.95-.21,1.72-.7,2.45-5.28,7.81-10.03,15.96-15.37,23.73-.92,1.34-1.62,2.98-3.36,3.6-1.21-.44-2.46-.57-3.75-.56-5.17.03-10.34.06-15.51.06-.81,0-1.57.25-2.34.33-.99.1-2.06.45-2.95-.39,4.13-7.18,8.26-14.37,12.39-21.55,4.81-8.35,9.67-16.68,14.41-25.08.98-1.74,2.13-2.41,4.16-2.4,17.81.08,35.62.08,53.43,0,2.05,0,3.17.69,4.15,2.42,4.21,7.42,8.54,14.76,12.81,22.14,1,1.72,2.26,3.4,2.75,5.27.48,1.84-.85,3.65-1.28,5.49-1.11,4.73-2.33,9.44-3.51,14.16Z"/>
  <path class="cls-12" d="M81.62,356.99c2.22-.09,4.47.25,6.66-.43.29-.09.65-.09.95-.02,3.68.79,7.47.12,11.17.88,1.82.37,2.94,1.31,3.93,2.79,1.49,2.23,2.15,4.78,3.19,7.19,2.04,4.76,3.36,9.8,5.65,14.47,1.09,2.22,2.57,3.32,5.16,3.53,5.16.41,10.32,1.18,15.47.77,4.98-.39,10.03.04,14.95-1.22.99-.25,1.73-.68,2.45-1.34,2.4-2.2,3.83-5.07,5.41-7.83,2.34-4.08,4.62-8.2,6.91-12.31.9-1.61,2.05-3.03,3.18-4.48,1.16-1.49,2.67-2.49,4.51-3,5.74-1.61,11.41-3.51,17.28-4.64.62-.12,1.27-.08,1.91-.11-.29,1.19-1.04,2.14-1.63,3.17-5.57,9.68-11.16,19.35-16.75,29.01-2.36,4.08-4.75,8.13-7.05,12.23-.84,1.5-1.95,2.07-3.68,2.06-17.9-.05-35.79-.06-53.69,0-1.94,0-3.05-.71-3.99-2.36-5.36-9.43-10.83-18.8-16.23-28.21-1.94-3.38-3.83-6.79-5.74-10.19Z"/>
  <path class="cls-12" d="M300.87,113.28c2.64-.02,5.28-.03,7.92-.05,1.19-.01,2.36-.03,3.56-.32,1.06-.25,2.28-.28,3.32-.01,1.43.36,2.85.33,4.28.33,3.55,0,5.29,1.03,6.47,4.42,1.73,4.97,2.9,10.09,4.13,15.19.71,2.95,1.62,5.82,2.66,8.66.73,1.98,2.45,2.17,4.06,2.41,8.32,1.22,16.7,1.11,25.07.95,2.12-.04,4.27-.47,6.35-.97,1.71-.41,2.7-1.92,3.63-3.3,2.37-3.53,3.8-7.55,5.61-11.36,1.03-2.16,2.04-4.33,3.1-6.48,1.45-2.92,2.53-6.01,4.49-8.71,1.22-1.69,2.67-2.82,4.62-3.09,5.59-.77,11.1-2.03,16.73-2.54,1.02-.09,1.99-.62,3.06-.38-.27,1.2-1.02,2.16-1.62,3.19-7.85,13.62-15.76,27.22-23.56,40.87-1.05,1.83-2.22,2.55-4.35,2.54-17.66-.08-35.33-.08-52.99,0-2.1,0-3.33-.63-4.38-2.49-6.12-10.75-12.4-21.41-18.54-32.16-1.26-2.2-2.73-4.3-3.63-6.7Z"/>
  <path class="cls-12" d="M541.61,236.5c1.84,2.09,2.57,4.73,3.53,7.24,1.67,4.39,3.27,8.81,4.92,13.22.17.45.45.85.62,1.3.91,2.47,2.55,3.96,5.27,4.07,2.14.09,4.23.68,6.4.64,5.19-.09,10.39.02,15.58-.05,2.46-.03,4.89-.57,7.33-.76,2.83-.22,4.38-2.03,5.9-4.02,1.55-2.04,2.69-4.33,3.96-6.54,2.35-4.07,4.59-8.21,6.93-12.29,1.03-1.81,2.37-3.39,3.88-4.83.65-.62,1.41-1.03,2.27-1.28,5.43-1.55,10.79-3.35,16.3-4.64,1.18-.28,2.38-.14,3.58-.17-.06.93-.71,1.59-1.14,2.34-5.89,10.24-11.8,20.47-17.71,30.7-2.08,3.6-4.21,7.16-6.21,10.8-.9,1.65-1.99,2.36-3.97,2.35-17.91-.08-35.83-.07-53.74,0-1.84,0-2.93-.6-3.82-2.19-3.36-5.99-6.81-11.92-10.25-17.87-1.16-2-2.39-3.96-3.52-5.98-.71-1.26-.59-1.46.69-1.85,4.75-1.45,8.42-4.42,11.56-8.15.56-.67.89-1.52,1.64-2.03Z"/>
  <path class="cls-12" d="M191.02,178.01c2.22-.09,4.47.25,6.66-.43.29-.09.65-.09.95-.02,3.68.79,7.47.12,11.17.88,1.82.37,2.94,1.31,3.93,2.79,1.49,2.23,2.15,4.78,3.19,7.19,2.04,4.76,3.36,9.8,5.65,14.47,1.09,2.22,2.57,3.32,5.16,3.53,5.16.41,10.32,1.18,15.47.78,4.98-.39,10.03.04,14.95-1.22.99-.25,1.73-.68,2.45-1.34,2.4-2.2,3.83-5.07,5.41-7.83,2.34-4.08,4.62-8.2,6.91-12.31.9-1.61,2.05-3.03,3.18-4.48,1.16-1.49,2.67-2.49,4.51-3,5.74-1.61,11.41-3.51,17.28-4.64.62-.12,1.27-.08,1.91-.11-.29,1.19-1.04,2.14-1.63,3.17-5.57,9.68-11.16,19.35-16.75,29.01-2.36,4.08-4.75,8.13-7.05,12.24-.84,1.5-1.95,2.07-3.68,2.06-10.87-.06-21.73-.04-32.6-.02-1.08,0-2-.26-2.93-.8-10.27-6-20.56-11.97-30.86-17.94-.63-.37-1.15-.79-1.54-1.45-2.95-5.11-5.94-10.2-8.89-15.31-.99-1.72-1.89-3.49-2.84-5.24Z"/>
  <path class="cls-14" d="M284.99,373.16c4.48,3.9,8.78,8,12.97,12.21-5.79,1.62-9.84,6.05-14.7,9.15-5.12,3.26-9.77,7.22-14.68,10.79-4.93,4.65-10,9.14-14.92,13.8-3.01,2.85-6.22,5.49-8.73,8.84-4.23,4.9-8.55,9.7-12.57,14.78-3.19,4.03-7.12,4.87-10.93,2.55-4.18-2.54-5.7-7.15-3.89-11.64,1.69-4.2,4.76-7.41,8-10.32,2.22-2,3.99-4.64,6.94-5.8,2.35-.4,3.25-2.52,4.52-4.05,5.48-6.59,11.58-12.53,18.12-18.05.31-.26.56-.57.85-.85,7.88-7.64,16.22-14.69,25.78-20.18.99-.57,1.87-1.6,3.24-1.23Z"/>
  <path class="cls-3" d="M472.58,255.72c1.79,11.06-1.31,20.65-8.62,29.03-4.68,5.36-10.77,8.18-17.51,9.7-12.21,2.77-23.18.06-32.56-8.23-6.18-5.46-9.49-12.51-10.43-20.7-.28-2.48-.37-4.93.15-7.38.89-.13,1.26.54,1.69,1.1,8.99,11.59,20.94,15.59,35.16,13.63,3.03-.42,5.8-1.73,8.6-2.9,7.78-3.24,15.19-7.09,21.29-13.07.6-.59,1.19-1.35,2.23-1.18Z"/>
  <path class="cls-14" d="M360.24,311.08c-.58-.19-1.15-.4-1.74-.02-.49,1.13-1.42,1.84-2.35,2.58-7.38,5.86-14.58,11.93-20.99,18.87-2.77,3.4-5.41,6.89-7.92,10.48-.64.91-1.29,1.82-2.02,2.66-1.98,2.28-4.26,3.95-7.49,3.03-3.12-.89-5.62-4.17-5.92-7.44-.28-3.13.36-5.99,2.17-8.61,2.73-3.95,6.23-7.19,9.63-10.54,2.24-.54,3.21-2.57,4.51-4.1,5.27-6.16,11.35-11.4,17.84-16.21.84-.62,1.67-1.23,2.36-2.02,2.57-2.64,5.16-5.23,8.27-7.26,6.78-4.44,14.1-5.19,21.83-3.41,1.01.23,1.98.67,2.99.86,4.64.91,6.76,3.74,6.82,8.4.03,2.29-.67,3.65-2.83,4.41-1.83.64-3.76.79-5.66.99-6.81.73-13.13,2.69-18.62,6.93-.26.2-.57.27-.88.37Z"/>
  <path class="cls-3" d="M408.44,465.31c.9.88.55,1.95.35,2.93-.19.92-.53,1.85-.97,2.68-6.1,11.55-11.6,23.41-17.94,34.83-1.16,2.09-2.38,4.14-3.58,6.21-.24.41-.44.85-.95,1.01-1.24.44-2.53.19-3.79.19-9.49.03-18.98.02-28.47,0-2.22,0-2.82-.79-2.3-2.93.19-.78.52-1.52,1-2.16,2.89-3.86,5.06-8.1,6.93-12.53.25-.59.59-1.13,1.1-1.54,2.05-.87,4.2-.29,6.3-.44,1.8-.12,3.62.18,5.4-.2,1.3-.46,2.03-1.5,2.66-2.64,4.17-7.48,7.78-15.24,11.61-22.89.2-.45.29-.92.34-1.41.04-.4.13-.78.29-1.15.48-.82,1.27-.88,2.09-.81,4.19.35,8.41.27,12.58.99,2.44.42,4.91.31,7.35-.17Z"/>
  <path class="cls-27" d="M456.88,195.33c.68.75.35,1.68.41,2.52.06.9.46,1.32,1.34,1.28,4.05-.22,8.12.41,12.16-.37,1-.19,2.07-.07,3.1-.09.88-.01,1.76.01,2.63-.03,2.76-.14,4.81-.99,6.1-3.89,2.69-6.03,5.09-12.18,7.73-18.24,1.08-2.48,2.17-4.96,3.27-7.43.89-2,2.25-2.65,4.31-2.61,4.86.08,9.73,0,14.6.06,2.61.04,5.25-.36,7.84.36.33.09.59-.18.8-.43,1.05.94.77,1.93.17,2.98-1.66,2.9-3.29,5.83-4.96,8.73-2.97,5.18-5.99,10.34-8.91,15.55-1.15,2.05-2.44,3.89-4.5,5.15-1.36.83-2.61,1.86-3.47,3.25-.52.84-1.34,1.07-2.2,1.28-8.09,1.99-15.78,5.06-23.33,8.53-2.54,1.17-5,2.49-7.33,4.04-.9.6-1.57.76-2.54.08-1.9-1.33-3.99-2.34-6.17-3.14-.75-.28-1.11-.64-.94-1.59.68-3.96.27-7.95.02-11.92-.08-1.35-.27-2.7-.13-4.05Z"/>
  <path class="cls-19" d="M556.62,513.41c7.01.55,14.02.5,21.04.51,2.74,0,5.36-.71,8.02-1.09,1.43-.21,2.3-1.63,3.09-2.83,2.42-3.69,3.91-7.84,5.78-11.8,1.33-2.82,2.87-5.54,4.03-8.42.97-2.39,2.23-4.58,3.67-6.69,1.32-1.93,3.04-3.02,5.5-3.31,4.49-.53,8.93-1.46,13.39-2.15,1.96-.31,3.94-.45,5.92-.67-.3,1.27-1.07,2.31-1.7,3.41-5.89,10.23-11.8,20.45-17.7,30.67-2.12,3.66-4.27,7.3-6.35,10.97-.79,1.39-1.81,1.96-3.48,1.96-18.06-.06-36.11-.03-54.17-.05-.69,0-1.45.23-2.06-.34,4.07-3.7,8.64-6.73,13.01-10.04.61-.47,1.32-.51,2.01-.11Z"/>
  <path class="cls-21" d="M166.6,174.14c-8.46.02-16.93.03-25.39.05-2.69,0-3.41.66-3.97,3.35-.86,4.08-.19,3.2-3.96,3.38-2.04.1-4.13-.48-6.12.39-1.9,1.29-4.13,1-6.22,1.18-6.41.56-6.68.73-7.56,7.08-.7,5.07-.7,5.04,4.2,5.75,1.91.28,3.82.19,5.73.26,1.01.04,2.11-.17,2.89.76,1.65.88,3.44.14,5.33.52-.96,1.3-2.34,2.05-3.5,2.94-1.9,1.45-3.67,3.07-5.37,4.69-4.55,4.34-9.38,8.39-13.63,13.05-1.07,1.17-2.75,1.68-3.47,3.21-.9,1-2.04,1.47-3.37,1.62-6.65.75-13.31,1.49-19.97,2.23-.97.11-2.3.59-2.63-1.08,4-7.08,7.96-14.18,12.02-21.23,4.97-8.63,10.07-17.18,14.99-25.84,1.08-1.9,2.33-2.71,4.54-2.7,17.73.07,35.45.03,53.18.04.76,0,1.6-.3,2.27.36Z"/>
  <path class="cls-9" d="M594.62,366.59c-.44-1.86-.8-3.75-1.33-5.59-4.15-14.33-13.24-24.58-26.35-31.36-8.17-4.22-16.93-6.62-26.06-7.66-2.14-.24-4.3-.4-6.44-.66-.85-.1-1.77.01-2.53-.54-.09-.71.3-1.24.59-1.8,2.7-5.26,5.43-10.5,8.07-15.79.54-1.08,1.18-1.49,2.39-1.48,13.83.05,27.67.06,41.5.08.16,0,.32.05.47.08,3.89.43,7.79.04,11.68.22,1.03.05,2.45-.63,3.01.7.62,1.47.86,3.09-.53,4.41-8.21-.7-16.44-.2-24.65-.3-1.47-.02-2.19.71-2.21,2.19-.04,3.35-.01,6.71-.02,10.06,0,1.48.75,2.16,2.14,2.37,1.03.15,2.07.19,3.11.19,3.67,0,7.35-.01,11.02,0,1.38,0,2.71-.15,3.95-.78.76-.19,1.01.33,1.11.9,1.11,6.11,4.71,11.05,7.63,16.31,1.47,2.64,2.89,5.29,3.75,8.2-.43,2.39-1.77,4.39-2.9,6.46-2.16,3.96-4.31,7.93-5.94,12.15-.27.7-.44,1.58-1.47,1.63Z"/>
  <path class="cls-18" d="M456.3,427.51c2.92,1.12,5.57,2.77,8.28,4.29,10.61,5.95,21.84,10.17,33.78,12.52,1.84.36,1.87.42,1.02,2.15-1.62,3.3-3.31,6.56-4.9,9.88-.66,1.38-1.58,2.14-3.16,2.04-.63-.04-1.28.05-1.92.05-17.59.1-35.17.17-52.76.33-1.85.02-3.09-.38-3.66-2.22-.28-.91-1.02-1.63-1.16-2.61,2.74-1.99,4.86-4.43,6.16-7.65,1.46-3.61,3.62-6.71,7.68-7.87.71-.2,1.13-.86,1.78-1.17,5.07-.61,10.15-.15,15.22-.26.46-.01.93.09,1.67-.06-2.99-1.76-5.41-3.77-7.23-6.42-.6-.87-1.5-1.75-.81-3Z"/>
  <path class="cls-28" d="M255.9,483.71c-5.09-4.61-10.21-9.2-15.26-13.84-3.82-3.51-7.8-6.84-11.4-10.58,2.14-2.46,4.52-4.7,6.92-6.89,4.54-4.13,9-8.34,13.44-12.58,2.56-2.45,3.83-2.62,6.28-.19,3.89,3.88,8.22,7.28,11.79,11.53,1.99,2.37,4.32,4.74,7.73,5.27,3.03,2.38,5.92,4.92,8.68,7.61.04.68-.49.88-.93.78-1.76-.41-2.79.64-3.96,1.67-6.5,5.78-13.28,11.22-20.34,16.29-.87.62-1.66,1.63-2.96.93Z"/>
  <path class="cls-12" d="M372.37,493.77c-.64.69-1.48.44-2.25.44-3.42.03-6.83.02-10.25.03-.42.36-.91.46-1.45.39-1.11-.3-2.24-.25-3.37-.22-2.15.08-4.36-.52-6.43.59-.41.22-.92.07-1.27-.33.39-.59.76-1.21,1.19-1.78,11-14.43,18.49-30.49,22.45-48.2.14-.62.34-1.23.51-1.84.16-.39.43-.8.85-.7,2.32.53,3.77-.97,5.21-2.28,3.36-3.04,7.39-5.28,10.37-8.77.44-.51.98-1.11,1.84-.76,2.4,3.95,4.44,8.1,6.62,12.16,3.7,6.88,7.37,13.77,11.04,20.67.37.7.68,1.43,1.01,2.15-.17,1.07-.97,1.04-1.81,1.1-3.13.22-6.21-.24-9.28-.63-1.27-.16-2.52-.29-3.79-.34-1.82-.08-3.67.26-5.46-.39-.69-.25-1.26.05-1.37.88-1.2-.06-1.19-1.15-1.49-1.89-1.5-3.63-3.49-6.98-5.41-10.24-.39-.03-.54.06-.53.25.45,7.72-3.22,14.24-6.26,20.89-2.25,4.94-4.8,9.75-8.19,14.06-.83,1.05-2.08,2.39-1.56,3.57.53,1.21,2.29.38,3.5.54,1.86.25,3.83-.55,5.58.65Z"/>
  <path class="cls-24" d="M299.9,226c.33.42.8.49,1.29.47,5.1-.2,10.18.89,15.28.45,2.2-.19,3.38.71,4.2,2.67,1.76,4.18,3.5,8.39,5.54,12.44,2.43,4.84,5.29,9.45,8.6,13.75,1.61,2.09,3.79,3.11,6.55,3.4,7.57.8,15.15.14,22.71.43,3.44.13,6.17-1.3,8.61-3.49,2.62-2.35,4.74-5.15,6.82-7.98,1.64-2.24,3.22-4.52,4.83-6.79,0,.08.03.17,0,.24-2.04,6.47-2.46,13.14-2.46,19.87,0,.24,0,.48-.03.72-.14,1.57-.24,1.64-1.96,1.45-2.46-.27-4.92-.54-7.38-.79-13.4-1.33-26.23.86-38.53,6.29-2.34,1.03-4.61,2.2-6.85,3.43-1.7.93-1.73.92-2.77-.69-4.12-6.37-8.05-12.85-11.88-19.4-4.39-7.51-8.61-15.12-12.64-22.83-.65-1.24-1.31-2.45.07-3.64Z"/>
  <path class="cls-24" d="M79.59,223.51c.42.64,1.08.63,1.71.56,3.2-.4,6.4-.86,9.61-1.25,2.11-.26,4.23-.52,6.36-.63,1.82-.09,3.57-.71,5.42-.54,1.04.1,1.72-1.2,2.87-.91-.06,1.88.77,3.56,1.27,5.3,1.78,6.26,3.48,12.56,5.61,18.71,1.87,5.38,3.65,10.88,7.31,15.45,1.22,1.53,1.78,3.58,3.6,4.65-4.08,3.06-8.11,6.2-12.19,9.26-.81.61-1.66,1.3-2.83.89-.78-.37-1.11-1.11-1.51-1.79-4.18-7.25-8.37-14.49-12.54-21.75-4.84-8.43-9.66-16.88-14.5-25.31-.5-.87-.84-1.71-.18-2.64Z"/>
  <path class="cls-24" d="M556.62,513.41c-.86-.07-1.46.37-2.12.88-3.44,2.68-7.05,5.14-10.4,7.94-.7.59-1.46,1.27-2.49,1.33-.78-.37-1.11-1.11-1.5-1.8-4.18-7.25-8.37-14.49-12.54-21.75-4.84-8.43-9.66-16.88-14.5-25.31-.5-.87-.84-1.71-.18-2.64,7.18-.94,14.39-1.69,21.59-2.45,1.43-.15,2.85-1.28,4.37-.32-.06,1.88.78,3.56,1.27,5.3,1.78,6.26,3.48,12.56,5.61,18.71,1.87,5.38,3.65,10.88,7.31,15.45,1.22,1.53,1.78,3.58,3.59,4.65Z"/>
  <path class="cls-28" d="M306.54,439.59c-2.84-2.19-5.33-4.78-7.97-7.2-5.7-5.22-11.37-10.48-17.04-15.73-.34-.32-.63-.7-.94-1.06,2.39-2.84,5.46-4.85,8.46-6.95,3.99-2.79,7.74-5.88,11.63-8.79,2.6-1.95,5.25-4.15,8.85-1.97.4.24.93-.09,1.41-.1,1.78,1.23,3.22,2.85,4.78,4.32,4.71,4.42,9.38,8.9,14.06,13.35-.32,1.42-1.39.88-2.02.55-1.87-.96-2.84-.12-3.94,1.33-4.17,5.54-7.76,11.5-12.14,16.89-1.36,1.67-2.61,3.42-4.09,4.99-.28.29-.59.54-1.04.36Z"/>
  <path class="cls-28" d="M336.75,379.17c-3.69-3.01-6.99-6.43-10.49-9.64-2.91-2.68-5.73-5.46-8.59-8.19,2.02-2.84,5.33-3.98,7.98-5.98,5.16-3.88,10.52-7.5,15.82-11.19,2.4-1.68,3.77-1.57,5.83.54.84.86,1.79,1.29,2.97,1.27,3.37,2.69,6.41,5.75,9.59,8.66,4.36,3.99,8.66,8.04,12.99,12.07-.72,1.43-1.77.85-2.54.24-2.21-1.75-4.27-1.22-6.39.1-6.83,4.27-13.83,8.2-21.48,10.82-1.84.63-3.58,1.82-5.7,1.3Z"/>
  <path class="cls-21" d="M538.84,469.29c-3.49,1.33-7.25,1.12-10.86,1.82-1.68.33-3.45.24-5.18.51-2.56.41-5.18.47-7.74.96-.74.14-1.61.29-2.18-.52,4.05-7.15,8.1-14.31,12.17-21.46,2.6-4.57,5.27-9.11,7.84-13.7.47-.84,1.04-1.38,1.96-1.57,4.15-.86,8.22-1.97,12.28-3.16.69,1.08.14,2.15-.02,3.22-1.4,9.37-2.04,7.86,7.13,8.7,1.1.1,2.22-.02,3.33.05.71.05,1.44.09,1.92.74,1.65.88,3.44.14,5.33.52-.96,1.3-2.34,2.05-3.5,2.94-1.9,1.45-3.67,3.07-5.37,4.69-4.55,4.34-9.38,8.39-13.63,13.05-1.07,1.18-2.75,1.68-3.48,3.21Z"/>
  <path class="cls-17" d="M268.19,537.38c.9.12.67.62.43,1.19-1.12,2.64-2.19,5.29-3.33,7.92-2.25,5.18-4.33,10.43-6.66,15.59-1.18,2.62-3.01,3.47-5.52,3.63-8.51.52-17.04.6-25.56.47-1.34-.02-2.68-.3-4-.55-.73-.13-1.25-.61-1.62-1.3-2.41-4.59-4.42-9.36-6.45-14.12-.09-.21-.03-.47-.03-.71,16.5-2.3,32.82-5.43,48.61-10.92,1.35-.47,2.75-.8,4.12-1.2Z"/>
  <path class="cls-3" d="M594.62,366.59c1.26-1.96,1.73-4.27,2.81-6.32,2.41-4.6,4.77-9.22,7.16-13.83.59-1.19,1.79-1.34,2.86-1.41,6.43-.44,12.86-.48,19.3-.01.12.1.27.19.34.32,1.44,2.43,1.43,2.42.05,4.88-8.09,14.41-16.17,28.82-24.25,43.23-1.25,2.24-1.73,2.49-4.2,2.25-1.35-.13-2.71-.22-4.06-.32-.92-.06-1.28-.55-1.11-1.43.18-.94.38-1.88.57-2.82,1.67-7.99,1.98-16,.5-24.05-.03-.15.02-.32.03-.48Z"/>
  <path class="cls-4" d="M275.4,456.43c-1.94.96-3.11-.54-4.42-1.45-3.37-2.35-5.62-5.84-8.61-8.59-2.41-2.21-4.88-4.35-7.2-6.66-2-1.99-2.81-1.89-4.81.18-3.72,3.85-7.82,7.3-11.66,11.02-2.4,2.32-4.89,4.58-7.28,6.93-.64.63-1.41,1.03-2.19,1.43-3.04-2.33-5.79-4.99-8.67-7.51-4.14-3.63-8.27-7.27-12.39-10.92-1.95-1.72-2.18-2.65-1.15-5.04,3.69-8.5,8.08-16.63,13.17-24.38.48-.73,1.1-1.36,1.69-2,.51-.56,1.13-.46,1.75-.16,3.45,2.35,6.9,4.71,8.99,8.49-4.33,3.44-8.26,7.29-11.86,11.47-1.36,1.58-2.23,3.47-3.03,5.41-2.06,4.98,2.41,11.01,7.71,11.42,1.3.1,2.5-.42,3.58-1.16,1.33-.91,2.44-2.05,3.46-3.29,3.47-4.28,7.01-8.5,10.73-12.58.43-.47.89-.91,1.34-1.36,2.83,1.38,5.09,3.42,6.88,6,4.1,4.26,8.58,8.12,12.84,12.21,3.69,3.54,7.42,7.03,11.13,10.55Z"/>
  <path class="cls-4" d="M360.24,311.08c1.1-1.67,2.73-2.68,4.44-3.55,4.6-2.33,9.44-3.88,14.6-4.36,1.9-.18,3.82-.44,5.68-.87,2.26-.52,3.06-1.83,2.55-4.08-.27-1.18-.34-2.37-.51-3.55-.18-1.21-.75-2.03-1.89-2.55-11.52-5.19-23.88-4.67-33.33,5.19-1.05,1.09-2.2,2.08-3.3,3.12-2.97-1.24-5.11-3.48-7.14-5.87-.25-.71-1.24-.76-1.44-1.67,3.66-2.08,7.57-3.58,11.64-4.68,10.68-2.89,21.43-3.41,32.13-.26,9.01,2.65,16.61,7.64,22.8,14.72.26.69-.16,1.1-.67,1.33-2.53,1.12-4.31,3.21-6.38,4.92-2.4,1.98-4.87,3.86-7.69,5.19-4.73,2.24-9.19,5.08-14.25,6.62-.83.25-1.34.77-1.45,1.69-.06.55.28,1.37-.75,1.45-5.14-4.13-10.18-8.37-15.05-12.81Z"/>
  <path class="cls-3" d="M627.15,217.77c-5.34-.04-10.65.77-16,.53-.56-.03-1.13.07-1.67-.03-2.12-.37-3.95-.8-5.19-3.13-2.41-4.51-4.45-9.18-6.67-13.77-3.09-6.38-5.71-12.98-8.39-19.54-1.14-2.8-2.35-5.58-2.94-8.57,4.54-.04,9.09-.05,13.63-.12,1.55-.02,2.21.98,2.87,2.13,3.25,5.67,6.52,11.33,9.79,16.99,4.66,8.07,9.33,16.15,13.99,24.23.23.41.39.86.59,1.29Z"/>
  <path class="cls-18" d="M519.78,281.13c1.16,1.45.97,2.95.14,4.46-5.13,9.3-10.23,18.61-15.4,27.89-1.36,2.43-1.62,2.43-4.44,1.86-9.47-1.9-18.97-3.62-28.66-4.04-1.35-.06-2.7-.28-4.42-.46,1.92-1.85,4.32-2.34,6.17-3.69,1.93-1.41,3.81-2.88,5.71-4.33,1.89-.25,3.78-.75,5.69-.65,2.25.11,3.51-1.04,4.59-2.8,3.35-5.43,6.76-10.83,9.65-16.53,1.23-2.44,3.11-3.15,5.59-3.27,5.21-.26,10.33.25,15.38,1.56Z"/>
  <path class="cls-4" d="M350.28,345.98c-.24.43-.48.76-1.1.65-1.1-.2-1.84-.87-2.5-1.69-1.27-1.56-2.64-1.88-4.27-.75-4.56,3.15-9.06,6.39-13.6,9.58-2.33,1.64-4.48,3.55-7.07,4.79-1.51.73-2.39,2.33-4.07,2.78-5.43-4.35-10.51-9.07-15.41-14-1.13-1.14-1.15-2.28-.78-3.71,2.59-10.08,6.7-19.44,12.87-27.86.71-.54,1.39-.19,1.94.21,2.42,1.76,4.87,3.48,7.15,5.42.3.25.55.57.39,1.02-2.94,3.27-6.22,6.22-8.83,9.79-1.85,2.53-2.98,5.27-2.74,8.47.27,3.55,2.18,5.92,5.32,7.37,1.57.72,3.12.5,4.57-.41,1.38-.87,2.42-2.07,3.38-3.36,2.77-3.72,5.54-7.43,8.32-11.14.33-.44.74-.83,1.11-1.24.33-.02.68.02.89.25,2.23,2.36,5,4.14,7.16,6.57,1.63,2.02,3.69,3.59,5.49,5.42.6.61,1.17,1.24,1.76,1.86Z"/>
  <path class="cls-6" d="M472.58,255.72c-2.91,2.35-5.52,5.06-8.58,7.24-3.87,2.75-8.22,4.59-12.46,6.61-2.23,1.06-4.55,1.94-6.86,2.79-5.13,1.88-10.4,1.91-15.78,1.28-6.19-.73-11.67-3.1-16.73-6.59-2.77-1.92-5.06-4.37-7.09-7.06-.47-.63-.69-1.47-1.47-1.85.51-3.74,1.15-7.44,2.28-11.05,2.57.19,4.74,1.34,6.74,2.87,2.17,1.66,4.51,3.02,6.83,4.44,1.15.71,2,.96,2.35-.77.09-.46.37-1.18,1.16-.61.59,1.04.37,2.18.41,3.29.26,7.23,5.57,13.09,12.38,13.65,8.22.68,14.47-3.68,16.1-11.15.44-1.99.53-3.94.04-5.93-.22-.91-.56-1.86-.11-2.82.66-.8,1.67-.85,2.55-1.18,4.78-1.76,9.4-3.86,13.49-6.96,2.67,4.23,4.23,8.83,4.75,13.8Z"/>
  <path class="cls-6" d="M626.74,345c-.71.77-1.64.47-2.48.48-4.77.02-9.55.02-14.32,0-1.84,0-3.61.36-5.35.95-2.56-6.44-6.67-12.06-9.63-18.29-1.1-2.31-2-4.66-1.96-7.27-.45-.59-.29-1.22-.04-1.81,1.5-3.6,3.19-7.12,4.68-10.73.24-.59.58-1.15,1.32-1.25.11-.21.29-.41.32-.63.48-4.08.42-4.14-3.67-4.15-2.79,0-5.59.01-8.38-.02-.77,0-1.61.26-2.27-.41,5.18-.03,10.36-.03,15.55-.12,1.17-.02,1.69.56,2.2,1.45,2.61,4.56,5.27,9.1,7.9,13.64,5.27,9.09,10.53,18.19,15.78,27.29.16.27.25.58.37.87Z"/>
  <path class="cls-28" d="M375.29,323.89c.28-3.9.25-3.19,3.67-4.21.93-.28,1.79-.69,2.63-1.13,4.38-2.29,8.95-4.21,13.15-6.83,2.78-1.73,5.09-4.05,7.62-6.11,1.04-.84,1.8-2.03,3.35-2.08.38-.01.6-.49.77-.85,3.1,3.24,5.48,6.96,7.24,11.07.31,2.15-.86,3.88-1.83,5.55-3.93,6.75-7.94,13.46-12.37,19.89-.93,1.35-1.4,2.64-.5,4.2.35.6.79,1.54-.7,1.22-4.69-4.17-9.4-8.33-14.07-12.52-3.01-2.7-5.98-5.46-8.96-8.19Z"/>
  <path class="cls-6" d="M432.75,211.06c-3.33.13-3.17.58-3.35-2.7-.6-10.84-1.22-21.69-1.78-32.53-.06-1.19-.63-1.86-1.49-2.54-2.97-2.36-5.08-5.24-5.61-9.14-.8-5.92,4.59-12.87,10.52-13.36,3.27-.27,8.31,1.51,10.3,6.48,2.1,5.22,2.12,10.34-2.34,14.59-1.02.97-1.07,2.05-.9,3.28.56,4.11,1.17,8.22,1.64,12.34.8,7.07,1.25,14.16,1.23,21.27,0,1.75-.04,1.78-1.67,1.9-2.31.17-4.62.3-6.54.42Z"/>
  <path class="cls-8" d="M447.21,437.62c-.04.6-.24,1.18-.86,1.3-4.8.94-6.69,4.68-8.28,8.65-1.08,2.68-3.17,4.5-5.14,6.43-.35.34-.74.03-1.11-.07-1.75-2.67-3.03-5.58-4.52-8.39-3.94-7.46-7.83-14.95-11.72-22.44-.22-.42-.36-.88-.54-1.31-.58-1.06-.11-1.78.75-2.42,3.5-2.61,6.7-5.58,10.11-8.29,1.95-1.56,3.05-3.41,1.82-6.02-.24-.51-1.16-1.85.75-1.51.67.45,1.13,1.07,1.5,1.77,4.28,11.55,10.49,22.07,17.24,32.31Z"/>
  <path class="cls-8" d="M385.29,378.19c3.55,3.08,6.81,6.47,10.18,9.74,1.27,1.23,1.26,1.39-.2,2.57-4.17,3.36-8.62,6.3-13.29,8.93-4.45,2.51-9.16,4.47-13.84,6.49-1.21.52-2.23.54-3.26-.47-4.89-4.8-9.83-9.55-14.75-14.31,1.25-1.23,2.97-1.47,4.5-2.04,7.52-2.84,14.85-6.09,22.08-9.59,2.81-1.36,5.47-2.5,8.58-1.31Z"/>
  <path class="cls-9" d="M223.37,368.93c-3.57,4.04-7.3,7.92-11.13,11.71-.71.4-1.49.6-2.29.48-4.08-.65-8.18-1.17-12.22-2.05-.96-.21-1.92-.49-1.49-1.85,1.63-3.63,3.23-7.27,4.88-10.89,2.49-5.44,5.03-10.84,7.49-16.29.56-1.24,1.25-1.86,2.69-1.83,12.84.27,25.69.22,38.54.13.21,0,.43.08,1,.2-2.8,1.98-5.46,3.63-8.19,5.2-.73.19-1.4.51-2.08.83-3.93.89-7.87.88-11.86.39-3.23-.4-6.51-.06-9.75-.57-1.67-.26-2.09.71-1.58,2.22,1.17,3.5,2.86,6.73,4.95,9.76.54.78,1.22,1.5,1.04,2.57Z"/>
  <path class="cls-3" d="M306.54,439.59c4.73-5.49,8.99-11.33,13.03-17.33,1.42-2.11,2.96-4.14,4.49-6.17,1.2-1.59,1.22-1.49,3.08-.88.81.27,1.66,1.18,2.62.25,3.49,3.06,6.88,6.23,10.05,9.63-3.44,3.84-4.49,8.88-6.65,13.36-2.6,5.38-5.14,10.78-8.17,15.94-.28.49-.58.96-1.17,1.12-2.49-1.72-4.51-3.98-6.72-6.01-3.55-3.27-7.24-6.4-10.57-9.91Z"/>
  <path class="cls-3" d="M255.9,483.71c1.45.03,2.24-1.15,3.23-1.87,3.98-2.9,7.92-5.85,11.76-8.93,2.91-2.33,5.7-4.82,8.44-7.36,1.19-1.1,2.25-1.99,3.95-1.14.29.15.6-.12.81-.37,5.72,4.97,11.31,10.08,16.75,15.36-.04,1.01-.85.92-1.34.7-2.64-1.18-4.35.26-6.02,1.96-.33.34-.66.68-1.02.99-5.41,3.48-10.96,6.71-16.65,9.72-1.68.89-3.46,1.61-4.73,3.13-.37.45-.87.71-1.46.28-3.89-3.14-7.41-6.7-11.15-10.02-.88-.79-1.72-1.63-2.57-2.45Z"/>
  <path class="cls-3" d="M519.78,281.13c-1.05.7-2.07.43-3.19.09-4.83-1.44-9.75-1.24-14.68-.62-.89.11-1.41.52-1.83,1.29-2.42,4.49-4.88,8.97-7.58,13.3-1.18,1.89-2.39,3.77-3.55,5.68-.82,1.35-1.88,2.07-3.54,1.94-1.26-.1-2.53,0-3.79.34-.86.23-1.9.43-2.74-.32,2.34-2.61,4.79-5.12,6.85-7.99,7.59-10.61,10.38-22.45,9.23-35.33-.13-1.43-.2-2.87-.37-4.29-.11-.96.27-1.47,1.16-1.78,2.63-.91,5.37-1.55,7.85-2.89.51-.28.92-.14,1.19.37.19.35.37.71.55,1.06,4.68,9.35,9.35,18.7,14.02,28.05.18.35.28.74.42,1.11Z"/>
  <path class="cls-6" d="M473.55,231.18c.48-.96,1.36-1.24,2.1-1.65,9.31-5.22,19.16-9.09,29.52-11.6,2.64-.64,4.51-1.63,5.96-4.12,3.3-5.67,11.08-6.4,15.61-1.63,3.06,3.22,4.36,7.13,3.13,11.46-1.18,4.16-3.9,7.07-8.2,8.27-2.47.69-4.77.16-6.89-1.11-1.5-.9-2.9-1.98-4.29-3.05-.85-.65-1.6-.77-2.63-.36-8.96,3.57-18.07,6.77-26.93,10.61-1.87.81-1.9.85-2.95-.96-1.24-2.15-2.92-3.97-4.43-5.86Z"/>
  <path class="cls-14" d="M559.49,444.88c-1.25-.3-2.53-.2-3.79-.12-2.7.15-5.36-.36-8.05-.37-1.6,0-2.1-.49-2.11-2.18,0-2.37.38-4.72.91-7.03.23-1,.46-2,.69-3,1.25-.8,2.67-1.2,4.05-1.7,3.06-.71,6.08-2.01,9.28-.61,4.07,0,8.17.26,12.22-.06,4.55-.36,9.09-.16,13.63-.26,2.17-.05,3.19.62,3.67,2.61.85,3.56.43,7.09-.76,10.53-.36,1.03-1.1,1.73-2.29,1.82-.47.04-.94.21-1.41.23-5.1.2-10.2.81-15.29.43-3.59-.27-7.17-.26-10.75-.28Z"/>
  <path class="cls-3" d="M195.71,529.3c-.87-3.15-1.19-6.4-1.75-9.6.97-2.82,3.38-3.37,5.92-3.98,9.21-2.23,18.3-4.84,26.82-9.1,1.32-.66,2.66-1.01,4.13-.9,4.32,3.64,8.51,7.42,12.55,11.38.48,1.56-.51,2.26-1.71,2.64-12.96,4.2-25.97,8.22-39.67,9.26-1.2.09-2.36.35-3.54.56-.94.17-1.89.41-2.75-.25Z"/>
  <path class="cls-3" d="M385.29,378.19c-.14.9-.71,1.08-1.35.6-1.53-1.16-2.96-.67-4.45.07-8.68,4.29-17.57,8.11-26.6,11.58-.88.34-1.78.71-2.76.69-4.61-3.82-9.06-7.82-13.38-11.97,6.07-1.97,12.04-4.19,17.65-7.23,3.08-1.67,6.04-3.55,9.05-5.32.69-.4,1.36-.86,2.11-1.12,1.71-.58,3.41-.85,4.82.78.68.79,1.49,1.23,2.48.43,4.23,3.73,8.43,7.51,12.43,11.49Z"/>
  <path class="cls-4" d="M310.93,397.8c-.52.88-.95,1.64-2.13.57-1.3-1.18-2.74-1.11-4.37-.26-2.7,1.41-5.02,3.34-7.32,5.25-3.37,2.78-7.06,5.09-10.49,7.77-1.43,1.12-3,2.07-4.23,3.44-.49.54-1.03,1-1.81,1.04-3.36-2.55-6.37-5.51-9.59-8.22-.61-.51-1.22-1.01-1.83-1.51-.37-.2-.78-.36-.84-.86,5.84-4.81,11.96-9.24,18.17-13.54,2.03-1.4,4.12-2.74,6.02-4.3,1.63-1.34,3.32-2.12,5.44-1.8,4.47,3.99,8.78,8.15,12.97,12.43Z"/>
  <path class="cls-4" d="M284.99,373.16c-9.57,5.11-17.88,11.91-25.88,19.15-.89.8-1.75,1.63-2.63,2.44-.24.08-.5.08-.67-.09-3.6-3.35-7.67-6.21-10.65-10.21-.74-.81-.37-1.4.34-1.98,1.92-1.56,3.79-3.19,5.73-4.72,6.42-5.03,13.22-9.49,20.41-13.35,2.26-1.22,2.28-1.23,4.11.42,3.08,2.77,6.15,5.56,9.22,8.34Z"/>
  <path class="cls-3" d="M398.32,344.6c.39-.13.86-.34.41-.78-1.6-1.61-1.04-3.11.06-4.68,4.63-6.55,8.63-13.5,12.75-20.38.93-1.55,1.46-3.34,2.17-5.02,2.58,4.41,3.84,9.28,4.59,14.25,1.52,10.16.22,20.05-3.36,29.66-.14.37-.34.72-.51,1.08-1.6-.72-11.67-9.57-16.11-14.13Z"/>
  <path class="cls-12" d="M230.83,505.71c-.05.31-.16.77-.49.67-1.12-.36-2.01.11-2.94.59-7.38,3.8-15.27,6.19-23.24,8.34-2.14.58-4.31,1-6.45,1.56-1.21.32-2.53.53-2.52,2.32,0,.72-.61.83-1.23.51-.27-.97-.32-1.95-.1-2.94,1.99-2.8,3.67-5.8,4.81-9.03,1.49-4.22,3.09-8.39,4.43-12.66.82-2.61,2.01-5.04,3.46-7.35,1.09-1.74,1.86-1.85,3.44-.48.97.83,1.8,1.81,2.74,2.67.64.59,1.29,1.25,2.31.84,4.47,3.74,8.47,7.98,12.76,11.91,1.05.97,2.02,2.03,3.02,3.04Z"/>
  <path class="cls-18" d="M292.21,482.71c.5-.91,1.28-1.61,2.07-2.23,1.5-1.2,3.1-2.25,5.1-.92.49.32,1.03.41,1.46-.15,4.33,3.53,8.36,7.4,12.55,11.09.9.79.75,1.38-.01,2.15-2.47,2.51-5.2,4.72-7.93,6.93-5.22,4.22-10.75,8.02-16.47,11.54-1.2.74-2.06.81-3.14-.19-2.1-1.96-4.3-3.79-6.46-5.68,5.71-1.74,8.01-6.44,9.85-11.47.99-2.7,1.75-5.48,2.15-8.34.13-.94.25-1.91.83-2.73Z"/>
  <path class="cls-7" d="M245.16,384.45c3.91,3.28,7.64,6.76,11.32,10.3-1.34,1.25-2.66,2.53-4.04,3.74-6.31,5.54-12.02,11.66-17.36,18.13-.6.73-1.07,1.98-2.45,1.15-2.16-2.57-4.93-4.49-7.3-6.83-.56-.55-1.29-.94-1.69-1.66.53-3.55,3.04-5.97,5.1-8.6,3.67-4.7,7.72-9.08,11.86-13.38.92-.96,1.75-2.05,3.43-1.61.72.19,1.07-.53,1.13-1.24Z"/>
  <path class="cls-18" d="M323.83,455.51c1.48-2.81,2.95-5.63,4.45-8.43,2.25-4.2,4.17-8.56,6.11-12.91.97-2.17,1.82-4.4,2.69-6.61.51-1.3,1.54-1.98,2.75-2.47,2.63,2.2,4.85,4.84,7.34,7.19.56.53.84,1.13.64,1.92-2.49,9.98-4.96,19.97-10.34,28.93-2.29,3.81-1.85,2.98-4.41.71-3.1-2.75-6.35-5.33-9.22-8.32Z"/>
  <path class="cls-4" d="M467.83,241.92c.05,1.02-.18,1.52-1.38,1.98-2.49.95-4.76,2.45-7.16,3.65-2.33,1.16-4.72,2.18-7.35,2.49-.69.06-.94-.48-1.26-.92-2.41-3.28-5.46-5.69-9.37-6.96-.82-.27-1.67-.55-2.12-1.4-.43-1.69-.42-3.46-.79-5.16-.83-3.83-2.1-7.35-6.03-9.11-.37-.17-.63-.47-.66-.91,15.07-1.91,27.04,3.25,35.81,15.7.13.19.2.42.3.64Z"/>
  <path class="cls-5" d="M343.03,338.69c-3.18-1.69-5.71-4.14-8.05-6.82,3.73-4.26,7.97-7.99,12.25-11.65,3.68-3.15,7.51-6.12,11.27-9.17-.17.74.28,1.12.8,1.56,1.53,1.31,2.66,2.94,3.6,4.72.95,1.79,1.05,3.66.54,5.57-.77,2.93-2.28,5.45-4.55,7.44-3,2.64-6.25,4.93-9.79,6.81-1.92,1.01-3.84,1.85-6.07,1.54Z"/>
  <path class="cls-12" d="M196.24,377.22c.1.56.24,1.15.91,1.23,5.06.56,10.01,1.84,15.09,2.2-5.03,6.79-9.96,13.66-14.21,20.98-1.8,3.1-3.52,6.25-5.28,9.38-.94,1.66-1.18,1.7-2.21.22-1.59-2.3-3.11-4.64-4.71-6.93-.69-.99-.96-1.97-.43-3.13,3.66-7.96,7-16.06,10.83-23.95Z"/>
  <path class="cls-5" d="M268.32,405.01c.27.29.72.42.84.86-.6.13-1.16.38-.79,1.1.25.48.7.86,1.07,1.27,1.14,1.24,2.12,2.59,3,4.02.94,1.51,1.18,3.01.58,4.77-1.2,3.53-3.38,6.32-6.18,8.64-2.58,2.14-5.45,3.88-8.28,5.68-2.2,1.4-4.59,2.09-7.14,2.32-2.29-2-4.58-4-6.88-6,1.13-1.64,2.41-3.15,3.88-4.51,6.25-5.78,12.49-11.56,18.74-17.33.34-.32.76-.56,1.14-.84Z"/>
  <path class="cls-23" d="M442.63,136.73c-2.39-4.24-4.78-8.47-7.17-12.71-.12-.21-.24-.42-.35-.63-.87-1.71-.78-1.93,1.07-1.92,2.55.02,5.1.17,7.65.21,4.95.08,9.89.12,14.84.19,3.17.04,3.93.8,3.95,3.99.02,3.03.03,6.07,0,9.1-.03,2.7-.88,3.57-3.6,3.63-4.31.09-8.61.12-12.92.18-1.16-.68-2.32-1.36-3.48-2.04Z"/>
  <path class="cls-9" d="M215.04,490.75c-.21,1.11-.81,1.37-1.66.63-.96-.84-1.84-1.78-2.75-2.68-.45-.45-.88-.93-1.35-1.36-1.02-.92-1.36-.91-2,.25-1.25,2.22-2.54,4.42-3.36,6.86-1.45,4.31-2.95,8.6-4.42,12.9-.62,1.82-1.38,3.57-2.49,5.16-.64.92-1.09,1.94-1.39,3.04-.24.88-.8,1.36-1.77,1.21-.77-4.25-.91-8.56-1.02-12.86-.27-9.99.35-19.93,2.01-29.79.09-.54.02-1.14.59-1.48.56-.05.86.37,1.2.68,5.95,5.56,11.89,11.13,17.82,16.7.23.21.39.49.58.74Z"/>
  <path class="cls-18" d="M195.71,529.3c3.37-.48,6.73-1.07,10.12-1.43,5.53-.6,10.98-1.71,16.37-2.99,4.41-1.04,8.71-2.51,13.03-3.89,1.97-.63,3.92-1.34,5.95-1.75,1.29-.26,1.99-.9,2.19-2.15,2.61,2.79,5.21,5.58,7.88,8.43-.39.51-1.33.55-2.12.82-6.98,2.35-14.19,3.69-21.45,4.77-9.62,1.44-19.26,2.79-28.96,3.56-2.1.17-2.12.2-2.48-1.83-.21-1.17-.61-2.32-.52-3.54Z"/>
  <path class="cls-7" d="M323.84,322.4c-2.63-2.34-5.59-4.24-8.35-6.4-.35-.27-.73-.27-1.13-.25,2.47-1.9,4.21-4.48,6.34-6.71,4.67-4.89,9.92-9.09,15.23-13.25,1.72-1.34,3.56-1.08,5.42-1.23,2.68,1.59,4.74,3.93,7.14,5.87-.3.61-.91.87-1.42,1.24-7.76,5.52-14.66,11.97-20.74,19.31-.65.79-1.18,1.78-2.48,1.43Z"/>
  <path class="cls-14" d="M431.72,225.58c4.35,1.2,5.96,4.69,7.02,8.54.59,2.14.93,4.35.84,6.6-1.08.53-2.22.97-2.85,2.11-3.28,2.85-6.96,4.83-11.35,5.29-7.85-1.38-10.92-10.27-8.12-16.75,4.06-3.83,8.97-5.55,14.46-5.79Z"/>
  <path class="cls-12" d="M447.21,437.62c-1.6-.47-2.45-1.76-3.17-3.09-4.35-7.96-8.66-15.95-12.98-23.93-.89-1.65-1.35-3.4-1.09-5.29,2.02,1.93,4.03,3.85,6.05,5.78,6.32,6.02,13.18,11.36,20.27,16.42,1.33,3.83,4.24,6.24,7.5,8.32.6.38,1.3.62,1.75,1.22.14.19.29.39.14.65-.13.22-.33.33-.59.29-5.95-.82-11.93-.2-17.89-.36Z"/>
  <path class="cls-8" d="M347.35,494.67c.16,0,.36.08.47,0,2.27-1.54,4.8-.93,7.26-.91,1.06.6,2.31-.14,3.37.45.47,0,.95.02,1.42.02-1.68,4.84-3.9,9.4-7.02,13.5-.78,1.03-1.46,2.1-1.59,3.42-.14,1.38.15,1.7,1.52,1.78.56.03,1.12,0,1.68,0,10.3.01,20.6.02,30.9.03-.58.63-1.35.38-2.03.38-16.62.01-33.25,0-49.87-.01-.68,0-1.45.26-2.02-.34,0-.18-.07-.4,0-.47,5.42-5.11,9.94-11.02,14.75-16.68.36-.42.63-.93,1.17-1.17Z"/>
  <path class="cls-19" d="M108.32,275.01c2.69-.95,4.59-3.06,6.84-4.66,2.26-1.61,4.41-3.37,6.59-5.09.48-.38,1.03-.38,1.58-.41,5.52.07,11.02.78,16.55.51.91-.04,1.99.25,2.26-1.11,1.41,3.6,2.82,7.2,4.22,10.78-.82.51-1.55.32-2.24.32-11.17.01-22.34.02-33.52,0-.77,0-1.6.27-2.29-.34Z"/>
  <path class="cls-16" d="M325.19,186.68c-.05-.06-.14-.11-.15-.18-1.37-5.13-1.33-5.14,3.91-5.13,10.38.03,20.76.02,31.15.02.56,0,1.11-.06,1.67-.1,7.17-.02,14.33-.04,21.5-.04.39,0,.77.14,1.16.21.17,2.13-1.55,3.27-2.53,4.79-1.15.72-2.43.7-3.71.71-16.71,0-33.42,0-50.13.01-.97,0-1.9-.18-2.85-.29Z"/>
  <path class="cls-14" d="M536.35,198.74c2.29-4.33,5.28-8.14,8.66-11.63,1.79-1.85,2.75-2,4.77-.44,2.52,1.95,4.71,4.23,6.18,7.14.51,1.01.33,1.71-.25,2.58-1.4,2.15-3.2,3.96-4.95,5.79-1.15,1.2-2.49,2.21-3.75,3.31-1.18,1.04-2.43,1.38-3.85.46-.26-.17-.59-.23-.89-.34-1.96-2.31-3.48-5-5.93-6.88Z"/>
  <path class="cls-8" d="M292.21,482.71c.12,3.06-.79,5.94-1.57,8.83-.97,3.63-2.52,7.02-4.75,10.04-1.6,2.16-3.51,3.93-6.52,3.67-3.37-2.89-6.65-5.88-9.75-9.07,2.44-2.45,5.59-3.79,8.56-5.36,4.78-2.52,9.26-5.56,14.02-8.11Z"/>
  <path class="cls-18" d="M428.47,403.55c-.2.1-.58.22-.57.28.06.37.17.75.32,1.1,1.08,2.49.49,4.77-1.65,6.47-2.9,2.32-5.92,4.49-8.53,7.15-.51.52-1.11.9-1.77,1.17-.96.39-1.3,1.1-1.23,2.07-1.77-3.1-3.54-6.21-5.33-9.3-.54-.93-.66-1.74.31-2.51,4.07-3.23,7.49-7.13,11.11-10.82.28-.28.57-.56.82-.87.68-.81,1.3-.71,1.96.06,1.5,1.74,3.03,3.46,4.54,5.19Z"/>
  <path class="cls-14" d="M204.99,471.09c-.1-.12-.2-.25-.3-.37-2.32-2.62-3.47-5.55-2.11-8.98,1.5-3.76,3.99-6.48,8.21-7.17,1.64-.27,3.19.09,4.6.88,1.82,1.02,3.43,2.3,4.39,4.23,1.42,3.77-.4,8.34-4.21,10.88-3.9,2.61-7.44,2.82-10.58.52Z"/>
  <path class="cls-4" d="M417.25,231.36c-.13,1.73-.28,3.46-.39,5.2-.27,4.03,2.47,8.49,6.16,10.07.8.34,1.58.72,2.37,1.08.11,1.99-1.27,3.31-2.18,4.84-.15.16-.34.28-.55.35-.74.86-.33,2.19-1.27,3.05-2.94-1.15-5.55-2.98-8.13-4.78-1.95-1.37-3.76-2.9-6.21-3.31-.45-.07-.89-.35-1.16-.78,2.14-6.43,5.99-11.63,11.37-15.72Z"/>
  <path class="cls-14" d="M308.95,367.61c0,.14.04.27.1.4.88,2.71-.57,4.79-2.07,6.7-2.83,3.61-7.69,4.39-10.89,1.93-.55-.45-1.15-.86-1.65-1.37-2.14-2.2-2.76-4.77-1.75-7.69,1.58-4.57,6.47-7.17,10.88-5.74,2.4.78,4.13,2.33,5.05,4.73.18.32.13.72.34,1.04Z"/>
  <path class="cls-14" d="M223.37,368.93c-2.47-3.35-4.71-6.84-6.14-10.79-.19-.53-.4-1.04-.57-1.57-.89-2.69-.69-2.98,2.06-2.83,2.95.15,5.91.25,8.85.53,4.47.42,8.93.5,13.38-.24.39-.01.57.17.5.56-6.25,4.5-12.25,9.32-18.08,14.34Z"/>
  <path class="cls-3" d="M389.77,430.33c-1.35.76-2.29,1.99-3.33,3.08-1.28,1.34-2.67,2.58-4.22,3.51-2.22,1.33-3.95,3.22-5.94,4.79-1.19.94-2.2,1.51-3.65.87-.42-.18-.76.14-1.12.27.47-3.62.96-7.23,1.39-10.86.12-1.02.61-1.51,1.59-1.77,4-1.06,7.87-2.48,11.55-4.39.91-.47,1.47-.29,1.89.64.59,1.3,1.23,2.57,1.85,3.85Z"/>
  <path class="cls-5" d="M204.99,471.09c1.78.4,3.49,1.13,5.38.87,4.94-.67,8.56-4.23,9.21-9.18.13-1.02.13-2.06.19-3.1,1.55,2.34,2.76,4.79,3.03,7.66.21,2.27-.32,4.21-1.85,5.91-2.29,2.55-5.31,3.72-8.49,4.56-1.19.32-2.38.06-3.37-.77-1.91-1.61-3.59-3.39-4.11-5.96Z"/>
  <path class="cls-13" d="M560.47,429.85c-3.1.11-6.17.67-9.28.61,4.04-2.24,7.97-4.66,11.64-7.49.6-.46,1.24-.65,1.99-.65,11.33,0,22.66,0,34,0,.4,0,.8,0,1.07.37-8.46.02-16.92.03-25.38.05-2.69,0-3.43.66-3.98,3.33-.86,4.13-.25,3.21-3.95,3.39-2.04.1-4.12-.47-6.11.39Z"/>
  <path class="cls-5" d="M296.09,376.64c5.97,2.25,11.37-.75,12.61-7.02.11-.54.23-1.08.35-1.61,2.95,2.47,3.25,7.11.64,10.24-1.63,1.96-3.71,3.26-6.08,4.09-2.25.79-4.16.1-5.66-1.84-.9-1.17-1.14-2.63-1.87-3.86Z"/>
  <path class="cls-11" d="M298.5,533.04c-.36.54-.92.53-1.48.56-4.92.22-9.82-.35-14.73-.55-.2,0-.4-.23-.6-.35,4.46-1.73,8.9-3.49,13.1-5.92,1.6,1.98,2.5,4.22,3.71,6.27Z"/>
  <path class="cls-20" d="M241.45,354.58c-.17-.19-.34-.38-.51-.56.5-.48,1.1-.36,1.7-.3-.27.46-.64.79-1.19.86Z"/>
  <path class="cls-5" d="M308.95,367.61c-.37-.27-.44-.63-.34-1.04.43.25.49.61.34,1.04Z"/>
  <path class="cls-14" d="M242.2,135.24c-2.4,0-4.8-.09-7.18.03-1.41.07-2.31-.54-2.99-1.58-1.61-2.43-2.5-5.17-3.02-8.01-.3-1.64.56-2.66,2.47-2.77,3.18-.19,6.37-.81,9.54-.44,3.43.4,6.86.18,10.28.28,2.16.06,2.68.43,2.94,2.58.27,2.28.7,4.54.18,6.87-.43,1.94-.71,2.36-2.67,2.71-3.16.57-6.36.44-9.55.32Z"/>
  <path class="cls-14" d="M207.35,143.98c.14-.3.29-.67.48-1.02,2.43-4.53,5.54-8.55,9.16-12.18,1.3-1.3,2.12-1.45,3.6-.48,2.97,1.95,5.33,4.5,6.96,7.7.41.81.36,1.42-.11,2.2-1.42,2.35-3.31,4.3-5.26,6.15-1.43,1.36-2.76,2.87-4.53,3.87-.68.39-1.27.57-2.01.25-2.94-1.31-5.51-3.16-7.83-5.38-.29-.28-.55-.58-.46-1.1Z"/>
  <path class="cls-14" d="M132.88,314.22c-2.4,0-4.8-.1-7.18.03-1.5.08-2.45-.57-3.17-1.7-1.52-2.39-2.37-5.06-2.92-7.8-.31-1.57.5-2.73,2.15-2.8,3.81-.17,7.58-.82,11.44-.33,2.75.35,5.58.11,8.38.13,2.58.02,3.02.4,3.32,2.97.26,2.21.58,4.4.1,6.63-.38,1.76-.76,2.22-2.57,2.55-3.16.57-6.36.45-9.54.32Z"/>
  <path class="cls-14" d="M106.83,329.62c-.33-.12-.88-.27-1.37-.52-2.42-1.24-4.6-2.83-6.65-4.62-.86-.75-1.02-1.41-.45-2.47,1.48-2.75,3.24-5.31,5.19-7.73,1.3-1.61,2.57-3.26,4.13-4.63,1.28-1.13,2.02-1.33,3.42-.43,3.05,1.98,5.47,4.57,7.11,7.87.37.74.28,1.29-.12,1.98-1.36,2.39-3.3,4.31-5.23,6.17-1.41,1.36-2.73,2.92-4.53,3.87-.42.22-.76.59-1.5.5Z"/>
  <path class="cls-14" d="M348.17,75.74c-1.36,0-2.72.07-4.08-.01-4.9-.31-8.55,1.98-11.65,5.47-2.18,2.45-3.99,5.18-5.89,7.85-1.89,2.66-2.42,2.77-5.53,1.56-1.58-.61-2.97-1.55-4.4-2.41-1.51-.91-1.53-.98-.75-2.65,2.29-4.92,4.94-9.66,7.88-14.23,1.59-2.48,3.13-5,4.98-7.31,1.24-1.55,2.73-2.38,4.66-2.5,4.06-.26,8.1-.64,12.18-.64,5.66,0,11.32-.49,16.99-.35,2.31.06,4.63-.04,6.94.05,2.19.08,2.4.39,2.45,2.57.08,3.22-.44,6.35-1.43,9.41-.48,1.5-1.21,2.3-3,2.48-2.39.25-4.78.27-7.16.32-4.07.09-8.12.71-12.19.4Z"/>
  <path class="cls-26" d="M476.81,505.73c-2.31,0-4.63-.08-6.94.02-2.56.12-4.09-1.01-4.34-3.99-.27-3.25-.14-6.54-.03-9.81.07-2.04,1.17-2.91,3.22-3.02,5.81-.29,11.62-.49,17.44-.55,2.29-.02,4.59-.48,6.9-.38,1.69.07,2.05.55,1.3,2.06-1.5,2.99-3.12,5.92-4.7,8.88-.94,1.76-1.95,3.48-2.81,5.27-.56,1.16-1.32,1.65-2.62,1.61-2.47-.08-4.95-.02-7.42-.02v-.07Z"/>
  <path class="cls-23" d="M449.37,488.95c3.76,0,7.51-.03,11.27,0,2.81.03,3.71.91,3.76,3.76.06,3.12.06,6.23,0,9.35-.05,2.63-1.01,3.55-3.71,3.59-4.15.07-8.31.03-12.47.1-1.67.03-2.9-.57-3.8-2.01-2.74-4.41-5.34-8.91-7.75-13.51-.78-1.49-.64-1.68,1.2-1.69,3.83-.02,7.66,0,11.5,0,0,.14,0,.27,0,.41Z"/>
  <path class="cls-14" d="M570.98,178.57c2.87,0,5.75-.01,8.62,0,2.21.01,2.51.3,3.01,2.51.53,2.36.56,4.75.28,7.13-.21,1.84-.89,2.54-2.77,2.67-4.52.32-9.03.93-13.57.2-1.01-.16-2.08-.12-3.11-.02-1.37.13-2.3-.43-3-1.52-1.48-2.32-2.42-4.85-2.89-7.54-.36-2.09.13-2.74,2.22-3.11,3.71-.65,7.46-.46,11.2-.33Z"/>
  <path class="cls-14" d="M325.19,186.68c.45-.62,1.13-.5,1.76-.5,18.15,0,36.31.02,54.46.03.16,0,.32.03.48.04-2.61,5.03-5.24,10.06-7.83,15.1-.81,1.57-2.1,2.03-3.76,1.99-4.55-.11-9.11-.19-13.66-.24-6.47-.07-12.95-.14-19.42-.09-1.84.01-2.94-.65-3.83-2.23-2.66-4.74-5.45-9.4-8.19-14.09Z"/>
  <path class="cls-26" d="M475.01,138.66c-2.24,0-4.47.03-6.71,0-2.97-.04-4.28-1.3-4.32-4.2-.04-3.11-.04-6.23,0-9.35.03-2.4.81-3.16,3.14-3.24,5.82-.19,11.63-.58,17.45-.56,2.21,0,4.43-.47,6.67-.38,2,.08,2.28.5,1.33,2.31-2.46,4.66-4.98,9.28-7.45,13.93-.59,1.12-1.41,1.6-2.69,1.57-2.47-.06-4.95-.02-7.43-.02v-.07Z"/>
  <path class="cls-9" d="M320.54,589.23c6.93-9.47,12.75-19.66,19.27-29.4.67-.65,1.54-.85,2.4-.93,8.8-.82,17.6-.64,26.39.24.78.08,1.6.14,2.22.75.68,2.9,2.28,5.42,3.45,8.12,2.52,5.86,5.14,11.67,7.8,17.47.76,1.65,1.64,3.26,2.76,4.71,0,.15-.02.3-.03.45-.14.17-.26.36-.37.55-3.6,7.82-6.66,15.86-10.1,23.75-.73,1.68-1.65,3.28-2.45,4.93-.46.95-1.18,1.36-2.23,1.54-1.42.23-2.83.39-4.26.47-7.24.41-14.49.51-21.75.45-1.85-.01-3.63-.38-5.46-.48-1.05-.06-1.68-.73-2.16-1.65-1.82-3.46-3.36-7.05-4.95-10.62-2.56-5.75-5.18-11.48-7.8-17.2-.6-1.3-1.25-2.61-2.74-3.16Z"/>
  <path class="cls-12" d="M384.42,591.2c.12-.18.24-.37.37-.55-.12.18-.24.37-.37.55Z"/>
  <path class="cls-19" d="M153.57,442.56c2.72,5.03,4.84,10.33,7.2,15.52,1.7,3.75,3.33,7.54,5.09,11.26.51,1.08.95,2.45,2.6,2.38-1.03.49-1.69,1.28-2.22,2.32-2.09,4.14-3.66,8.5-5.5,12.74-1.97,4.53-3.72,9.16-5.9,13.61-.93,1.9-2.03,3.16-4.23,3.21-.39,0-.78.17-1.17.19-8.45.44-16.91.64-25.37.47-1.34-.03-2.68-.29-4.02-.5-.94-.15-1.48-.81-1.91-1.65-1.79-3.48-3.29-7.09-4.94-10.64-3-6.43-5.38-13.15-8.98-19.29-.08-.13-.07-.31-.1-.47,5.48-7.16,9.96-14.98,14.84-22.54,1.47-2.27,3.17-4.4,4.38-6.84.78-.82,1.83-.94,2.86-1.05,8.04-.86,16.09-.42,24.13.03,1.15.06,2.43.13,3.24,1.23Z"/>
  <path class="cls-14" d="M126.2,196.33c-1.58-.31-3.18-.19-4.76-.12-2.48.12-4.9-.45-7.37-.39-1.3.03-1.8-.51-1.8-1.99,0-3.43.59-6.79,1.7-10.05.35-1.04,1.34-1.25,2.32-1.41,3.14-.51,6.29-.77,9.46-.92.47-.02.94-.09,1.42-.14,4.08,0,8.17.25,12.22-.07,4.55-.36,9.09-.16,13.64-.26,2.18-.05,3.2.61,3.68,2.6.85,3.56.44,7.1-.75,10.53-.36,1.03-1.09,1.74-2.28,1.83-.47.03-.94.21-1.41.23-5.1.2-10.2.81-15.3.43-3.59-.27-7.17-.26-10.76-.28Z"/>
  <path class="cls-14" d="M370.81,559.89c-2.23.25-4.39-.44-6.61-.41-4.04.06-8.06-.65-12.1-.38-3.62.25-7.27.2-10.87.75-.46.07-.95,0-1.42-.02-4.21-5.59-8.84-10.87-12.68-16.84,1.16-.64,2.23-.7,3.33-.71,11.99-.04,23.98-.11,35.96-.14,3.83,0,7.67.11,11.5.13.98,0,1.88.29,2.94.53-2.97,5.96-6.73,11.4-10.05,17.08Z"/>
  <path class="cls-14" d="M153.57,442.56c-1.95-.46-3.93-.57-5.92-.63-4.46-.12-8.91-.65-13.37-.41-3.65.2-7.29.54-10.94.82-4.39-5.56-8.93-11-12.93-16.99,1.15-.35,2.05-.6,3.02-.6,12.39-.04,24.78-.15,37.17-.11,3.35.01,6.71.1,10.07.1,1.13,0,2.22.15,3.34.5-.02.24.03.5-.07.68-2.98,5.29-6.1,10.49-9.39,15.59-.25.39-.64.7-.97,1.04Z"/>
  <path class="cls-6" d="M372.37,493.77h-10.19c-.02-2,.9-3.54,1.92-4.85,4.91-6.28,8.08-13.47,11.24-20.7,1.28-2.92,2.48-5.83,3.03-9,.33-1.91.12-3.81.22-5.72.02-.45-.15-1.06.43-1.23.57-.17.79.37,1.04.77,2.16,3.53,4.27,7.09,5.8,10.96.26.65.27,1.43.87,1.93,0,.31,0,.63,0,.94-.28.27-.17.71-.44.98-.09.82-.55,1.48-.91,2.19-3.06,6.12-6.06,12.27-9.21,18.35-1.01,1.94-1.76,4.14-3.8,5.38Z"/>
  <path class="cls-12" d="M386.29,467.85c-.01-.4.08-.75.44-.98.02.4-.07.76-.44.98Z"/>
  <path class="cls-14" d="M598.95,307.08c-2.11,4.54-4.28,9.06-5.96,13.79-.6.85-1.16,1.67-2.42,1.66-5.67-.02-11.34.14-16.99-.38-2.08-.19-2.07-.25-2.07-2.3,0-3.83-.04-7.66-.04-11.5,0-2.02.16-2.25,2.14-2.24,7.9.01,15.81.06,23.71.1.67,0,1.52-.25,1.62.86Z"/>
  <path class="cls-14" d="M557.21,306.12c3.59,0,7.17-.04,10.76.01,2.22.03,2.57.44,2.58,2.74.02,3.67.02,7.34,0,11.01-.02,2.3-.31,2.6-2.67,2.59-4.71-.03-9.41-.15-14.12-.16-1.72,0-2.75-.67-3.49-2.28-1.71-3.69-3.61-7.29-5.42-10.93-.14-.29-.3-.57-.41-.86-.65-1.69-.08-2.62,1.76-2.65,3.67-.05,7.34-.02,11.01-.02,0,.18,0,.36,0,.54Z"/>
  <path class="cls-3" d="M358.45,494.22c-1.13-.14-2.34.41-3.37-.45,1.13.13,2.34-.41,3.37.45Z"/>
  <path class="cls-15" d="M422.66,252.91c.09-.16.18-.31.28-.47,1.44-.71,2.95-.15,4.41-.15,2.66,0,4.97-.82,7.05-2.38,2.01-1.51,2.99-3.44,2.29-5.99-.15-.54-.29-1.07-.09-1.63,1.14-1.89,1.16-1.9,2.97-1.56.53.53,1.26.67,1.92.89,4.52,1.54,8.13,4.18,10.45,8.43.56,2.8,1.22,5.55.65,8.49-1.4,7.22-7.97,12.64-15.16,12.3-8.08-.38-14.05-5.9-14.69-13.62-.12-1.42-.06-2.86-.09-4.3Z"/>
  <path class="cls-25" d="M430.94,164.81c-3.01-.05-5.16-1.5-5.8-3.73-.71-2.47.42-5.05,2.88-6.45,1.8-1.03,3.71-1.35,5.73-.62,3.67,1.32,4.8,5.26,2.36,8.31-1.39,1.73-3.27,2.44-5.17,2.49Z"/>
  <path class="cls-25" d="M517.58,221.81c-2.84,0-4.68-1.68-4.71-4.29-.03-3.05,2.89-5.82,6.14-5.82,2.62,0,4.75,1.96,4.79,4.39.05,3.02-2.89,5.72-6.23,5.72Z"/>
  <path class="cls-5" d="M436.61,242.28c2.21,3.48.61,6.21-1.75,8.09-3.6,2.88-7.65,3.08-11.92,2.06.82-1.57,1.64-3.14,2.46-4.71,4.21-.83,7.9-2.74,11.21-5.44Z"/>
</svg>