<?xml version="1.0" encoding="UTF-8"?>
<svg version="1.1" viewBox="0 0 2048 2048" width="1280" height="1280" xmlns="http://www.w3.org/2000/svg">
<path transform="translate(1e3 67)" d="m0 0h46l14 2 18 3 27 9 24 11 24 13 21 12 24 13 23 13 22 12 10 6 35 19 16 9 28 16 18 10 21 12 16 9 42 24 23 13 19 11 29 16 46 26 21 12 29 16 24 14 16 10 16 11 14 12 8 7 11 11 13 17 12 19 10 21 8 22 5 18 3 27 1 13v657l-4 27-7 28-10 26-8 16-12 19-9 12-12 14-12 12-11 9-10 7-17 11-17 10-25 14-21 12-26 14-21 12-24 13-16 9-25 14-21 12-11 6-1 7-1 402-2 15-5 12-7 11-9 9-13 8-10 3-7 1h-18l-12-3-16-8-16-9-7-4-8-3-10-6-28-14-10-6-19-10-18-10-22-12-21-11-8-5-15-8-14-7-3-3-14-7-5-4-7-2-9-6-17-9-9-6-11-6-28-15-7-1-35 21-16 9-31 16-13 8-46 26-25 13-10 6-20 11-48 24-18 10-11 6-16 8-15 9-11 5-7 2h-21l-11-4-9-5-12-11-9-12-5-11-2-7-1-17v-402l-5-2-20-11-18-10-23-13-25-14-28-16-56-31-25-15-16-11-13-10-13-11-18-18-11-14-10-15-9-16-9-19-8-24-4-18-2-12-1-15-1-571-1-56v-36l3-27 5-22 8-22 14-29 7-11 8-11 8-10 9-10 16-16 17-13 15-10 17-10 24-13 27-14 23-13 25-14 36-20 23-12 21-12 20-11 21-12 18-10 26-15 21-12 24-13 17-10 30-16 15-9 23-13 27-15 54-28 12-7 16-7 16-6 19-5 19-3z" fill="#061623"/>
<path transform="translate(1602,784)" d="m0 0 4 2 1 17v368l-1 17-4 20-7 18-7 13-8 10-13 13-12 9-22 14-26 15-20 11-19 11-27 16-23 13-27 16-24 14-26 15-27 16-28 15-38 22-18 10-21 12-46 26-36 20-26 14-18 10-20 9-18 5-17 3h-23l-21-5-16-6-22-11-24-14-16-9-21-12-17-10-23-13-24-13-46-26-17-10-24-13-23-13-27-15-24-14-27-15-21-12-28-15-21-12-18-10-23-13-26-16-11-8-12-12-9-10-7-10-8-14-5-13-4-22-1-6-1-332v-61l4-1 3 5 7 16 10 19 17 28 11 16 11 14 12 14 9 8 11 8 1 4-14 16-10 17-8 18-6 18-5 25v32l4 19 5 16 7 16 6 11 8 11 11 13 9 9 15 11 21 12 18 8 24 8 9 2 16 2 16 1h21l21-2 27-4 13-3 5 1 6 18 8 17 13 21 14 19 11 13 5 5v2l3 1 5 6 2 1v2l4 2 8 8 2 1v2l4 2 11 9 10 7 21 13 28 14 24 10 20 7 21 6 15 3 30 3h24l32-3 26-5 14-4 17-6 25-12 23-13 15-10 14-10 15-13 12-11 9-9 9-11 10-12 14-21 15-26 8-19 5-12 5-1 31 6 27 3h23l21-2 25-5 20-6 17-7 10-6 12-7 12-9 14-14 11-14 9-14 9-19 6-18 3-13 1-8v-29l-5-22-10-23-10-16-9-12-9-8-3-3 3-5 28-28 11-14 9-12 11-17 9-15 11-24 10-28z" fill="#FBC117"/>
<path transform="translate(1010,205)" d="m0 0h24l22 3 20 7 21 10 10 6 11 6 19 11 34 20 23 13 25 14 13 8 24 14 10 6 11 6 16 9 17 10 21 12 22 13 15 9 26 15 28 17 16 9 27 16 28 16 27 16 24 14 21 14 13 10 14 14 7 11 6 13 4 14 1 6v68l-1 27-1 10-5-1-9-29-7-16-8-14-8-12-11-14-12-13-14-12-21-14-21-11-23-9-20-6-24-4-15-1h-26l-19 2-25 5-20 6-24 10-21 10-17 10-17 12-10 8-13 11-10 9-8 8-7 8-8 10-8 8-4 1-9-11-16-16-1-6 11-12 12-12 8-7 14-12 25-17 10-8 6-8 3-8 1-4v-8l-2-9-6-10-11-8-10-4-10-2h-10l-12 3-14 7-13 11-9 9h-2l-2 4-25 25-7 8-9 10-8 9-7 11-13-2-20-4-17-2h-17l-33 4-9 2h-6l-39-39-7-8-8-8v-2h-2l-7-8-11-10-14-10-16-8-10-3-14-1-12 3-9 6-6 8-2 6v20l4 10 8 9 17 12 18 14 15 14 23 23 6 8-18 22-9 12-4 3-5-5-11-13-9-11-25-25-11-9-14-11-18-12-17-10-21-10-24-9-19-5-15-3-15-2h-26l-30 3-21 4-21 7-24 11-16 9-11 8-11 9-12 11-11 12-9 12-8 11-9 16-10 22-3 3-3-1-1-3v-85l3-16 6-15 9-15 9-11 11-10 18-12 29-17 26-15 21-12 23-13 26-15 27-16 27-15 22-13 48-28 27-15 26-15 23-13 26-15 48-28 21-12 18-10 16-9 20-9 22-7z" fill="#FBC117"/>
<path transform="translate(1291,1579)" d="m0 0h1l1 82v290l4 2-6-1-9-6-30-15-10-6-19-10-18-10-22-12-21-11-8-5-15-8-14-7-3-3-14-7-5-4-7-2-9-6-17-9-9-6-11-6-28-15-7-1-35 21-16 9-31 16-13 8-46 26-25 13-10 6-20 11-48 24-18 10h-2v-365l5 1 16 8 28 15 23 13 22 12 27 15 24 14 43 24 15 8 23 10 18 5 13 2h25l18-4 20-7 20-9 19-10 25-13 23-13 29-16 24-14 22-12 21-12 28-15z" fill="#F0A70C"/>
<path transform="translate(1508,1138)" d="m0 0 3 2 4-1 4 17 4 23v14l-3 14-4 10-7 12-11 12-10 9-11 8-10 7-10 6-7 4-7 3-20 9-42 14-21 6-12 7-4 2-2 4-9 10-10 9-4 2v2h-2l-2 4-10 10-11 9-11 10-12 9-13 9-10 7-9 5-15 9-14 7-19 10-23 12-15 8-16 7-20 7-16 4-33 6-18 2-15 1h-18l-29-3-43-7-44-11-24-8-19-8-19-10-17-11-17-12-11-8-10-8-13-11-10-9-5-4-7-8-10-10-9-11-7-8-10-14-6-10-4-6-2-1-31-1-17-3-28-7-14-4-18-6-20-11-16-12-11-11-8-11-6-10-7-14-3-11v-19l4-16 6-15 3-2 7 1 7 2 14 9 16 9 16 7 24 8 9 2 16 2 16 1h21l21-2 27-4 13-3 5 1 6 18 8 17 13 21 14 19 11 13 5 5v2l3 1 5 6 2 1v2l4 2 8 8 2 1v2l4 2 11 9 10 7 21 13 28 14 24 10 20 7 21 6 15 3 30 3h24l32-3 26-5 14-4 17-6 25-12 23-13 15-10 14-10 15-13 12-11 9-9 9-11 10-12 14-21 15-26 8-19 5-12 5-1 31 6 27 3h23l21-2 25-5 20-6 17-7 10-6 12-7 12-9 5-3z" fill="#F0A70C"/>
<path transform="translate(1383,600)" d="m0 0h21l19 3 21 6 21 9 14 9 11 9 10 10 8 11 9 15 7 17 3 14 1 8v31l-3 14-6 17-7 16-8 16-9 15-12 16-12 13-10 9-17 12-14 8-25 11-28 9-28 7-46 9-26 4h-6l-10-12-8-10-12-14-14-14-12-9-16-13-10-9-16-11-9-6 1-5 8-18 13-27 8-16 9-17 12-19 13-19 11-14 12-14 8-8 7-8 11-9 16-12 21-13 17-8 24-8 19-4z" fill="#FCFCFC"/>
<path transform="translate(632,600)" d="m0 0h31l18 3 21 6 18 8 15 8 16 11 16 13 14 13 7 8 11 13 14 19 10 15 13 21 14 24 13 23 6 12 10 19 1 4-15 11-13 10-11 9-14 12-12 11-18 18-13 17-6 7-13 1-26-2-27-4-28-5-25-7-20-7-18-8-14-8-12-8-14-11-11-10-7-8-8-9-11-16-9-16-8-21-6-22-2-12v-39l3-16 5-15 9-17 10-13 9-10 13-10 14-8 14-6 17-5z" fill="#FCFCFC"/>
<path transform="translate(1366,719)" d="m0 0h5v3l10 2v2l5 2 6 4 2 2 9 3 8 8 11 8 12 7 5 4 11 5 14 7 17 3 6 4 9-1 6-4 3-3 5-3 8-9 2-1 4-9 1 3-6 17-7 16-8 16-9 15-12 16-12 13-10 9-17 12-14 8-25 11-28 9-28 7-46 9-26 4h-6l-10-12-8-10-12-14-14-14-12-9-16-13-10-9-16-11-9-6 1-5 8-18 13-27 8-16 1 3-7 15-12 28-5 12v8l5 5 7 5 7 4 4 5 4 1 4-7h2l2-4 14-14 17-13 5-5 18-13 23-16 24-16 19-12 22-13 10-5z" fill="#DBEBF8"/>
<path transform="translate(1290,1682)" d="m0 0h1l1 14v127l1 47v81l4 2-6-1-9-6-30-15-10-6-19-10-18-10-22-12-21-11-8-5-15-8-14-7-3-3-14-7-5-4-7-2-9-6-17-9-9-6-11-6-13-7v-2l12-1 40-20 16-9 12-6 23-13 26-14 13-8 11-6 14-8 11-6 5-1v-2l16-8 9-5 16-8 17-7 9 1v-5z" fill="#FBC218"/>
<path transform="translate(816,1068)" d="m0 0h415l1 1-1 36-3 19-6 24-1 2h-394l-7-31-3-21-1-15z" fill="#FBC117"/>
<path transform="translate(756,1680)" d="m0 0 6 2 7 4v2l5 1 20 12 16 9 27 15 23 13 35 20 16 8 22 12 30 15 17 7 1 3h14l6 1 1 3 2 1v2l-11 6-13 8-16 9-31 16-13 8-46 26-25 13-10 6-20 11-48 24-18 10h-2v-7l6-13 8-1 4-2 6-11 1-2h2v-6l-1-2v-6l1-7-8-11-2-8h-1v9l-1 6-1 18-2 11-4 7-5-1-1-32v-175l1-32h2z" fill="#FBC218"/>
<path transform="translate(1007,870)" d="m0 0h34l22 3 17 4 20 7 16 7 20 11 16 11 14 12 18 18 11 14 11 18 3 5v3h-370l2-6 13-20 10-13 11-12 9-9 11-9 15-10 19-10 27-12 20-6 23-5z" fill="#FBC117"/>
<path transform="translate(1015,638)" d="m0 0h35l18 5 14 7 13 9 9 8 7 10 4 10 2 12-1 17-4 17-7 16-9 17-12 13-8 6-9 2h-46l-46-1-8-2-9-6-8-8-10-14-8-17-4-16v-20l5-17 6-12 11-11 18-11 16-7 19-5z" fill="#FBC117"/>
<path transform="translate(616,973)" d="m0 0h9l23 3 41 8 48 9 9 2 1 2-10 44-4 27-1 11-1 24-2 2-27 4-10 1h-36l-24-4-15-5-15-8-10-8-9-10-8-14-5-15-2-12v-14l3-15 6-11 10-10 16-8z" fill="#DAEAF7"/>
<path transform="translate(521,740)" d="m0 0 3 3 6 11 3 4v2h2l7 8 11 10 15 10 15 8 30 13 36 14 31 11 52 16 41 11 2 1-1-8 2-2h12l1-3 8-3 8-7 5-2h9l9-4 12-3 14-1 7 3-1 3-13 10-13 11-14 12-23 23-13 17-6 7-13 1-26-2-27-4-28-5-25-7-20-7-18-8-14-8-12-8-14-11-11-10-7-8-8-9-11-16-9-16-8-21-6-22z" fill="#B2CFF5"/>
<path transform="translate(1419,978)" d="m0 0h14l14 3 12 6 6 5 7 11 4 12 1 9v15l-2 13-4 11-7 11-8 8-15 10-16 7-14 4-14 2-14 1h-11l-29-3-21-4-4-2-2-41-3-21-7-30-2-9 1-1 49-7 47-8z" fill="#DAEAF7"/>
<path transform="translate(1524,753)" d="m0 0 1 3-6 17-7 16-8 16-9 15-12 16-12 13-10 9-17 12-14 8-25 11-28 9-28 7-46 9-26 4h-6l-10-12-8-10-12-14-14-14-12-9-16-13-10-9-16-11-9-6 1-5 8-18 13-27 8-16 1 3-7 15-12 28-5 12v8l5 5 7 5 7 4 4 5 4 1 4-7h2l2-4 14-14 17-13 18-12 6-1 3 1 2 7 5 2 5 5-1 5-6 2-3 9-12 9-14 10-8 6-1 2h-2l-1 3h-2l1 6h61l36-5 26-6 31-9 30-10 17-7 16-6 20-9 17-9 13-9 10-8 8-8 6-7 2-1z" fill="#B2CFF5"/>
<path transform="translate(680,720)" d="m0 0 10 1 16 8 20 11 27 16 14 9 17 12 11 9 14 12 11 11 8 7 9 6 3 1h22l8 1 6-4 1-6 3 4v2l-15 11-4 2-7-3-14 1-15 4-6 3h-10l-8 5-4 4-8 3-3 3h-10l-1 1v8l-17-4-36-10-45-14 4-2v-4l-9-4-9-7-2-3-1-15-2-10 1-3-3-1-5-11-4-10 1-5 8-12 3-6 7-8 7-3 5-5z" fill="#DAEAF7"/>
<path transform="translate(1020,261)" d="m0 0 7 1 5 4 13 19 9 11 5 2 16 3 19 7 13 7-2 5-8 10-12 14-9 13 1 24v13l-3 13-5 7h-8l-10-3-18-8-6-2h-9l-20 7-11 4h-12l-5-3-3-5v-14l1-9v-19l-3-8-7-9-10-14-7-12-1-5 5-4 15-5 20-6 10-5 11-11 12-16z" fill="#061623"/>
<path transform="translate(883,1232)" d="m0 0h283l-2 4-7 7-11 7-13 8-12 7-20 8-18 6-18 4-21 3-11 1h-19l-15-1-25-4-23-6-19-8-15-8-18-12-10-8-6-4-1-3z" fill="#FBC117"/>
<path transform="translate(1475,1022)" d="m0 0 2 2v15l-2 13-4 11-7 11-8 8-15 10-16 7-14 4-14 2-14 1h-11l-29-3-21-4-4-2-2-41-1-9v-10l5 1 2-7 5 1 6 5 8-1 11 6 8 8 5 2 3 1 10 2h7l10-3 22-5 39-6 10-3 2-7 7-1z" fill="#B3CFF5"/>
<path transform="translate(570,1038)" d="m0 0h1l5 18 3 5 7-7 5 1 1 1 10 2 5 3 25 6 31-1 21-4 18-8 5-2 22-1 2 4 2 1 1-4-1 16-1 11-1 24-2 2-27 4-10 1h-36l-24-4-15-5-15-8-10-8-9-10-8-14-5-15z" fill="#B2CFF5"/>
<path transform="translate(438,826)" d="m0 0h1l1 24 1 236 1 53 4 9 1 28-4 4-1 3v8l1 6v8h-1l-3-19z" fill="#F0A70C"/>
<path transform="translate(1430,1010)" d="m0 0 6 1 8 9 3 2-1 9-3 7-1 1h-6l-5-4-5-12v-9z" fill="#FDFDFD"/>
<path transform="translate(1194,754)" d="m0 0 1 3-7 15-12 28-5 12v8l5 5 7 5 7 4-3 2-11-8-12-8 1-5 8-18 13-27z" fill="#D9EAF7"/>
<path transform="translate(767,1590)" d="m0 0 5 1 28 15 23 13 22 12 6 4-1 2-10-5-19-10-12-7-14-7-3-1v-2l-6-2-9-6-6-3v-2l-4-1z" fill="#F9BD15"/>
<path transform="translate(1335,991)" d="m0 0h9l-3 2-21 3-2 6h-7l-1-4-4-2 7-2z" fill="#B9D3F5"/>
<path transform="translate(1419,978)" d="m0 0h14l14 3 12 6 2 3-5-2-12-5-11-2h-16l-13 1 1-2z" fill="#BED7F5"/>
<path transform="translate(522,687)" d="m0 0 1 4-2 23 1 21 1 6h-1l-1 8h-1l-1-7v-39z" fill="#D9E9F7"/>
<path transform="translate(1169,808)" d="m0 0 2 1v11l5 5 7 5 7 4-3 2-11-8-12-8 1-5 3-6z" fill="#D2E5F7"/>
<path transform="translate(1217,816)" d="m0 0 2 1-14 14-4 5-3 5-5-2-3-4 6-1 6-4 8-8h2v-2z" fill="#DBEBF8"/>
<path transform="translate(853,1637)" d="m0 0 5 1 22 13v3l-14-8-11-6z" fill="#F9BD15"/>
<path transform="translate(1274,648)" d="m0 0 2 1-28 28v-3l11-11 7-8z" fill="#E9F2FA"/>
<path transform="translate(763,1933)" d="m0 0 6 2-1 4-12 6 2-7 3-3h2z" fill="#F1AB11"/>
<path transform="translate(882,1653)" d="m0 0 5 2 14 8-2 1-8-3-9-6z" fill="#F9BB15"/>
<path transform="translate(1173,799)" d="m0 0 2 1-3 9-3-1 1-5z" fill="#D8E9F7"/>
<path transform="translate(1291,1579)" d="m0 0h1v8l-4-2v-2l-2-1z" fill="#FABE16"/>
<path transform="translate(877,814)" d="m0 0 3 4v2l-8 6-2-1 6-5z" fill="#DBEBF8"/>
</svg>
