<?xml version="1.0" encoding="UTF-8"?>
<svg version="1.1" viewBox="0 0 2048 2048" width="1280" height="1280" xmlns="http://www.w3.org/2000/svg">
<path transform="translate(1e3 88)" d="m0 0h35l22 1 20 3 22 7 25 10 29 14 29 16 25 15 17 10 11 6 28 15 47 26 25 14 23 13 24 13 24 14 25 14 16 9 26 15 49 28 23 13 24 13 16 9 28 15 23 13 17 12 13 11 13 13 11 14 10 14 12 21 7 14 9 24 5 21 2 17 1 15v626l-3 25-6 24-8 22-8 18-12 20-12 17-22 24-10 9-14 10-21 13-26 15-28 16-41 23-25 14-24 14-25 14-19 11-16 10-1 389-2 26-4 12-4 8-9 10-10 7-14 7-7 2h-18l-12-3-12-5-15-8-14-9-6-4v-2h-2l-2-5-10-4-23-12-9-5-3-3-7-3-15-8-7-4-5-3-23-12-16-8-8-5v-2l-6-1-19-10-17-9-6-3-3-2v-2l-5-1-17-9-17-8-6-5-17-8-12-7-10-6-4-1h-9l-23 11-19 11-30 15-14 8-10 6-16 8-13 8-16 9-19 10-24 13-14 8-12 7-22 12-12 6-11 8-8 7-16 10-23 12-12 4-7 1h-21l-12-5-11-8-9-9-7-11-4-12-1-8-1-394-2-15-17-9-23-13-24-13-41-23-18-10-23-13-27-15-20-11-19-12-16-12-13-11-18-18-12-16-13-21-8-16-8-20-6-21-4-19-3-38v-625l4-24 6-20 6-17 10-22 9-15 13-18 10-11 1-2h2l2-4 11-11 8-7 14-11 17-11 25-14 18-10 26-14 22-12 58-32 30-16 23-13 28-15 46-26 26-14 18-10 26-14 23-13 28-15 22-12 24-14 28-15 14-8 22-11 25-9 21-5 7-1z" fill="#FBC21F"/>
<path transform="translate(1e3 88)" d="m0 0h35l22 1 20 3 22 7 25 10 29 14 29 16 25 15 17 10 11 6 28 15 47 26 25 14 23 13 24 13 24 14 25 14 16 9 26 15 49 28 23 13 24 13 16 9 28 15 23 13 17 12 13 11 13 13 11 14 10 14 12 21 7 14 9 24 5 21 2 17 1 15v626l-3 25-6 24-8 22-8 18-12 20-12 17-22 24-10 9-14 10-21 13-26 15-28 16-41 23-25 14-24 14-25 14-19 11-16 10-1 389-2 26-4 12-4 8-9 10-10 7-14 7-7 2h-18l-12-3-12-5-15-8-14-9-6-4v-2h-2l-2-5-10-4-23-12-9-5-3-3-7-3-15-8-7-4-5-3-23-12-16-8-8-5v-2l-6-1-19-10-17-9-6-3-3-2v-2l-5-1-17-9-17-8-6-5-17-8-12-7-10-6-4-1h-9l-23 11-19 11-30 15-14 8-10 6-16 8-13 8-16 9-19 10-24 13-14 8-12 7-22 12-12 6-11 8-8 7-16 10-23 12-12 4-7 1h-21l-12-5-11-8-9-9-7-11-4-12-1-8-1-394-2-15-17-9-23-13-24-13-41-23-18-10-23-13-27-15-20-11-19-12-16-12-13-11-18-18-12-16-13-21-8-16-8-20-6-21-4-19-3-38v-625l4-24 6-20 6-17 10-22 9-15 13-18 10-11 1-2h2l2-4 11-11 8-7 14-11 17-11 25-14 18-10 26-14 22-12 58-32 30-16 23-13 28-15 46-26 26-14 18-10 26-14 23-13 28-15 22-12 24-14 28-15 14-8 22-11 25-9 21-5 7-1zm6 144-26 4-19 6-23 11-25 14-24 14-23 13-19 11-18 10-21 12-27 15-24 14-27 15-23 13-24 13-16 9-25 14-49 28-22 12-21 12-25 14-23 14-18 12-11 9-7 7-9 14-7 16-3 13-1 12-1 35-2 402v65l1 79 4 17 7 21 8 17 10 14 11 12 7 7 13 10 19 12 26 15 24 14 18 10 25 14 15 9 22 13 24 14 26 15 54 30 15 9 79 44 25 14 46 26 28 16 21 10 13 5 17 4h28l21-4 23-8 18-8 26-14 23-13 28-17 29-17 25-14 24-14 23-13 24-14 25-14 25-15 22-13 20-12 26-15 49-28 26-15 27-15 19-11 20-13 14-12 8-10 9-17 5-15 3-17v-378l-1-219-2-18-4-11-6-11-12-14-14-12-15-10-29-16-22-13-25-14-17-10-26-14-22-12-26-15-22-13-48-28-29-17-25-14-19-11-17-10-23-13-24-14-25-14-17-10-24-13-15-8-20-8-15-4-16-2z" fill="#071622"/>
<path transform="translate(1187,469)" d="m0 0h20l12 3 12 6 8 7 8 12 4 14v10l-3 13-6 11-10 11-13 9-8 2-9-1-15-6h-5l-12 11-16 16-9 11-9 12-2 5 12 10 12 9 15 15 11 16 8 16 4 10v5l19-10 10-6 23-9 23-6 22-4 28-2h13l19 2 21 5 22 9 16 9 12 9 10 9 7 7 12 16 9 16 6 14 5 19 2 16v19l-3 22-5 20-9 21-10 18-10 14-2 4 6 2 10 7 7 6 9 11 6 8 8 13 8 17 4 15 3 18v24l-2 14-4 16-6 15-9 17-12 17-12 13-12 11-16 11-16 8-16 6-21 5-13 2-15 1h-19l-31-3-6-1-2 9-9 20-11 20-15 23-9 12-9 11-9 10-12 13-8 7-11 10-15 11-20 13-21 12-21 10-16 6-26 7-20 4-26 3h-30l-20-2-27-6-23-7-18-8-16-8-21-11-17-11-14-10-13-12-8-7-15-15-7-8-12-15-14-21-13-23-11-23-6-12-23 4-12 1h-29l-20-3-23-6-17-7-14-8-12-9-14-12-11-12-12-19-7-14-6-17-4-19-1-10v-22l2-17 4-18 6-17 8-15 10-14 9-10 16-15-1-4-7-7-9-14-6-12-7-21-3-15-1-8v-36l3-20 5-17 8-16 7-11 7-9 11-12 7-7 16-12 17-10 19-8 21-6 20-3h30l24 4 23 7 24 11 24 13 6 4h2l12-23 14-21 11-13 7-8 13-13 5-4-2-5-11-13-9-11-11-12-7-7v-2l-4-2-5-4-5 5-11 8-3 1h-9l-9-4-11-8-9-10-6-11-3-10-1-5v-11l4-14 6-9 10-10 12-6 12-3h18l16 4 16 8 10 7 16 13 12 12 18 22 10 13 22 28 27-5 9-1h34l24 4 9 1 11-14 14-18 11-13 9-11 20-20 17-13 15-9 8-4 13-4z" fill="#061521"/>
<path transform="translate(1287,1564)" d="m0 0h1l1 153v161l-1 44-2-2-10-4-23-12-9-5-3-3-7-3-15-8-7-4-5-3-23-12-16-8-8-5v-2l-6-1-19-10-17-9-6-3-3-2v-2l-5-1-17-9-17-8-6-5-17-8-12-7-10-6-4-1h-9l-23 11-19 11-30 15-14 8-10 6-16 8-13 8-16 9-19 10-24 13-14 8-12 7-22 12-12 6-11 8-2 1v-251l2-104 15 8 42 24 25 14 17 10 22 13 15 9 26 15 22 13 12 7 20 9 20 6 13 2h24l17-3 20-6 20-9 25-13 23-13 25-14 23-13 40-24 24-13 16-9 21-12z" fill="#718FE1"/>
<path transform="translate(1467,1117)" d="m0 0h3l1 6 5 1 4 6v2h6l2-1 3 6 3 11 3 17-1 5-1 10-1 5-1 9-8 16-7 8-8 8-11 9-12 8h-2v2l-10 6-19 10-13 6-9 3-19 7-28 8-8 3-9 6-22 22-5 4-16 16-8 7-11 10-14 10-5 4-9 7-9 5-10 7-9 5-15 8-19 10-33 17-21 9-16 5-22 5-9 2-31 4h-38l-26-3-35-6-39-9-26-8-18-7-15-8-16-10-11-7-17-12-7-5v-2l-5-2-10-9-8-7-13-12-9-9-7-8-12-14-8-12-8-13-4-7-36-1-32-7-20-6-21-7-13-8-12-9-9-7v-2l-4-2-8-10-12-19-6-16-1-4v-14l4-16 4-10 5-5 8-6 6-4 7 1 12 9 14 9h2l3 3 5 1v2l8 1 24 9h11l16 3 9 1h29l18-2 17-3 5 8 12 26 12 22 14 21 10 13 18 20 13 13 8 7 12 10 18 12 15 9 32 16 19 8 28 8 26 5 13 1h30l26-3 28-6 24-7 23-10 21-11 19-12 16-11 16-13 9-9 8-7 7-8 10-11 13-17 10-15 12-20 10-19 6-14 2-7 14 1 23 2h19l22-2 20-4 9 1 21-6 6-4 8-4 4-3h2l1-3 9-5 7-6h2v-2l9-7z" fill="#F1A80C"/>
<path transform="translate(828,1138)" d="m0 0h311l66 1-2 5-13 26-11 18-11 13-11 11-11 9-15 11-16 10-21 11-21 8-19 5-19 3-10 1h-26l-29-4-21-6-16-7-16-9-12-8-11-8-14-11-16-16-12-16-12-20-9-17z" fill="#FBC21F"/>
<path transform="translate(1284,1672)" d="m0 0h3l1 124v126l-2-2-10-4-23-12-9-5-3-3-7-3-15-8-7-4-5-3-23-12-16-8-8-5v-2l-6-1-19-10-17-9-6-3-3-2v-2l-5-1-17-9-17-8-6-5-6-3 4-4 16-8 25-13 23-13 22-12 35-20 16-8 16-9 14-7 16-9 14-8 11-6z" fill="#84A1ED"/>
<path transform="translate(757,1646)" d="m0 0h2l1 2 1 23 4 4 14 9 21 12 46 26 28 16 22 13 32 20 14 8 18 10 9 3 13 1-5 4-19 10-29 15-13 8-16 8-13 8-16 9-19 10-24 13-14 8-12 7-22 12-12 6-10 7h-1l-1-130v-110z" fill="#84A1EE"/>
<path transform="translate(704,736)" d="m0 0h19l18 3 16 5 16 8 18 11 14 10 11 10 8 7 9 9 11 14 5 8 1 6-8 8-10 8-12 11-12 12-8 7-8 9-11 17-7 10-2 2-14-1-25-5-15-5-16-8-11-7-11-9-8-8-11-15-9-15-8-20-3-13v-19l3-10 6-11 9-10 7-6 16-8 15-4z" fill="#FDFDFC"/>
<path transform="translate(1311,737)" d="m0 0h14l19 3 11 4 11 6 10 9 7 10 5 13 1 4v22l-4 20-6 15-9 14-11 12-8 7-17 10-17 8-21 7-28 6-12 1-7-8-9-14-14-17-7-7-7-8-10-10-22-18 1-4 12-14 21-21 8-7 13-11 18-12 19-10 18-6 13-3z" fill="#FDFDFC"/>
<path transform="translate(1e3 650)" d="m0 0h20l18 3 14 4 13 5 12 7 10 9 7 8 6 10 5 14 1 5v22l-4 13-6 10-10 10-13 9-12 6-12 3h-25l-9-1h-23l-16 2h-19l-7-6-12-16-8-13-6-15-3-11-1-8v-9l3-12 7-13 9-10 10-8 17-9 14-5 12-3z" fill="#FBC21F"/>
<path transform="translate(1164,1007)" d="m0 0h41l4 2 2 10 1 20v18l-2 2-4 1h-211l-176-1v-22l1-24 1-3 13-1 53-1z" fill="#FBC21F"/>
<path transform="translate(1e3 857)" d="m0 0h26l24 3 25 6 21 9 19 10 15 10 14 11 12 12 7 8v2l-19 2-32 1h-253l1-5 15-16 10-9 21-14 23-12 24-9 19-5z" fill="#FBC21F"/>
<path transform="translate(1014,319)" d="m0 0 6 1 5 4 12 17 10 13 4 2 17 3 19 7 13 7-2 5-11 14-8 9-9 13-1 6 1 18v15l-3 12-5 7h-8l-12-4-21-9h-10l-20 7-11 4h-12l-5-3-3-6v-9l1-10v-24l-4-8-11-14-11-18-1-7 7-4 26-8 13-5 10-8 11-14 8-10z" fill="#061521"/>
<path transform="translate(667,969)" d="m0 0h22l15 2 25 6 15 5 2 1-2 9-6 26-3 20-1 12-1 28-1 8-5 1-19 1h-12l-20-2-12-3-16-8-9-7-9-10-7-11-5-15-3-15 1-9 4-9 7-9 10-9 15-8 9-3z" fill="#BFD7F4"/>
<path transform="translate(1361,967)" d="m0 0h16l10 4 13 10 8 9 6 10 4 11v15l-4 11-7 12-9 10-8 7-16 8-17 5-17 3-10 1h-30l-1-7-1-29-3-25-8-36 1-4 12-3 48-10z" fill="#FCFCFC"/>
<path transform="translate(603,508)" d="m0 0h10l11 4 7 6 5 11 4 8 19 9 8 4 3 4-1 5-6 8-16 16-4 6-1 4v14l-3 8-24-1-8 1-7 6h-7l-7-2-4-8v-18l-9-10-12-12-6-7-5-11 3-5 28-12 7-6 6-10 6-9z" fill="#061521"/>
<path transform="translate(1409,510)" d="m0 0 18 4 5 10 4 10 5 4 20 8 7 5-1 7-6 10-10 13-4 6-5 25-1 2h-12l-16 1-13 4-9 3h-7l-2-3-1-5v-13l3-9-3-6-8-4-8-7-9-11-5-9 1-4 9-6 25-10 4-9 7-9 9-6z" fill="#061521"/>
<path transform="translate(1385,778)" d="m0 0 2 1 2 7v22l-4 20-6 15-9 14-11 12-8 7-17 10-17 8-21 7-28 6-12 1-7-8-9-14-8-10 14-7 24-11 23-10 26-10 25-11 15-9 10-8 7-8 6-12 3-9z" fill="#BFD7F4"/>
<path transform="translate(641,786)" d="m0 0h1v13h2l3 6 7 7 16 11 16 9 22 9 21 6 12 2 11 4 32 10 15 4 4 3-7 7-10 14-11 17-3 3-14-1-25-5-15-5-16-8-11-7-11-9-8-8-11-15-9-15-8-20-3-13z" fill="#C0D8F4"/>
<path transform="translate(667,969)" d="m0 0h22l15 2 25 6 15 5 2 1-2 9-4 16-3 3-9-3-16-3h-22l-18 3-8 3v5l9 3h9l20 2 10 4 2 3v4l-12 2v2h-8v2l-12-2-56-14-9-4-1-10 4-9 7-9 10-9 15-8 9-3z" fill="#FAFBFC"/>
<path transform="translate(1417,1020)" d="m0 0h1l-1 10-8 16-7 9-9 9-14 8-14 5-25 5-10 1h-30l-1-7-1-29-2-22 2 1 14 1h20l11 1h17l10 2 17 1h13l8-3 7-4z" fill="#C1D9F4"/>
<path transform="translate(500,1257)" d="m0 0 30 19 28 16 24 14 29 16 17 10 27 16 24 14 26 15 54 30 15 9 79 44 25 14 46 26 28 16 21 10 13 5 7 2v2l-7-1-5-2-7-1-1-2-9-2-12-5-16-9-26-15-14-8-22-12-10-6v-2l-6-2-4-4-7-4-6-2-5-4-5-3-7-3v-2l-5-1-9-4-3-2v-2l-4-1-10-5-11-5-24-13-10-6-16-9-14-8-11-6-29-16-9-6-18-10-16-9-13-8-19-11-24-13-19-12-8-4-9-6-3-1v-2l-5-2-6-4-6-3v-2l-4-2-3-1v-2l-5-2-5-3-5-5z" fill="#040A16"/>
<path transform="translate(741,1162)" d="m0 0 4 4 14 30 12 22 14 21 10 13 18 20 13 13 8 7 12 10 18 12 15 9 32 16 19 8 28 8 26 5 13 1h30l26-3 28-6h7l2 2-12 2-7 2-7 1-2 2-21 2-2 1-11 1h-31l-14-1-20-3-6-2-11-2-30-10-15-7v-2l-4-1-3-1v-2l-6-1v-2h-4v-2l-6-1-3-3-3-1v-2l-5-2-14-7-5-5-5-2-9-6-4-2-31-31v-2h-2l-9-11-1-3h-2l-6-9-2-5h-2l-3-6-5-8v-3h-2l-4-8v-3h-2l-4-6-8-16-6-14-6-9z" fill="#FABF1D"/>
<path transform="translate(817,1045)" d="m0 0h1l1 5v9l10-1 166 1h138l11 1 62 1v1l-70 1-16 1-21 1-50 1h-85l-57-1-37-1-2-2-16 1-9-1-23-1-3-2z" fill="#040A16"/>
<path transform="translate(1735,634)" d="m0 0h1l1 52v294l-1 118h-1l-1-133-1-6-1-39v-16l-1-2 1-22v-60l1-28v-127l2-4h-2v-3h2v-2h-2l1-4z" fill="#040A16"/>
<path transform="translate(744,1164)" d="m0 0h4l5 11 7 14 6 9 8 16 2 5h2v3h2l3 5v2h2l5 7 3 5 8 10 3 3 1 5 2 1 5 8 9 7 4 4 8 6 5 6 16 11 1 3 4 2 5 2 3 2v2l6 2 2 3-4 1-15-9-16-12-12-11-8-7-15-15-7-8-12-15-14-21-13-23-11-23-4-9z" fill="#040B17"/>
<path transform="translate(1205,1139)" d="m0 0h3l-3 10-4 10-9 17-6 10-8 11-25 25-13 9-3 2h-3v2l-10 6-6 4-9 4-20 8h-3l-1 2h-4v-2l19-8 22-12 16-11 14-11 13-12 10-11 9-14 9-16 10-20z" fill="#040A16"/>
<path transform="translate(834,1156)" d="m0 0h2l10 18 10 15 11 14 15 15 13 10 19 13 15 9 17 8 6 2v2l-8-1-2-2-7-1-16-8-10-6-9-6-4-3v-2l-4-1-13-11-11-8-10-10-10-15-6-10-1-8z" fill="#040A16"/>
<path transform="translate(854,474)" d="m0 0 9 3 14 8 16 13 8 7 9 9 18 22 10 13 22 28-1 2-4-4v-2l-8-4v-2l-3-1-7-8v-2h-2l-11-15-11-14v-2l-3-1-9-11-9-9-11-9-10-8-5-5-12-6z" fill="#040A16"/>
<path transform="translate(1148,929)" d="m0 0 10 1v1l-9 1-34 1h-236l-13-1 4-2h248z" fill="#040A16"/>
<path transform="translate(958,242)" d="m0 0h2v2l-26 13-24 14-21 12-26 15-21 12-5 2-1-2 2-2 4-3 12-6h2v-2l7-2 2-5 11-6 9-6 11-6 10-5 14-9 16-8 7-3 6-1z" fill="#040A16"/>
<path transform="translate(1285,1168)" d="m0 0h2l-1 9-2 9h-2l-1 4-7 13-4 7-9 14h-2l-2 6-3 1-1 4-3 5-6 7-5 4-3 6-6 7-8 7-9 9h-2l-2 4-3 3h-2l-2 4-3 1v2l-9 5-3 2 2-4 11-9 9-9 8-7 7-8 10-11 13-17 10-15 12-20 10-19z" fill="#FABE1C"/>
<path transform="translate(1142,623)" d="m0 0 4 2 12 9 15 15 11 16 8 16 3 9-2 2v-2h-2l-6-11-6-10-7-10-7-9-4-4v-2l-4-2-1-3-4-2-3-3v-2h-2z" fill="#040A16"/>
<path transform="translate(1340,660)" d="m0 0 13 1 21 5 22 9 16 9 12 9 10 9 7 7 12 16 8 14h-3l-5-8v-2l-3-1-2-6-7-5-6-10-6-5-7-4-8-7-9-5-4-3-9-5-9-6-19-6-24-4z" fill="#040B17"/>
<path transform="translate(1304,660)" d="m0 0h9l4 2-29 3-10 2-6 2h-7v2l-20 8-10 3-8 4-11 4-6 1 1-3 14-8 23-9 23-6 22-4z" fill="#040A16"/>
<path transform="translate(1197,1455)" d="m0 0v3h-2v2l-11 6-6 2v2l-11 6-11 7-16 9-4 3-9 5-7 5-6 1v2l-5 2-2 2-10 4-17 8-10 4h-3v-2l22-9 23-12 21-12 26-15 21-13z" fill="#040B17"/>
<path transform="translate(666,406)" d="m0 0v3l-24 13-24 14-25 14-3 1 1-4 4-2 1-2h3v-2l3-1 1-2 7-2v-2l5-1 1-3 14-7 6-1 1-2 4-1 3-3 9-5 5-1z" fill="#040B17"/>
<path transform="translate(1441,910)" d="m0 0 9 5 9 8 9 11 6 8 8 13 1 3h-3v-3h-2l-7-8-8-9-5-7-12-12-3-4v-2h-2z" fill="#040B17"/>
<path transform="translate(684,658)" d="m0 0 4 1-3 2-9 2-7 3h-5v2l-9 3-15 7-14 7-5 1v2l-8 5-3-1 12-9 17-10 19-8 21-6z" fill="#040A16"/>
<path transform="translate(773,344)" d="m0 0h5v2l-21 12-25 14-23 13-10 5 1-5 9-5 4-1 6-3h2l1-3 4-2h3l2-1-1-2 6-4 12-6 7-1 1-3 5-1 5-4 3-2 3-1z" fill="#040B17"/>
<path transform="translate(1368,1356)" d="m0 0v3l-7 5-11 6-7 5-8 4-1 2h-2l-1 2h-2l-2 2-6 1-1 3-4 3h-5l-1 3-7 3-22 12h-2v2l-12 6-3 1v-2l26-15 28-16 29-17z" fill="#040B17"/>
<path transform="translate(1409,510)" d="m0 0 18 4 5 10 4 10 3 3-1 2-3-1-5-10v-2l-4-2-5-5-3-2v-2l-4 1h-10l-1 2h-3v2l-5 3-4 7h-2l2-6 7-8 8-5z" fill="#040B17"/>
<path transform="translate(641,786)" d="m0 0h1l2 18 2 12 7 18 6 11 7 10 12 14 12 12 4 5-4-2-10-8-8-8-11-15-9-15-8-20-3-13z" fill="#7896E6"/>
<path transform="translate(930,872)" d="m0 0h8v2l-23 11-16 10-5 3v-3l10-10 16-9z" fill="#040B17"/>
<path transform="translate(1511,1274)" d="m0 0v3l-10 6-15 8-5 2v2l-3 2h-3v2l-9 4-8 4-3 1v2l-16 8-17 10h-2v-2l26-15 25-14 24-14z" fill="#040C18"/>
<path transform="translate(1014,319)" d="m0 0 6 1 5 4 7 11-4-2-7-9-8 1-3 3h-2l-2 5h-2l-2 5-6 4-7 8-9 7-4 1v-2l11-7 9-10 12-16z" fill="#040B17"/>
<path transform="translate(1297,1028)" d="m0 0h1l2 18 1 17 3 5 2 1 1 5 2 4-3 3-5-1v2l8-1h31v1l-10 1h-30l-1-7-1-29z" fill="#7C9AE9"/>
<path transform="translate(893,614)" d="m0 0 2 1-1 3h-2v2l-5 5-7 8h-2v2l-5 5-11 12-5 4-2-1 13-16 9-10 12-12z" fill="#040B17"/>
<path transform="translate(996,571)" d="m0 0h34l19 3-1 2-9-1-36-2-4 1-22 2-2-2z" fill="#040D19"/>
<path transform="translate(1449,542)" d="m0 0 10 3 9 6-1 7-4 7-3-1v-11l-6-5-3-3-2-1z" fill="#040A16"/>
<path transform="translate(1194,1287)" d="m0 0h2l2 4-15 12-9 5-1-2 3-5 6-4 5-5h2v-2z" fill="#040B17"/>
<path transform="translate(655,545)" d="m0 0 9 3 5 4 1 5-6 9-6 5 3-11v-7l-1-5-5-1z" fill="#040A16"/>
<path transform="translate(1181,470)" d="m0 0 5 1v1l-13 3-1 2-6 1-3 3h-2l-1 2-4 2h-3v2l-6 1-1 3-6 3-3-1 14-10 12-7z" fill="#040B17"/>
<path transform="translate(1081,1352)" d="m0 0h7l2 2-12 2-7 2-7 1-2 2-8 1h-13l-3-2 26-4z" fill="#F9BC1B"/>
<path transform="translate(590,1131)" d="m0 0 6 2 9 5 1 3 6 2 6 5h2v4l-6-2-16-10-7-6z" fill="#040B17"/>
<path transform="translate(1108,737)" d="m0 0h2l-1 14-6 10-7 7h-4v2l-3 1 2-4 8-8 7-14z" fill="#040A16"/>
<path transform="translate(694,389)" d="m0 0h4v2l-27 15-3 1 2-4h2l1-4 15-8 4-1 2 1z" fill="#040B17"/>
<path transform="translate(1184,1301)" d="m0 0 2 1-12 9-15 10-23 13-6 2v-2l19-10 19-12z" fill="#F7B717"/>
<path transform="translate(1086,366)" d="m0 0 14 7-2 5-8 10-2-2 3-9v-5l-5-4z" fill="#040B17"/>
<path transform="translate(1251,1424)" d="m0 0v3l-17 10-14 8-9 5-10 6h-2v-2l25-14 24-14z" fill="#040B17"/>
<path transform="translate(1167,1309)" d="m0 0 2 1-1 3-21 13-5 3h-2l1-3 7-5 5-2 2-4 7-4 3-1 2 1z" fill="#040B17"/>
<path transform="translate(664,854)" d="m0 0 5 5 15 16 5 5 5 6-4-2-10-8-8-8-8-11z" fill="#7D9AE9"/>
<path transform="translate(1413,1330)" d="m0 0v3l-23 13-8 6-10 5h-2v-2l29-17z" fill="#040C18"/>
<path transform="translate(1460,1108)" d="m0 0 3 1-11 12-12 11-3 1v-3h2l2-4 3-3 1-3 6-2h2v-2h2l2-5z" fill="#040B17"/>
<path transform="translate(603,508)" d="m0 0h10l4 2v1l-11 1-4 1-1 3-8 8 2-6 6-8z" fill="#040B17"/>
<path transform="translate(1077,558)" d="m0 0 2 2-6 11-9 8-1-3 11-14z" fill="#040A16"/>
<path transform="translate(1134,495)" d="m0 0 3 1-10 9-18 18-2-2 21-21z" fill="#040A16"/>
<path transform="translate(473,1232)" d="m0 0 4 2 9 10 7 7 7 5-2 2-9-7-10-10-6-7z" fill="#040B17"/>
<path transform="translate(1023,571)" d="m0 0 15 1 11 2-1 2-9-1-34-2v-1z" fill="#040B17"/>
<path transform="translate(813,472)" d="m0 0 2 1-8 5-10 6-10 9v-3l11-11 12-6z" fill="#040C18"/>
<path transform="translate(1354,549)" d="m0 0h3v10h2l1 7-2 1-7-12 1-4z" fill="#040B17"/>
<path transform="translate(1220,473)" d="m0 0 8 3 10 8 4 6-4-2-10-6-2-2v-3l-6-2z" fill="#040B17"/>
<path transform="translate(553,559)" d="m0 0h4l1 4h2l1 5 4 2 3 3v3l2 1h-3l-5-5-7-8z" fill="#040C18"/>
<path transform="translate(1228,556)" d="m0 0v3l-9 6-5 1-2-1 1-4 5-2 7-1z" fill="#040B17"/>
<path transform="translate(618,510)" d="m0 0 6 2 7 6 4 8v2h-2l-5-8v-2l-4-1-6-4z" fill="#040B17"/>
<path transform="translate(1081,1352)" d="m0 0h7l2 2-12 2-7 2h-12v-1z" fill="#F7B818"/>
<path transform="translate(822,470)" d="m0 0h18l7 2v1h-31l1-2z" fill="#040C18"/>
<path transform="translate(940,767)" d="m0 0 3 1 9 12 4 5-1 2-7-6v-3l-4-2-4-7z" fill="#040C18"/>
<path transform="translate(959,662)" d="m0 0h2v2l-13 8-6 4-1-2 2-5 3-1 5-1z" fill="#040B17"/>
<path transform="translate(1112,878)" d="m0 0 1 2 4 1 4 2 2 2h2v2l2 1-2 2-15-9v-2z" fill="#040B17"/>
<path transform="translate(879,907)" d="m0 0h2l-2 4-8 8h-2v-2l-2-1h2v-2h3l1-3 3-1z" fill="#040B17"/>
<path transform="translate(941,367)" d="m0 0 2 2-1 2h-2l-2 6-3 1-1-7z" fill="#040B17"/>
<path transform="translate(615,1013)" d="m0 0h2l1 10h2l1 16-2-3-4-19z" fill="#7F9CE7"/>
<path transform="translate(1094,537)" d="m0 0 2 1-10 12-6 8-2-1 10-13z" fill="#040D19"/>
<path transform="translate(739,658)" d="m0 0 14 2 4 1v2l-8-1-11-2z" fill="#040B17"/>
<path transform="translate(1574,532)" d="m0 0 7 6 3 6-1 4-7-11-3-4z" fill="#040B17"/>
<path transform="translate(634,1159)" d="m0 0 8 1 8 3v1h-8l-8-4z" fill="#F9BC1B"/>
<path transform="translate(552,1085)" d="m0 0 3 1 5 9 3 6-2 1-9-16z" fill="#040C18"/>
<path transform="translate(1432,1133)" d="m0 0 4 1-4 4-5 2-1-2 2-4z" fill="#040B17"/>
<path transform="translate(1321,659)" d="m0 0h13l2 2-13 1-4-2z" fill="#040A16"/>
<path transform="translate(1304,660)" d="m0 0h9l4 2-16 1z" fill="#040A16"/>
<path transform="translate(464,1219)" d="m0 0 3 1 5 9-4-2-4-6z" fill="#040B17"/>
<path transform="translate(1148,929)" d="m0 0 10 1v1l-12 1-5-1v-1z" fill="#040D19"/>
<path transform="translate(1293,661)" d="m0 0h10l-2 2-10 1-2-2z" fill="#050E1A"/>
</svg>
