<?xml version="1.0" encoding="UTF-8"?>
<svg version="1.1" viewBox="0 0 2048 2048" width="1280" height="1280" xmlns="http://www.w3.org/2000/svg">
<path transform="translate(1e3 71)" d="m0 0h42l23 2 15 3 24 8 24 11 24 13 22 13 49 28 25 14 19 11 29 16 24 14 19 10 17 10 19 11 18 10 64 36 23 13 24 13 23 13 24 13 22 12 29 16 17 10 19 12 19 14 15 14 12 12 9 11 10 14 9 15 10 21 9 25 6 24 3 21v660l-3 27-6 23-8 21-12 25-10 16-12 16-12 13-12 12-13 10-20 12-21 12-23 13-27 15-24 13-21 12-25 14-24 14-26 14-22 13-6 4-1 398-3 17-5 12-9 13-9 9-11 7-11 4-5 1h-22l-14-4-16-8-17-10-32-19-26-15-45-26-49-28-53-31-22-12-24-14-17-9-6-1-24 13-21 12-15 9-17 10-28 16-24 14-22 12-22 13-26 15-21 12-29 17-21 13-24 13-12 5-9 2h-24l-14-5-10-7-7-6-7-10-7-16-1-8-1-92 1-7v-13l-1-7 1-6-1-11-1-46-1-227-15-9-24-13-18-10-17-10-11-6-26-15-16-9-28-16-17-10-26-14-25-15-16-11-9-7-15-13-8-8-9-11-10-12-10-16-11-21-8-21-5-18-3-15-2-30-1-31v-149l1-179v-33l-1-49v-213l3-29 8-27 8-19 8-16 11-18 9-12 14-15 7-8 13-11 24-16 24-13 23-13 29-16 24-14 56-32 20-11 24-14 26-14 17-10 29-16 28-16 23-13 44-24 19-10 18-10 20-11 22-12 21-12 18-10 20-11 25-11 18-6 17-4 16-2z" fill="#FCC31D"/>
<path transform="translate(1e3 71)" d="m0 0h42l23 2 15 3 24 8 24 11 24 13 22 13 49 28 25 14 19 11 29 16 24 14 19 10 17 10 19 11 18 10 64 36 23 13 24 13 23 13 24 13 22 12 29 16 17 10 19 12 19 14 15 14 12 12 9 11 10 14 9 15 10 21 9 25 6 24 3 21v660l-3 27-6 23-8 21-12 25-10 16-12 16-12 13-12 12-13 10-20 12-21 12-23 13-27 15-24 13-21 12-25 14-24 14-26 14-22 13-6 4-1 398-3 17-5 12-9 13-9 9-11 7-11 4-5 1h-22l-14-4-16-8-17-10-32-19-26-15-45-26-49-28-53-31-22-12-24-14-17-9-6-1-24 13-21 12-15 9-17 10-28 16-24 14-22 12-22 13-26 15-21 12-29 17-21 13-24 13-12 5-9 2h-24l-14-5-10-7-7-6-7-10-7-16-1-8-1-92 1-7v-13l-1-7 1-6-1-11-1-46-1-227-15-9-24-13-18-10-17-10-11-6-26-15-16-9-28-16-17-10-26-14-25-15-16-11-9-7-15-13-8-8-9-11-10-12-10-16-11-21-8-21-5-18-3-15-2-30-1-31v-149l1-179v-33l-1-49v-213l3-29 8-27 8-19 8-16 11-18 9-12 14-15 7-8 13-11 24-16 24-13 23-13 29-16 24-14 56-32 20-11 24-14 26-14 17-10 29-16 28-16 23-13 44-24 19-10 18-10 20-11 22-12 21-12 18-10 20-11 25-11 18-6 17-4 16-2zm8 144-23 3-20 5-16 6-17 9-24 14-28 16-52 29-26 15-25 15-26 15-45 25-24 14-23 13-21 12-25 14-24 14-28 16-22 13-27 15-22 12-19 12-12 11-7 7-10 15-6 15-3 11-1 39 1 583 2 17 4 15 5 12 7 12 9 10 10 9 17 12 21 13 52 29 24 14 28 16 26 15 28 16 23 13 24 14 27 15 48 28 26 15 28 16 24 13 23 13 27 15 16 9 23 12 21 9 18 5 15 2h18l19-3 21-6 19-8 23-12 16-9 18-10 28-16 25-14 28-16 26-14 27-16 21-12 24-14 17-9 22-13 39-22 19-11 23-13 52-29 27-16 21-12 12-8 13-10 17-17 10-14 7-14 4-18 1-8 1-347v-235l-2-26-3-15-5-16-7-16-8-12-12-12-13-9-21-13-18-10-23-13-22-12-16-9-28-16-17-10-26-15-36-20-28-16-24-14-22-12-46-26-49-28-16-10-23-14-17-11-22-13-17-9-18-7-21-5-17-2z" fill="#061521"/>
<path transform="translate(825,513)" d="m0 0h15l12 3 17 8 16 11 13 12 10 9 7 8 10 11 9 11 10 12 12 19 4 8 13-2 26-5 16-2h20l31 4 11 2 5-1 17-29 14-19 9-11 9-10 11-12h2v-2l11-9 11-7 15-6 15-3h18l16 4 11 6 6 5 9 13 4 10v17l-4 12-6 11-9 10-8 6-7 3-6 1h-9l-10-3-10-5h-2l-11 18-11 17-12 18v3l8 7 8 8 10 13 12 20 7 15 5 17 2 11 1 11v20l-2 25-5 26 2 7 6-1 14-10 18-13 17-11 17-10 23-11 24-8 17-4 25-3 12-1h26l22 3 16 4 19 8 15 8 13 9 14 12 10 10 13 17 8 13 7 16 5 15 4 20 1 10v27l-3 21-4 15-8 22-10 19-10 15-11 14-14 14-13 10-3 2 1 4 7 11 5 11 4 15 2 14v25l-3 18-7 19-8 14-9 11-14 14-13 10-16 9-16 6-21 4-16 1h-21l-27-3-20-5-14-5-10-5-3-3-3 4-13 18-12 14-9 9-7 8-16 15-17 14-27 18-21 12-23 11-23 9-26 7-28 4-18 1h-11l-28-2-24-4-24-6-20-7-29-14-14-8-14-9-17-12-10-8-13-11-16-16-9-11-9-12-12-20-1-4-10 4-23 9-21 6-18 4-19 2-20-1-17-3-20-6-16-8-14-9-14-11-11-11-8-11-9-16-7-21-3-16v-21l3-16 7-21 5-9 6-8 2-4-5-2-14-12-8-7-10-10-10-13-11-18-8-18-7-24-3-20-1-10v-26l4-22 9-27 11-21 10-14 12-13 11-10 15-10 19-10 16-6 19-5 13-2 12-1h22l32 4 26 6 27 9 24 11 17 9 19 12 14 10 13 9 4 1-1-11-5-26-1-8v-35l5-25 5-16 7-17 8-16 9-13 11-12 6-5-1-5-9-15-22-33-5 1-9 4-9 2h-13l-10-3-10-6-8-8-8-14-3-12v-13l3-13 5-9 5-5 8-6 12-5z" fill="#061520"/>
<path transform="translate(573,1212)" d="m0 0 5 2 4 5 2 1v2l4 2 4 4 11 8 11 6 6 2 15 7 21 6 13 2 20 1 19-2 30-7 20-7 18-8h4l10 18 10 14 9 11 11 12 11 11 11 9 19 14 15 10 21 12 27 13 27 9 28 6 24 3 17 1h11l27-2 23-4 22-6 25-10 25-12 22-13 16-11 13-10 13-11 17-16 9-10 11-12 14-19 5-8 4 2v2l5 2 16 6 18 5 20 3 12 1h21l23-2 17-4 6-1h3l17-9 10-7 5-4h8l2 6v16l-3 9-8 10-11 8-10 7-17 8-9 4-17 4-25 1-10 2-10-1-1-1-17-2h-11l-1 8-6 9-2 5h-2l-1 4-3 8-8 7-9 4-10 8-9 10-18 18h-2v2l-3 3h-2l-1 3h-2v2h-2l-1 3-8 7-5 5-6 5h-2l-2 4-5 2-12 8-11 6-23 13-18 8-21 7-11 3-14 3-15 3-21 2-5 1-21 1h-13l-33-4-19-3-31-8-21-7-32-13-32-16-27-16-10-7-16-12v-2l-4-2-16-15-10-10-9-11-7-8v-2l-3-1-7-8-9-6-12 1-14 1-20 4-22 5h-12l-13-5-10-4-14-7v-2l-5-2-8-9-7-13-1-5-6-5-11-6-7-4-5-5-3-2v-12l1-9 1-22 3-7h6l2 1z" fill="#F2A70A"/>
<path transform="translate(1e3 877)" d="m0 0h33l25 4 21 6 18 8 19 10 12 8 18 14 26 26 11 15 8 13 7 14 1 5h-362l3-9 11-21 10-14 13-16 13-13 14-11 11-8 21-12 18-8 24-7z" fill="#FCC31D"/>
<path transform="translate(825,1071)" d="m0 0h396l1 1v22l-4 36-4 17h-380l-3-9-4-21-3-24v-18z" fill="#FCC31D"/>
<path transform="translate(1385,849)" d="m0 0 18 1 16 4 16 8 11 9 9 10 8 16 3 12v24l-4 24-4 15-7 12-9 10-9 8-10 7-17 9-22 8-25 6-16 2h-35l-6-2-3-6-12-36-9-20-10-20-11-18-9-14-1-6 14-12 17-12 19-12 16-8 25-10 23-6 12-2z" fill="#FDFCFB"/>
<path transform="translate(654,849)" d="m0 0h16l20 3 20 6 23 10 25 13 23 13 11 7 7 6-6 9-20 36-8 16-8 24-9 37-2 4-28-1-32-3-17-3-21-6-14-6-13-9-11-11-9-11-9-12-7-16-4-16-1-6v-23l5-19 7-12 9-10 7-6 14-7 13-4z" fill="#FDFCFB"/>
<path transform="translate(823,1151)" d="m0 0 3 1 7 5-1-3-2-1 1-2 5 3 8 1h78l57 1h13v-1h43v1h175l10-1 1-1 18-3 5 1 3 3 2 14v45l-18 1-58 1-3-4-4-2-38-1-47 1h-25l-1 1h-13l-16-1h-15l-37 1v-2l-6 1h-18l-42-1-29 1-9 3-4 2h-46v-11l1-18-1-10v-21z" fill="#061B1C"/>
<path transform="translate(1229 1e3)" d="m0 0h15v2l4 1 1 32v28l-8 1h-16l-5-3v-2l-15-1-70 2-21 1h-144l-18-1-4-1-10 1-26-1h-52l-19-1h-16l-5 1v-7h2l2-8v-12l1-7-1-4 3-9 7-4 7 2v2l8 1 1-2h2l-2-4 5-1 1-3 3-1 23 2 2 1h17l6-1h182l29 1h62l10-1h18l2-2h7l-1 2 10-1z" fill="#061B1C"/>
<path transform="translate(1017,694)" d="m0 0h19l15 2 21 7 19 10 11 8 5 5 5 6 8 16 1 5v17l-5 17-8 16-1 3-10-1-25-6-21-3-33-2-29 2-24 4-14 3h-7l-9-12-5-11-2-9v-10l3-15 8-16 9-10 8-7 12-7 16-6 16-4z" fill="#FCC31D"/>
<path transform="translate(875,1218)" d="m0 0h297l-1 4-11 12-11 9-19 14-16 10-15 7-24 8-25 5-11 1h-27l-20-2-19-4-15-4-21-9-19-10-13-9-11-9-10-9-9-10-1-3z" fill="#FCC31D"/>
<path transform="translate(607,944)" d="m0 0 18 2 19 2 29 2 35 2 41 4 16 1 3 2-11 33-9 37-2 4-28-1-32-3-17-3-21-6-14-6-13-9-11-11-9-11-9-12-7-16-1-7 4 6 2-7 5-2z" fill="#BFD1DD"/>
<path transform="translate(1013,412)" d="m0 0h9l7 4 9 9 8 13 5 5 31 9 14 7-1 6-10 14-10 13-2 4v19l1 17-3 7-9 1-14-3-12-5-13-6-5 1-12 6-17 6-5 1h-7l-5-5-1-34-5-12-10-15-5-7-1-7 8-4 27-8 6-4 12-23 6-7z" fill="#061521"/>
<path transform="translate(1386,945)" d="m0 0 4 1 8 3h5l4 4 8 3-1 3 8-4 2 3 3 6 14-1 1-3-4-8-6-5 4-2 4 4v2h5l4 8 1 3-2 11h-2l-2 6-5 7-2 9 3 1-12 10-16 9-14 6-21 7-25 5-9 1h-35l-6-2-3-6-10-31v-8l1-2-2-22 5-3h13l17-4 12-3h10v2h8l9-2 10-1 2-1h10z" fill="#BFD1DD"/>
<path transform="translate(636,1111)" d="m0 0 12 1 19 3 12 1 37-1 11-1h15l1 1 6 36 2 11-5 3-26 8-20 4h-14l-16-3-13-5-10-6-9-9-7-14-1-3v-11l5-14z" fill="#F2A70A"/>
<path transform="translate(1395,1112)" d="m0 0h10l5 8 3 12v12l-5 10-10 10-12 7-12 4-7 1h-16l-22-5-31-9-2-1 1-15 3-29 2-1 16 2 21 1 21-2z" fill="#F2A70A"/>
<path transform="translate(949,293)" d="m0 0h7l13 4 6 4 8 8 6 12 1 3v15l-4 12-6 9-11 8-11 4-5 1h-12l-10-3-8-4-7-6-7-14-1-5v-9l3-12 6-10 10-9 13-6z" fill="#FEFDFD"/>
<path transform="translate(1416,474)" d="m0 0h13l12 5 11 9 6 7 4 8 1 3v14l-5 13-9 10-9 6-11 3-13-1-12-5-10-8-7-11-3-9v-12l4-11 4-6 7-7 10-6z" fill="#FEFDFD"/>
<path transform="translate(615,474)" d="m0 0h9l11 4 9 7 6 8 4 10 1 4v9l-4 13-6 8-7 6-10 5-7 2h-10l-12-4-8-6-6-7-4-8-2-7v-13l6-12 8-9 14-8z" fill="#FEFDFD"/>
<path transform="translate(1082,296)" d="m0 0h11l12 4 6 4 7 7 5 10 2 8v14l-4 11-9 10-11 5-4 1h-16l-9-3-11-8-7-9-4-12v-12l5-12 7-8 6-5 9-4z" fill="#FEFDFD"/>
<path transform="translate(1357,655)" d="m0 0 11 1 12 5 8 7 5 8 3 8v16l-5 12-7 8-7 5-10 3h-19l-12-6-9-9-6-12v-15l4-12 7-9 9-6 8-3z" fill="#FEFDFD"/>
<path transform="translate(689,657)" d="m0 0 10 2 10 5 7 6 7 14 1 5v14l-4 11-6 8-7 6-7 3-13 1-11-2-9-5-9-8-6-10-2-7v-8l3-12 5-9 8-8 9-4z" fill="#FEFDFD"/>
<path transform="translate(546,655)" d="m0 0h14l10 3 10 6 6 7 4 9 1 5v11l-4 10-7 10-8 6-13 4h-9l-13-4-9-7-7-11-2-6v-11l5-15 6-8 8-6z" fill="#FEFDFD"/>
<path transform="translate(1486,655)" d="m0 0h10l10 3 8 5 7 8 4 10 1 4v8l-4 13-7 10-8 6-8 3h-17l-10-5-10-9-5-10-1-3v-12l4-13 6-8 7-6z" fill="#FEFDFD"/>
<path transform="translate(438,600)" d="m0 0h1l1 45v288l1 98v169h-1l-2-17z" fill="#F2A70A"/>
<path transform="translate(536,1215)" d="m0 0h14l4 5v6l2 1h-2l1 2v14l1 7-3 4-9 1-8-4-3-3-2-6-1-9v-11l4-6z" fill="#FEFDFD"/>
<path transform="translate(521,569)" d="m0 0h10l6 4 3 4 1 3v8l-4 8-6 4h-8l-7-4-6-7v-11l4-6z" fill="#FEFDFD"/>
<path transform="translate(1507,569)" d="m0 0h8l6 4 5 6v12l-4 5-10 3h-6l-6-5-4-9 1-8 3-5z" fill="#FEFDFD"/>
<path transform="translate(1260,1419)" d="m0 0h5v3h-2l-1 3-16 8-7 5-17 8-4 2-7 1-1-2 5-5 6-3 4-1v-2l8-3 12-6 5-3h2v-2z" fill="#F2A70A"/>
<path transform="translate(1038,695)" d="m0 0h6v1l-5 1 1 4-2 2 2 2h-20l-15 2-2-1 1-3 12-4 3-3z" fill="#F2A70A"/>
<path transform="translate(1405,1114)" d="m0 0h2l4 9 2 9v12l-5 10-10 10-5 3-3-1 10-8 6-6 4-8v-11l-4-15z" fill="#F9BB18"/>
<path transform="translate(995,1534)" d="m0 0h6l2 3v2l6 4 6 1v1h-13l-11-3v-3-3z" fill="#F2A70A"/>
<path transform="translate(814,1287)" d="m0 0 4 2 13 13 11 9 19 14 12 8v2l-5-2-10-7-16-12-11-9-7-6-7-8-3-2z" fill="#F8B715"/>
<path transform="translate(845,1126)" d="m0 0 6 1v2l6 1 3 2-1 3h-12l-4-2 1-5z" fill="#F2A70A"/>
<path transform="translate(615,1294)" d="m0 0 5 2 9 5 2 3-1 3-6-1-10-8z" fill="#FDC41E"/>
<path transform="translate(1453,1224)" d="m0 0m-1 1m-1 1m-2 1 2 1-5 5-8 6-10 6-12 6-2-1 1-2 16-8 11-7z" fill="#F9BB18"/>
<path transform="translate(578,1214)" d="m0 0 4 2 8 8 16 12 8 5-1 2-13-8-12-9-4-4v-2l-4-2z" fill="#F8B715"/>
<path transform="translate(748,1156)" d="m0 0h2l1 6-5 3-26 8h-8l4-2 15-4 15-5h3z" fill="#F9B917"/>
<path transform="translate(451,1172)" d="m0 0 3 2 2 6v12l-2 7h-1v-16l-3-1 1-5z" fill="#F2A70A"/>
<path transform="translate(1041,1531)" d="m0 0h6l2 2-8 2-12 1h-11v-1l18-3z" fill="#F2A70A"/>
<path transform="translate(1339,1976)" d="m0 0h30l-3 2h-28z" fill="#908B6F"/>
<path transform="translate(1405,1114)" d="m0 0h2l4 9 1 4v16h-1l-2-15-3-10z" fill="#FABC19"/>
<path transform="translate(1532,893)" d="m0 0 2 1 1 4 1 2v7h-3l-1-2z" fill="#061C1C"/>
<path transform="translate(1198,1316)" d="m0 0 2 1-10 8-7 5h-2l1-3z" fill="#F8B715"/>
<path transform="translate(1221,1296)" d="m0 0 3 1-12 11-5 3 2-4z" fill="#F8B815"/>
<path transform="translate(1406,1251)" d="m0 0h6l-3 2-6 2-12 1 1-2z" fill="#F9BA17"/>
<path transform="translate(1412,1132)" d="m0 0h1v12l-5 10h-1v-5l4-6z" fill="#F6B212"/>
<path transform="translate(632,1138)" d="m0 0 2 3 4 8 5 8-4-2-6-10z" fill="#F8B916"/>
<path transform="translate(1249,1268)" d="m0 0 2 1-13 14-1-3z" fill="#F8B816"/>
<path transform="translate(1102,779)" d="m0 0 2 2-5 8h-5l1-3 6-5z" fill="#F2A70A"/>
<path transform="translate(578,1214)" d="m0 0 4 2 8 8 1 3-3-1-4-4v-2l-4-2z" fill="#F9BA17"/>
<path transform="translate(1531,908)" d="m0 0 2 2v8l-2 11h-1v-18z" fill="#061C1C"/>
<path transform="translate(1178,1467)" d="m0 0 2 2-9 6-2-1 5-5z" fill="#F2A70A"/>
</svg>
