<?xml version="1.0" encoding="UTF-8"?>
<svg version="1.1" viewBox="0 0 2048 2048" width="1280" height="1280" xmlns="http://www.w3.org/2000/svg">
<path transform="translate(991,75)" d="m0 0h64l26 4 21 5 24 9 23 11 23 13 25 14 24 13 46 26 24 13 23 13 21 12 27 15 21 12 22 12 29 16 22 12 27 15 23 13 42 23 42 23 18 10 26 14 17 10 13 9 13 10 12 11 14 14 10 13 8 13 12 23 9 21 7 25 3 17 1 15v394l-1 265-2 16-3 16-10 30-12 25-8 14-10 14-12 14-15 15-13 10-19 12-49 28-24 13-23 13-28 15-24 14-24 13-21 12-30 15-1 402-1 11-4 16-7 13-4 5-8 7-8 5-16 6-9 1-1 1-11 1-14-4-13-5-21-11-10-6-20-9-16-8-25-13-5-4-40-20-15-8-6-3-3-3-21-10-9-6-19-10-11-7-23-12-3-3-16-8-9-6-9-3-3-3-17-8-7-1-11 5-20 10-14 8-23 12-17 10-17 9-13 8-16 9-8 4-10 4-13 7-5 3-7 3-21 11-7 3-11 7-4 3-7 2-10 8-7 2-5 4-9 3-11 5-16 8-19 11-11 5-13 3h-19l-12-4-13-7-11-11-8-14-4-12-1-7-1-35v-369l-10-6-11-7-25-14-42-24-23-13-24-13-24-14-27-15-23-13-26-16-16-12-14-12-9-9-9-11-14-18-9-16-10-21-9-27-5-25-1-9-1-40v-122l1-511 4-20 8-26 8-18 8-16 12-19 11-13 7-8 6-7 8-7 14-12 15-10 25-14 32-17 23-13 27-15 24-13 23-13 27-15 22-12 18-10 23-12 22-12 24-13 21-12 24-13 23-13 34-18 17-10 20-11 23-13 28-15 22-12 29-14 20-8 17-5 14-3z" fill="#061622"/>
<path transform="translate(1255,383)" d="m0 0h20l13 2 12 4 10 6 8 7 9 14 4 11 1 5v23l-4 13-6 7-12 9-16 13-8 9-3 8v18l4 12 7 11 9 8 12 6 4 1h17l15-4 16-8 14-11 9-10 7-10 8-14 6-14 5-20 2-15v-29l-1-14-1-6 9 5 13 8 22 12 23 13 34 18 23 13 20 12 14 10 13 11 10 11 10 15 7 15 4 17 1 11 1 48v86l-1 446-2 18-5 21-5 13-6 11-9 11-9 9-14 10-21 13-29 17-28 16-23 12-22 12-18 10-21 12-25 14-28 17-23 13-18 10-17 10-9 5-3-1 12-20 12-21 15-28 12-29 9-28 5-23 4-32 2-42 11 2 19 2h24l25-3 26-5 20-6 18-8 21-11 17-12 13-13 11-14 7-11 9-17 7-19 5-22 2-15v-32l-3-20-6-21-8-16-7-12-9-12-8-10-16-16-20-15-18-11-15-8-21-8-20-6-29-6-21-3-21-2-1-3 2-10v-46l-2-33-4-25-8-32-9-26-8-18-10-19-13-21-12-16-14-17-9-11-15-14-11-9-14-12-20-14-22-14-21-12-8-5-2-2 2-10 10-24 13-27 8-12 9-10 9-8 16-8 14-4z" fill="#84A1EF"/>
<path transform="translate(777,386)" d="m0 0h21l13 3 14 7 10 9 8 9 11 18 12 25 10 25-1 5-16 8-19 12-18 13-16 13-11 9-7 7-8 7-13 13-11 14-8 10-13 18-11 17-17 32-8 19-7 24-8 36-4 24-1 10v48l2 18v7l-31 2-26 4-25 7-19 7-25 12-16 10-14 10-11 9-12 11-10 11-10 15-10 18-7 19-5 21-2 17v21l3 22 6 20 6 16 11 21 12 16 11 12 12 12 14 11 11 8 20 11 21 8 18 5 21 3h38l25-3h8l2 11 4 37 7 36 8 29 8 21 12 25 10 18 22 34 4 8v2l-5-1-24-13-16-9-16-8-17-9-15-9-18-10-24-14-24-13-23-13-24-14-23-13-20-12-25-16-14-11-14-12-7-7-10-13-9-16-8-19-3-14-2-20-1-112v-297l1-161 3-23 7-19 7-13 10-13 12-12 14-10 17-10 25-14 21-12 22-13 28-16 16-10 18-11 7-6h2l-5 25-2 19v20l3 20 5 16 9 19 10 14 6 7 11 9 14 9 11 5 9 2h13l13-3 11-6 10-10 9-15 2-7v-15l-4-9-4-6-8-8-23-15-9-7-5-9v-20l3-11 7-14 11-12 9-7 16-7z" fill="#84A1EF"/>
<path transform="translate(1011,541)" d="m0 0h26l28 3 24 5 30 10 26 12 18 10 14 10 17 14 16 15 12 13 16 20 11 17 10 18 10 25 7 24 4 24 1 10v34l-2 17-5 24-6 20-6 16-7 16-5 7-2 1-86 1h-149l-205-1-5-4-11-18-7-15-7-22-5-23-2-14-1-14v-21l2-23 5-23 8-24 8-18 10-20 12-19 12-16 9-11 23-23 14-11 15-10 23-12 27-10 24-7 25-5z" fill="#FCBD0D"/>
<path transform="translate(1294,1574)" d="m0 0 2 2 1 98v269l-5-1-23-11-15-8-16-8-7-5-40-20-15-8-6-3-3-3-21-10-9-6-19-10-11-7-23-12-3-3-16-8-9-6-9-3-3-3-17-8-7-1-11 5-20 10-14 8-23 12-17 10-17 9-13 8-16 9-8 4-10 4-13 7-5 3-7 3-21 11-7 3-11 7-4 3-7 2-10 8-7 2-5 4-9 3-11 5-3-1 3-2 1-3 1-36-1-245 1-77 5 2 25 13 23 13 30 16 23 13 24 13 23 13 22 12 23 13 17 9 12 5 17 3 7 1h28l18-3 17-6 30-14 20-10 22-12 26-14 23-13 23-12 23-13 21-11 22-12z" fill="#EEA80D"/>
<path transform="translate(953,1011)" d="m0 0h146l109 1 13 1 4 4 12 21 9 19 10 28 5 18 4 21 2 16 1 18-1 3-9 1h-277l-122 1h-77l-1-1v-11l3-25 6-26 9-27 9-21 10-18 7-11 8-9 2-1 24-1z" fill="#FCBD0D"/>
<path transform="translate(1012,209)" d="m0 0h28l20 3 19 5 20 9 27 14 24 14 25 15 29 17 17 12v2l-15 6-16 8-14 8-16 12-13 12-10 11-11 16-8 15-11 27-8 27-5 21-4 1-9-2-19-3-32-2h-26l-41 3-3-5-8-25-9-21-8-16-10-18-10-13-11-12-13-13-14-11-19-12-24-12-7-3 3-3 17-10 25-14 22-13 26-15 18-10 20-11 18-7 21-5z" fill="#84A1EF"/>
<path transform="translate(803,1287)" d="m0 0 14 1 80 1 353 1-3 10-8 20-10 19-8 12-13 16-12 14-8 9-8 7-13 11-16 11-9 5h-138l-76 1h-25l-7-3-14-10-15-14-8-7-12-14-7-10-11-17-12-23-9-23-5-15z" fill="#FCBD0E"/>
<path transform="translate(1294,1574)" d="m0 0 2 2 1 98v269l-5-1-23-11-15-8-16-8-7-5-40-20-15-8-6-3-3-3-21-10-9-6-19-10-11-7-23-12-3-3-16-8-9-6-9-3-3-3-6-3 2-1 5-1 21-8 16-8 19-10 14-8 12-7 16-8 16-9 11-6 16-8 10-6 11-6 24-13 15-8 16-8 9-4 11-5h4l2-5 2-9v-14l3-9v-29l-2-1v-7l1-9 1-14-9 1-6 2-3 3-14 7-3 3-16 8-7 4h-2l-1 2-11 6-6 1v2l-5 1-3 3-8 4-6 4-9 3v2l-6 2-4 2-4 1-2 3-16 7-2 2-5 1-1 1h-5l3-3 26-14 23-13 23-12 23-13 21-11 22-12z" fill="#FCBD0D"/>
<path transform="translate(759,1672)" d="m0 0 6 4 5 5 14 8 11 7 11 6 20 11 17 8 16 9 10 5 18 10 21 12 35 21 28 14 19 7h10l10-3 6 2 5-3 5 1 10 6-2 1-11-4-6 1-16 8-17 9-22 12-15 8-32 18-17 10-17 9-10 4-13 7-5 3-7 3-21 11-7 3-11 7-4 3-7 2-10 8-7 2-5 4-9 3-11 5-3-1 3-2 3-15 1-248z" fill="#FCBE0D"/>
<path transform="translate(503,1144)" d="m0 0 7 6 9 9 14 11 11 8 20 11 21 8 18 5 21 3h38l25-3h8l2 11 4 37 7 36 8 29 8 21 12 25 10 18 22 34 4 8v2l-5-1-24-13-16-9-16-8-17-9-15-9-18-10-24-14-24-13-23-13-24-14-23-13-20-12-25-16-14-11-14-12-7-7-10-13-9-16-5-11 1-3 9 19 7 10 6 8 14 14 3 2v2h8l1 1 7 1-1-30 1-12 2-13 6-18 6-10 5-10-2-5-9-9z" fill="#738FE2"/>
<path transform="translate(694,927)" d="m0 0h20l8 9 8 12 10 11 7 8 6 8-4 7-7 10-9 17-13 28-9 23-13 43-3 3-26 8-14 3-11 1h-9l-21-3-18-6-17-9-10-8-10-10-8-13-6-16-2-8v-21l4-16 4-10 10-16 11-13 14-11 23-12 19-7 24-6 22-4z" fill="#FDFDFD"/>
<path transform="translate(1335,927)" d="m0 0 37 1 20 2 19 4 20 6 16 7 14 9 13 11 7 7 10 13 9 17 6 18 1 5v19l-4 16-8 16-7 9-10 9-16 9-12 5-16 4-21 2-34-2-24-3-3-3-3-15-5-26-6-21-7-20-12-29-10-18-5-7v-5l6-8 9-10 13-19z" fill="#FCFDFD"/>
<path transform="translate(584,577)" d="m0 0h5l10 11 16 24 11 14 1 2 40 10 19 5 10 4 2 4-11 18-12 15-12 18-1 3v9l2 12v28l-5 10-4 3h-11l-24-5-8-2h-6l-7 11-8 17-10 16-4 5h-2l-11-18-8-16-8-17-27 2-18 1-1-3 5-42 1-16-7-11-13-18-8-14-2-9 5-5 12-5 21-4 30-4 4-1 13-24 7-12 9-11z" fill="#FEFEFE"/>
<path transform="translate(1462,577)" d="m0 0 5 1 10 10 14 21 9 13 3 3 19 5 37 8 15 6 2 1-1 7-8 14-9 10-7 8-9 11-1 4v19l4 28 3 13v7h-8l-33-7-8-1-6 11-7 11-11 14-7 9-3-1-8-10-9-16-8-16-8 1-31 9h-6l-2-4v-48l-4-14-10-16-10-15-13-22v-3l22-8 20-4 21-4 6-4 6-7 13-21 10-14z" fill="#FDFDFD"/>
<path transform="translate(1546,1145)" d="m0 0v3l-4 5 5 3 6 12 5 16v15l-10 21-8 11-8 8-21 15-11 6-21 11-35 14-12 4-11 5-15 5-1 5 5 2 6 7 5 4 1 2h7l4-2h7l-1 7 1 4h-2v2l-13 8 3 1-21 12-25 14-28 17-23 13-18 10-17 10-9 5-3-1 12-20 12-21 15-28 12-29 9-28 5-23 4-32 2-42 11 2 19 2h24l25-3 26-5 20-6 18-8 21-11 17-12z" fill="#738FE2"/>
<path transform="translate(896,721)" d="m0 0h15l16 4 14 7 11 9 9 12 7 15 3 9 1 5v15l-5 16-6 11-11 12-8 7-14 7-10 3-7 1h-15l-14-2-16-8-12-9-6-7-6-10-4-11-2-11v-17l4-16 8-16 9-10 14-9 14-5z" fill="#061622"/>
<path transform="translate(1141,722)" d="m0 0 17 1 13 4 12 7 12 11 8 13 5 14v21l-4 15-5 12-10 13-13 9-10 5-15 4-5 1h-17l-16-5-10-5-10-9-7-8-7-14-3-12-1-13 2-11 4-12 4-8 7-9 8-8 14-9 13-5z" fill="#061622"/>
<path transform="translate(1310,980)" d="m0 0 4 2 20 20 11 8 16 8 19 7 20 6 31 5 7 1h14l38-5 11-2h5l1-3v19l-4 16-8 16-7 9-10 9-16 9-12 5-16 4-21 2-34-2-24-3-3-3-3-15-5-26-6-21-7-20-12-29-9-16z" fill="#B3D0F4"/>
<path transform="translate(749,978)" d="m0 0 2 1-9 13-9 17-13 28-9 23-13 43-3 3-26 8-14 3-11 1h-9l-21-3-18-6-17-9-10-8-10-10-8-13-6-16-2-8v-21l1-5h1l-1 24h2v2l10 1 5 2 9 2 5 3 2 5 10 3 12-2 15-5 15-8 15-10 22-14 22-12 16-8 31-15 10-6z" fill="#B3D0F4"/>
<path transform="translate(965,1524)" d="m0 0h13l22 3 12 1h54l21-1-2 4-8 8-18 11-17 10-16 10-11-6-21-13-16-10-10-9-3-5z" fill="#FCBC0D"/>
<path transform="translate(1022,340)" d="m0 0h14l9 4 5 4 4 8v16l-5 8-7 6-6 2h-9l-9-2-6-4-5-6-3-9v-9l5-10 8-6z" fill="#FEFEFE"/>
<path transform="translate(1066,289)" d="m0 0h11l8 4 5 6 2 5v13l-6 9-9 6-3 1h-11l-7-4-4-6-2-7v-9l4-10 7-6z" fill="#FEFEFE"/>
<path transform="translate(985,296)" d="m0 0 10 1 7 4 6 7 1 3v12l-5 9-6 5-7 2h-8l-8-4-5-6-3-9 1-9 6-8 8-6z" fill="#FEFEFE"/>
<path transform="translate(1294,1574)" d="m0 0 2 2 1 98v40l-1 86h-1l-1-175-1-1v-9l-2-1v-7l1-9 1-14-9 1-6 2-3 3-14 7-3 3-16 8-7 4h-2l-1 2-11 6-6 1v2l-5 1-3 3-8 4-6 4-9 3v2l-6 2-4 2-4 1-2 3-16 7-2 2-5 1-1 1h-5l3-3 26-14 23-13 23-12 23-13 21-11 22-12z" fill="#F8B70D"/>
<path transform="translate(757,1576)" d="m0 0 6 2 23 12 23 13 30 16 23 13 24 13 23 13 22 12 23 13 17 9 12 5 17 3 12 2v2h18v1h-23l-16-2-13-4-14-6-10-5-1-2-4-1-11-7-12-6-12-7-3-1v-2l-6-2-17-9-7-4v-2l-5-1-26-13-7-4v-2l-7-2v-2l-7-1v-2l-4-1-19-10-3-3-7-3-11-5v-2l-6-1v-2l-5-2-6-3v-2l-7 1h-4z" fill="#FABB0D"/>
<path transform="translate(902,741)" d="m0 0 10 1 7 6 2 5v11l-3 6-5 4-5 2h-11l-5-3-5-6-2-5v-7l4-8 5-4z" fill="#F4F6FB"/>
<path transform="translate(1143,742)" d="m0 0h12l6 3 6 9v12l-6 7-4 2-8 1-8-2-5-4-3-6v-10l4-8z" fill="#F6F7FB"/>
<path transform="translate(1057,1814)" d="m0 0 6 2 30 16 24 14 18 10 23 13 16 8 31 16 23 13 22 12 23 12 18 9 5 2 1 2-5-1-23-11-15-8-16-8-7-5-40-20-15-8-6-3-3-3-21-10-9-6-19-10-11-7-23-12-3-3-16-8-8-5z" fill="#FEFEFE"/>
<path transform="translate(1416,415)" d="m0 0 9 5 13 8 22 12 23 13 34 18 23 13 20 12 14 10 13 11 10 11-1 2-12-13-13-10-11-8-24-14-27-15-15-8-14-7-22-12-12-6v-2l-4-1-11-4-2-4-4-2-4-3-1 1v42h-1l-1-29-1-14z" fill="#738FE2"/>
<path transform="translate(850,427)" d="m0 0 3 3 11 22 11 28 1 6-22 12-21 14-16 12-16 13-13 12-8 7-13 13-11 14-8 10-13 18-4 4 2-5 9-14 4-7 7-6 12-16 7-7h2l2-4 15-14 14-12 13-10 18-13 17-11 17-10v-11l-5-11-10-25-5-9z" fill="#738FE2"/>
<path transform="translate(1334,643)" d="m0 0 3 3 10 21 11 31 7 29 4 23 2 31v54l-1 8 18 2 20 3 25 5 21 6 8 3-3 1-20-6-29-6-21-3-21-2-1-3 2-10v-46l-2-33-4-25-8-32-9-26-8-18-4-8z" fill="#738FE2"/>
<path transform="translate(898,1652)" d="m0 0 15 8 43 24 15 8 12 5 17 3 12 2v2h18v1h-23l-16-2-13-4-14-6-10-5-1-2-4-1-11-7-12-6-12-7-3-1v-2l-6-2-7-4-1-3z" fill="#F8B80D"/>
<path transform="translate(1310,980)" d="m0 0 4 2 5 8 3 5 4 13 7 17 8 23 6 21 4 21 3 19 22 2 27 2h18l15-2 15-4 12-5 14-8h3l-10 7-17 8-19 5-21 2-34-2-24-3-3-3-3-15-5-26-6-21-7-20-12-29-9-16z" fill="#7A96E7"/>
<path transform="translate(687,715)" d="m0 0h1l-1 9-6 31-2 18v48l2 18v7l-31 2-26 4-8 1 4-2 18-4 34-4 3-6 1-7v-43l2-29 6-31z" fill="#738FE2"/>
<path transform="translate(1098,438)" d="m0 0 1 4-5 21-4 1-9-2-19-3-32-2h-26l-41 3 3-2 3-1 22-2 4-1h41l25 2 16 2 11 2h4z" fill="#738FE2"/>
<path transform="translate(770,514)" d="m0 0h1v16l-4 12-7 12-9 8-10 6-13 4-4 1h-13l-15-4-14-8-10-8-9-8-5-6 1-2 7 8 11 9 14 9 11 5 9 2h13l13-3 11-6 10-10 9-15 2-7z" fill="#738FE2"/>
<path transform="translate(950,1833)" d="m0 0 2 1-17 10-17 9-13 8-16 9-8 4-10 4-13 7-5 3-7 3-21 11-4-1 16-8 33-17 44-23 23-13z" fill="#FEFEFE"/>
<path transform="translate(721,1030)" d="m0 0 1 3-9 21-13 42-3 9-21 7-21 5-11 1h-9l-21-3-7-2 4-1 21 3h20l22-5 18-6 4-3 13-42 8-21z" fill="#7B97E8"/>
<path transform="translate(1057,1814)" d="m0 0 6 2 30 16 24 14 18 10 23 13 8 4 1 2-5-1-23-12-3-3-16-8-13-8-23-12-3-3-16-8-8-5z" fill="#FEFEFE"/>
<path transform="translate(1107,231)" d="m0 0 6 2 27 15 20 12 29 17 21 13 4 4-5-2-11-6-15-9-19-11-14-9-19-11-17-10-7-4z" fill="#738FE2"/>
<path transform="translate(1087,1684)" d="m0 0h3l-2 4h-5l-2 4-14 7-16 4-19 1-1-2 22-4 17-6z" fill="#FBBB0D"/>
<path transform="translate(1212,401)" d="m0 0v3l-8 8-8 13-8 16-12 26-5 14-1 8-3-2 2-10 10-24 13-27 8-12 9-10z" fill="#738FE2"/>
<path transform="translate(795,1915)" d="m0 0 2 1-11 9-7 2-5 4-9 3-11 5-3-1 10-6z" fill="#FDFDFD"/>
<path transform="translate(1310,980)" d="m0 0 4 2 5 8 3 5 4 13 7 17 8 23 1 7-2-3-9-26-12-29-9-16z" fill="#7A96E7"/>
<path transform="translate(1295,557)" d="m0 0 8 6 12 6 4 1h17l15-4 5-1-4 3-16 5-12 1-13-4-8-4-8-7z" fill="#738FE2"/>
<path transform="translate(1258,548)" d="m0 0 4 2 12 11 8 7 2 4 3 1 3 4v2h2l10 13 4 5-1 2-12-14-8-10-9-10-8-7-10-9z" fill="#738FE2"/>
<path transform="translate(1295,493)" d="m0 0 2 1-9 9-4 8-1 3v18l2 10-3-4-2-10v-12l5-15h2l1-3z" fill="#738FE2"/>
<path transform="translate(725,417)" d="m0 0 1 2-5 11-3 16v12l4 8 7 7h-3l-5-4-5-9v-20l3-11z" fill="#738FE2"/>
<path transform="translate(1254,1921)" d="m0 0 19 9 18 9 5 2 1 2-5-1-23-11-15-8z" fill="#FEFEFE"/>
<path transform="translate(991,1701)" d="m0 0h16l5 1v2h18v1h-23l-16-2z" fill="#FBBC0D"/>
<path transform="translate(711,648)" d="m0 0 1 2-10 21-5 14-1-4 4-11 2-7 8-14z" fill="#738FE2"/>
<path transform="translate(803,1287)" d="m0 0 30 2v1l-25 1v9l-2-2z" fill="#E7E5E6"/>
<path transform="translate(745,984)" d="m0 0v3l-9 16-7 15-1-3 6-13 4-9z" fill="#7D9AEA"/>
<path transform="translate(882,1644)" d="m0 0 5 2 11 6v3l-9-3-8-5z" fill="#F9B90D"/>
<path transform="translate(705,1071)" d="m0 0h1l-1 9-8 25h-5l4-4z" fill="#7C98E9"/>
<path transform="translate(839,294)" d="m0 0 5 1-1 6-9 1-3-2 5-3z" fill="#738FE2"/>
<path transform="translate(819,1902)" d="m0 0 2 1-14 9-4 3h-6l3-3z" fill="#FEFEFE"/>
<path transform="translate(1585,1243)" d="m0 0 3 1-10 9-14 9-2-1 17-12z" fill="#738FE2"/>
<path transform="translate(1310,980)" d="m0 0 4 2 5 8 3 5 1 7-3-3-8-15z" fill="#85A2EB"/>
<path transform="translate(1021,1795)" d="m0 0 5 1 10 6-2 1-11-4-6 1-4 2-3-1z" fill="#FEFEFE"/>
<path transform="translate(898,1652)" d="m0 0 15 8-4 2-11-6-1-3z" fill="#F7B60D"/>
<path transform="translate(1159,332)" d="m0 0 2 1-15 14-6 7v-3l7-8 9-9z" fill="#738FE2"/>
<path transform="translate(1436,1330)" d="m0 0m4 0 2 1-12 7-6 1 4-4 8-4z" fill="#7D99E9"/>
<path transform="translate(1276,1932)" d="m0 0 15 7 5 2 1 2-5-1-16-8z" fill="#FAFAFD"/>
<path transform="translate(506,910)" d="m0 0 3 1-12 12v-3l2-3h2l2-4 3-1z" fill="#738FE2"/>
<path transform="translate(638,405)" d="m0 0h2l-2 9-2-3-6 3-2-1 9-7z" fill="#738FE2"/>
<path transform="translate(1310,481)" d="m0 0 2 1-13 11-2-1 11-10z" fill="#738FE2"/>
</svg>
