<?xml version="1.0" encoding="UTF-8"?>
<svg version="1.1" viewBox="0 0 2048 2048" width="1280" height="1280" xmlns="http://www.w3.org/2000/svg">
<path transform="translate(1006,89)" d="m0 0h33l22 2 30 7 19 7 27 12 23 12 17 10 21 12 25 14 26 15 25 14 21 12 26 14 16 9 22 12 16 9 26 15 25 14 14 8 44 24 52 29 23 13 24 13 18 10 31 16 19 12 12 9 14 12 7 7 9 11 7 8 10 15 11 19 7 16 6 18 5 23 3 19 1 23v315l-1 295-1 14-1 2-3 19-6 23-9 24-11 23-12 19-14 18-11 12-8 7-17 13-20 13-17 10-44 24-23 13-33 18-24 14-27 15-24 13-18 11-3 3-1 10-1 393-4 14-6 11-11 12-11 7-12 5-6 2h-19l-17-5-33-16-19-11-21-12-23-13-25-14-23-13-21-12-25-14-28-16-22-13-23-13-27-15-16-9h-5l-20 12-28 17-26 15-25 14-24 14-27 15-27 16-25 14-15 9-25 14-24 14-27 15-11 5-7 2-8 1h-10l-12-2-9-3-11-7-13-13-6-10-4-13-1-30-1-9-1-366-13-8-29-16-26-14-16-9-23-13-22-13-28-16-27-15-25-14-23-14-17-12-10-9-8-7-13-14-12-16-12-20-8-16-7-18-6-23-1-5v-690l4-17 6-18 12-25 9-16 12-16 11-12 15-15 13-10 21-14 15-9 17-10 22-12 25-14 23-13 24-13 23-13 28-15 22-12 46-25 24-13 21-12 27-15 24-14 29-16 24-13 21-12 25-14 22-13 21-12 26-14 23-11 27-9 18-4z" fill="#061622"/>
<path transform="translate(572,807)" d="m0 0 4 2 3 5 4 17 8 21 8 16 8 12v15l-12 10-12 9-13 12-10 13-7 11-7 10-6 12-5 16-3 18v19l2 17 5 20 7 19 9 17 9 12 9 10 9 9 14 11 15 9 20 9 22 6 17 3h38l30-5 5-1h11l4 11 7 20 10 20 10 17 16 24 11 14 11 12 7 8 7 7 11 9 13 10 24 16 17 10 25 12 25 9 16 4 34 5h26l27-3 26-5 23-7 22-9 28-14 22-14 16-12 11-9 10-9 11-11 11-14 10-13 10-16 10-19 8-20 10-31 3-5 14 1 24 4 9 1h24l21-3 19-4 16-6 16-8 13-9 13-11 9-8 9-11 11-15 10-18 7-18 4-18 1-7v-21l-3-19-6-20-9-19-8-12-8-10-13-13-11-9-12-9-6-5 1-10 6-11 8-16 8-24 5-20 1-2 14 2 16 8 16 9 27 16 14 8 28 17 22 13 11 8 1 8v279l-2 19-5 16-7 13-9 12-12 12-18 13-28 17-25 14-26 15-21 12-26 15-24 14-14 8-15 9-29 17-20 12-29 17-20 12-26 15-23 13-24 14-52 30-32 17-22 12-20 8-26 7-22 3h-21l-22-3-20-5-24-10-19-10-24-14-25-14-22-12-69-39-20-12-48-28-53-31-26-15-15-9-25-14-24-14-25-14-23-13-19-10-25-15-13-10-9-9-11-15-8-14-4-10-3-15-1-10-1-285 2-6 10-7 29-16 18-11 20-12 39-23 14-8z" fill="#879EED"/>
<path transform="translate(1283,695)" d="m0 0h31l18 4 16 8 10 7 11 10 9 14 5 12 2 8v22l-4 18-7 20-8 16-8 13-9 11-12 12-12 9-14 8-20 9-28 10-26 8-4 1-9-11-8-10-19-19-11-9-16-12-12-8-13-8-2-1 1-6 12-23 8-16 8-14 12-19 10-13 9-10 11-10 14-10 17-10 15-6 16-4z" fill="#FBFBFC"/>
<path transform="translate(730,693)" d="m0 0h25l14 3 14 5 21 11 11 8 11 9v2h2l7 8 13 17 10 15 12 22 14 27 3 8v5l-6 4-8 7-17 12-11 8-10 8-13 12-7 8-9 10-8 5-19-2-28-7-21-7-17-8-12-8-15-13-11-14-10-17-10-25-4-16-1-7v-20l4-16 8-16 7-9 11-10 14-8 11-5 18-5z" fill="#FBFCFC"/>
<path transform="translate(823,1068)" d="m0 0h389l3 8v19l-4 33-3 15-376 1-2-2-4-18-3-19z" fill="#FABD0C"/>
<path transform="translate(820,1147)" d="m0 0h13l1 1 20 2 54 1 15-1h4 182l46 1h37l7-1 6 3v67l-1 1-21 1h-25l-7-3-51-1h-210l-5-1v2l-4 1-3 1-57 1h-1z" fill="#05191C"/>
<path transform="translate(848,993)" d="m0 0 11 3 5 2 2-1h88l49-1h55l5 1h53l23 1h31l9-1 6-2 14-1h15l1 38v20l-2 7-52 3-32 1h-45l-31 2-59-1-36-1-23-1h-35l-52-1-17-1-1-2-10 2v-66z" fill="#05191C"/>
<path transform="translate(1012,890)" d="m0 0 23 1 23 4 25 7 21 9 15 8 11 7 17 12 14 13 9 11 13 17 5 8-1 3h-336l1-5 16-24 9-10 16-16 16-12 18-10 24-11 15-5 18-4 10-2z" fill="#F9BC0C"/>
<path transform="translate(662,958)" d="m0 0h10l22 4 38 10 24 4 10 2-1 5-8 21-8 29-5 35-2 11-9 4-16 2h-38l-18-3-16-6-14-8-12-11-6-10-5-17v-21l4-13 7-12 8-9 14-10 12-5z" fill="#B9D2F3"/>
<path transform="translate(1007,685)" d="m0 0h17l16 3 16 5 17 8 10 8 8 9 5 9 1 10-5 18-8 16-8 12-8 10-9 8-10 5-11 3h-14l-18-1-17-3-12-5-9-6-7-7-10-14-8-16-5-14v-13l4-10 7-9 7-7 13-8 11-5 18-5z" fill="#F9BC0C"/>
<path transform="translate(1360,960)" d="m0 0h17l16 4 13 7 10 8 9 13 4 12v16l-4 15-8 16-7 9-10 8-16 9-15 5-17 3-13 1h-21l-18-2-2-5-3-33-4-20-11-37-2-10 32-8 27-7 16-3z" fill="#FAFBFC"/>
<path transform="translate(1374,795)" d="m0 0h7l-2 9-8 21-9 16-8 11-9 10-8 8-12 9-14 8-20 9-28 10-26 8-4 1-9-11-8-10-19-19-11-9-16-12-9-6v-1l10-2 52-15 46-13 19-5 36-9 23-4z" fill="#B9D3F3"/>
<path transform="translate(880,1225)" d="m0 0h277l-2 4-8 8-14 11-15 10-12 7-20 8-25 7-23 4h-38l-23-4-21-5-24-10-15-8-13-9-17-13-7-6-1-3z" fill="#FABD0C"/>
<path transform="translate(923,504)" d="m0 0 6 1 11 7 18 13 15 10 19 14 14 9 11 4 8-1 12-7 13-10 22-14 14-10 16-11 7-4 6 1 9 6 8 11-6 7-9 9-8 7-8 8-9 11-14 15-10 13-8 11-16-2-19-2h-22l-14 2-9 1-5-4-27-33-24-28-13-13-3-5 1-4 8-8z" fill="#879EED"/>
<path transform="translate(1492,511)" d="m0 0 4 2 9 10 11 16 5 4 31 8 10 5-1 5-6 10-14 18-6 9-1 3 1 21v18l-1 1h-7l-18-8-11-4-6-1-15 4-21 10-4-1-3-9 1-16v-15l-4-11-6-11-7-11-6-10 1-3 32-11 8-5 7-8 8-11z" fill="#FAFAFC"/>
<path transform="translate(757,400)" d="m0 0 6 1 7 10 6 11 6 8 7 5 15 5 13 4 6 5-1 7-8 10-11 12-4 8-1 4v10l2 16v12l-1 1h-9l-10-3-14-6-6-2h-9l-19 8-16 5h-4l-1-6v-23l1-12-2-9-6-11-9-14-3-6 1-4 6-4 13-4 16-4 5-5 10-13 11-14z" fill="#FAFAFC"/>
<path transform="translate(543,513)" d="m0 0h6l5 5 6 7 9 12 10 6 11 4 18 6 3 2-1 7-7 14-9 11-2 5-1 13 2 24v8l-5 1-13-4-14-5-4-1h-8l-25 9-13 3h-3l-1-4-1-30-3-12-10-15-7-10-5-10v-3l9-3 22-6 9-6 7-9 9-14z" fill="#FAFAFC"/>
<path transform="translate(1287,406)" d="m0 0 5 1 8 10 8 14 7 6 18 5 13 4 9 6 1 6-8 10-12 13-5 8-1 3v32l-1 9-10-1-25-10-8-1-28 9-5 1h-7l-1-2v-12l1-10v-17l-4-8-9-10-8-10-3-8 1-5 11-4 18-5 6-4 12-12 7-8z" fill="#FAFAFC"/>
<path transform="translate(658,812)" d="m0 0 11 3 28 8 30 8 31 9 26 6 40 7 19 3 6 4-5 5-9 7-13 12-7 8-9 10-8 5-19-2-28-7-21-7-17-8-12-8-15-13-11-14-10-17-7-17z" fill="#B9D3F3"/>
<path transform="translate(1023,305)" d="m0 0 5 3 8 10 10 13 12 6 12 4 8 5-2 5-8 12-7 12-1 9-1 29-1 3-6-1-21-9h-12l-16 7-12 3-1-1-2-38-4-7-11-10-5-9-1-5 1-2 11-4 19-6 6-4 7-8 9-14z" fill="#879EED"/>
<path transform="translate(662,958)" d="m0 0h10l22 4 38 10 16 3 1 2-7 4-10 14-7 11-4 8-6 11-4 3-17-2-21-8-18-5-10 4-22 2-7 3-3 8h-2l-1-4v-15l7-16 1-7 8-10 6-7 11-7 10-4z" fill="#FBFBFC"/>
<path transform="translate(1289,1016)" d="m0 0 2 1 6 21 8 1h19l41-2 42-3 14-2 5-3-1 6-8 16-7 9-10 8-16 9-15 5-17 3-13 1h-21l-18-2-2-5-3-33-4-20z" fill="#B9D3F3"/>
<path transform="translate(1190,571)" d="m0 0 7 4 10 8 10 9 10 11 7 3v2l-16 8-17 10-16 12-13 11-11 9-5 5-4-2-13-13-8-7-6-5 1-5 15-16 21-21 8-7 14-12z" fill="#F9BC0C"/>
<path transform="translate(843,574)" d="m0 0 9 3 9 6 21 21 7 8 9 9 7 8 4 5-1 5-11 8-3 3h-2l-2 4-6 7-5-5-14-13-16-12-15-9-29-14 1-4 11-9 10-10 14-10z" fill="#F9BC0D"/>
<path transform="translate(1142,323)" d="m0 0h9l9 4 5 5 4 6 1 3v8l-5 10-7 6-8 2h-7l-9-3-6-7-3-7v-8l5-10 5-6z" fill="#F6F7FC"/>
<path transform="translate(899,326)" d="m0 0 9 1 6 4 6 7 2 5v11l-6 8-11 5h-10l-5-3-5-6-2-5v-12l4-8 8-6z" fill="#F3F6FB"/>
<path transform="translate(1296,1046)" d="m0 0h1l3 30 1 5 20 2h25l18-1v1l-12 2-13 1h-21l-18-2-2-5-2-24z" fill="#879EED"/>
<path transform="translate(1303,888)" d="m0 0 3 1-15 7-28 10-26 8-4 1-3-3 1-2 3 2 42-13 16-6z" fill="#879EED"/>
<path transform="translate(627,975)" d="m0 0 2 1-8 9-2 3-2 9-5 11-3 1 1-8 7-14 8-10z" fill="#ABC4F1"/>
<path transform="translate(754,977)" d="m0 0h10l2 1v3l-5 1-7-3z" fill="#E8EDFA"/>
<path transform="translate(688,1959)" d="m0 0h8v1h-8z" fill="#B6CCF3"/>
<path transform="translate(697,1959)" d="m0 0 4 1z" fill="#CFDBF6"/>
<path transform="translate(705,1959)" d="m0 0" fill="#FDFDFD"/>
</svg>
