<?xml version="1.0" encoding="UTF-8"?>
<svg version="1.1" viewBox="0 0 2048 2048" width="1280" height="1280" xmlns="http://www.w3.org/2000/svg">
<path transform="translate(1e3 88)" d="m0 0h37l26 3 29 7 25 10 28 14 23 13 22 12 24 14 24 13 25 15 18 10 17 10 18 10 25 14 22 12 39 22 27 15 25 14 23 13 27 15 21 12 18 10 25 14 24 14 27 14 17 10 15 9 19 14 12 11 12 12 9 11 11 16 9 16 10 21 6 16 6 25 2 12 1 19v603l-1 23-5 30-6 21-9 21-14 25-12 17-10 13-15 16-14 12-18 12-24 15-24 13-21 12-24 13-27 15-24 14-46 25-25 14-8 6-1 6-1 28v330l-1 41-4 16-6 11-9 10-8 7-12 5-9 3-10 2h-13l-11-3-15-6-17-9-11-7-12-5-44-22-10-6-11-6-23-12-28-14-5-4-16-8-11-6-8-5-15-8-8-5-24-13-8-5-15-8-3-2v-2l-8-1-9-6-12-6-9-1-23 11-23 13-25 13-8 5-24 13-8 5-16 9-12 6-10 4-11 6-7 4-5 2-7 4-16 8-5 2-14 9-3 2-6 2-8 7-9 3-5 4-8 2-13 6-14 7-17 10-12 6-9 2-7 2h-17l-15-5-13-8-8-8-8-13-4-11-2-10-1-35v-364l-27-15-17-10-25-14-21-12-22-12-56-30-46-26-19-11-18-12-10-8-10-10-9-11-15-20-14-24-7-16-6-17-5-19-3-16-1-11v-649l5-27 9-27 9-19 13-22 13-18 15-16 12-11 17-12 22-13 24-14 25-13 23-13 27-15 24-13 18-10 29-16 32-17 14-8 24-13 24-14 26-14 16-9 27-15 17-10 26-15 26-14 18-10 22-12 18-10 29-16 17-9 28-12 26-8 12-3z" fill="#051520"/>
<path transform="translate(1293,1564)" d="m0 0 3 1 1 99v269l-7-2-48-24-10-6-11-6-23-12-28-14-5-4-16-8-11-6-8-5-15-8-8-5-24-13-8-5-15-8-3-2v-2l-8-1-9-6-12-6-9-1-23 11-23 13-25 13-8 5-24 13-8 5-16 9-12 6-10 4-11 6-7 4-5 2-7 4-16 8-5 2-14 9-3 2-6 2-8 7-9 3-5 4-8 2-13 6-2-1 4-5 1-27-1-146v-108l1-77 6 2 22 12 12 7 11 6 23 12 16 9 12 7 11 6 17 9 23 13 26 14 18 10 23 12 12 4 23 3h22l19-3 17-6 24-11 36-18 44-24 29-16 32-17 23-13 25-13z" fill="#EDA80D"/>
<path transform="translate(615,571)" d="m0 0h27l22 3 19 5 19 7 16 8 18 10 18 13 14 12 20 18 7 7 9 11 14 18 13 18 12 19 8 13 14 25 12 23 5 11-2 4-10 8-24 16-7 7-8 7-14 12-9 9-14 19-11 17-5 8h-12l-49-7-34-7-34-9-32-11-24-11-21-12-14-10-15-13-12-13-10-13-9-14-8-16-8-22-6-23-2-14v-10l3-19 4-16 6-15 10-17 9-11 12-12 13-10 21-11 21-7 19-4z" fill="#FCFCFC"/>
<path transform="translate(1409,573)" d="m0 0h24l20 3 20 6 16 7 14 8 14 11 17 17 9 13 9 17 5 17 2 16v21l-3 21-9 27-8 17-7 11-10 14-9 11-11 12-10 9-18 12-23 12-27 11-24 8-28 7-40 7-50 7h-8l-8-11-10-14-9-11-12-13-8-7-10-9-14-11-5-4v-2l-5-2-15-11-13-9-4-2 1-5 9-11 15-22 12-19 15-24 14-21 9-12 14-18 15-16 14-13 14-11 16-11 17-10 17-8 20-7 21-5 13-2z" fill="#FCFCFC"/>
<path transform="translate(1293,1642)" d="m0 0 2 1v287l2 1v2l-7-2-48-24-10-6-11-6-23-12-28-14-5-4-16-8-11-6-8-5-15-8-8-5-24-13-8-5-15-8-3-2v-2l-8-1-7-5 1-4 13-4 16-7 20-10 21-12 15-8 11-6 12-6 19-10 15-8 18-10 17-10 14-7 17-9 11-6 24-12 4-8 1-16z" fill="#FCBE06"/>
<path transform="translate(758,1664)" d="m0 0 4 1v2l5 2 5 4 11 6 18 10 17 10 19 9 20 11 16 8 15 9 11 6 14 8 15 9 16 9 27 14 16 6 5 1h8l8-1 2 2v3l-23 12-16 9-23 12-8 5-24 13-8 5-16 9-12 6-10 4-11 6-7 4-5 2-7 4-16 8-5 2-14 9-3 2-6 2-8 7-9 3-5 4-8 2-13 6-2-1 5-5 2 1-1-7z" fill="#FCBE06"/>
<path transform="translate(1232,1069)" d="m0 0h40l1 16v54l-23 1-49 1-3-1v-2l-239-1h-42l-49 1-10-1h-2l-6 3h-22l-2-1v-63l6-3 5 1h11l-6-1 1-2 9 1 29-1h19l132 2 69-1h78l27-1h14l6-1 6 1z" fill="#05191C"/>
<path transform="translate(839,938)" d="m0 0 16 1-2 2-11 1 8 1 4 5v4l8 2h3v-4l-3-2-6-2 2-1 1-2 2 2h16l6 1h10l-1-1h-5v-2h24l8-1h25l40 1h130l33-1 28 1 16-2-1 2-13 3 11-1h10l-1-3 7-3h65v70l-10 1h-29l-12-2h-343v-1h-32l-9-1 1-3-5-1-4-2v-49h1l2 10 4 1 1-7-1-6-3-1 1-4h5l-1-2-3-2z" fill="#05191C"/>
<path transform="translate(1019,592)" d="m0 0h20l16 3 20 7 17 9 9 7 9 8 9 13 6 13 3 12 1 9v11l-3 16-7 17-12 18-12 13h-2v2l-6 5-21 3h-70l-8-2-12-2-14-7-13-12-9-11-9-16-6-18v-20l4-16 8-16 10-13 13-11 13-8 17-8 14-4z" fill="#FCBE06"/>
<path transform="translate(577,950)" d="m0 0h29l23 3 42 8 34 5 21 2 17 1-1 14-4 25-1 10-1 59-9 2-58 7-11 1h-43l-24-4-18-5-17-8-12-9-8-8-9-14-5-12-3-15 1-13 4-13 6-10 11-11 14-9 16-5z" fill="#AFCDF1"/>
<path transform="translate(1449,949)" d="m0 0h19l13 2 12 5 11 7 10 9 9 12 6 12 2 11v10l-3 15-7 14-8 9-14 11-14 8-11 5-16 5-24 4-13 1h-23l-37-4-38-5-5-2-1-51-2-20-6-33v-4l14-2 37-5 37-6 32-6z" fill="#AFCDF1"/>
<path transform="translate(852,1143)" d="m0 0h350l-2 5-9 13-14 15-14 14-16 11-24 13-19 9-27 8-23 4-9 1h-50l-10-2-18-3-22-7-12-5-24-14-13-9-10-8-17-17-15-20-2-4z" fill="#FCBE06"/>
<path transform="translate(1025,841)" d="m0 0h14l24 2 21 5 20 7 21 10 16 10 20 14 15 14 12 13 11 15 1 4h-344l1-4 10-14 10-12 11-9 12-10 18-13 22-12 20-8 19-6 20-4z" fill="#FCBE06"/>
<path transform="translate(490,679)" d="m0 0h1v28l3 12 4 6 9 8 16 12 18 11 27 13 38 14 20 7 34 13 38 13 29 9 35 11h6l6-5 4-6 5-6 5-3 21-5 8-4 2-6 5 1 15 9 3 2 11 1-3 3-8 7-12 11-11 9-11 11-14 19-11 17-5 8h-12l-49-7-34-7-34-9-32-11-24-11-21-12-14-10-15-13-12-13-10-13-9-14-8-16-8-22-6-23-2-14v-10z" fill="#B0CEF1"/>
<path transform="translate(827,1013)" d="m0 0h401l3 2 1 3v31l-2 15-1 1-405 1-1-1v-48l1-3z" fill="#FCBE06"/>
<path transform="translate(1552,737)" d="m0 0 1 3-7 19-8 16-6 10-10 14-9 11-11 12-10 9-18 12-23 12-27 11-24 8-28 7-40 7-50 7h-8l-8-11-10-14-9-11-12-13-8-7-10-9 3-1 12 11 3 2v2l8 1 28-6 42-11 36-11 49-16 26-8 38-12 21-8 20-9 16-8 11-6 11-7z" fill="#B0CEF1"/>
<path transform="translate(1323,725)" d="m0 0h5v2h13l16 6 9 2 10 8-2 4-13 6-9 3-13 6-1 2 18-1 1 5h7l3 3 4-1 13 4 10 4 14 4 2 4-1 4h-3v2l-3 3 11 1-3 2-32 10-36 12-41 12-34 9-25 5h-5l-3-2v-2l-4-2-7-6v-2l-9-3-9-8-8-6v-2l-5-2-2-3 5-2 9-8 19-14 15-11 18-11 11-6 23-12 13-8 14-9z" fill="#DBEAF7"/>
<path transform="translate(648,452)" d="m0 0h19l22 2 23 5 36 12 23 10 22 12 23 13 19 12 17 12 14 11 14 12 10 11-1 5-10 13-11 13-5 6-5-1-13-11-15-15-8-7-14-12-14-10-15-10-16-9-19-10-23-9-20-6-23-4-33-2h-7l-16-2-12-5-12-11-4-4 1-5 5-4 14-6 15-4z" fill="#86A0EA"/>
<path transform="translate(1372,451)" d="m0 0h38l20 4 13 5 8 6 2 3-1 7-7 7-11 5-15 4-13 2-40 3-25 5-24 8-23 10-25 14-19 12-17 13-15 13-10 9-8 8-9 7-3-1-6-12-7-9-6-7-5-5-1-4 4-5 12-9 11-9 19-14 20-14 16-10 24-13 26-12 29-11 22-6 17-3z" fill="#86A0EA"/>
<path transform="translate(577,950)" d="m0 0h29l23 3 42 8 34 5 21 2 17 1-1 14-3 18h-2l-1 7-24 6-25 4-19 2-118 1h-29l-2-9 1-13 4-13 6-10 11-11 14-9 16-5z" fill="#FAFBFC"/>
<path transform="translate(1449,949)" d="m0 0h19l13 2 12 5 11 7 10 9 9 12 6 12v14l-6 2-34 1h-33l-103 3-22 1h-14l-2-10-6-33v-4l14-2 37-5 37-6 32-6z" fill="#FAFBFC"/>
<path transform="translate(843,357)" d="m0 0 8 1 22 11 24 14 19 12 14 11 10 9 8 7 11 11 9 11 13 16 14 19 10 13 8 8-4 3-16 8-9 7-11 11-8-13-10-16-8-10-9-10-9-11-12-13-8-7-9-8-16-12-18-11-17-8-24-10-10-6-3-4 2-5 7-8 15-15z" fill="#86A0EA"/>
<path transform="translate(1203,362)" d="m0 0h7l8 7 9 10 10 13 2 5-11 5-35 12-19 10-15 10-12 9-14 12-13 13-10 13-11 16-13 20-7 11-4-1-7-9-5-6-10-7-12-6 1-5 12-16 12-14 11-13 8-10 22-22 16-12 15-11 21-13 26-14z" fill="#86A0EA"/>
<path transform="translate(727,738)" d="m0 0 10 4 22 12 21 13 16 11 21 16 16 12-2 1-9-5h-3l-2 6-8 4-21 5-5 2-2 4-5 6-8 8h-6l-29-9-35-11-30-10 4-2-2-5-3-6-1-1 1-7 2-9h2l2-6 8-6 9-6 7-1 2-4 7-3 8-2 7-5 5-5z" fill="#DCEBF8"/>
<path transform="translate(1023,1392)" d="m0 0 4 2 12 23 7 12 27 3 8 4 2 2-1 5-11 14-11 11-3 6v38l-7-1-18-6-9-1-11 1-20 7h-7l1-18 1-5v-16l-6-8-15-15-6-10 2-4 18-5 20-4 12-22 6-9h2l1-3z" fill="#86A0EA"/>
<path transform="translate(1024,259)" d="m0 0 5 1 9 9 9 12 5 7 11 4 13 3 6 4 3 3-1 5-5 6-5 5-7 8-5 10-1 27-2 3-7-1-15-6-7-2-9 1-17 6h-6l-3-7-1-25-3-9-6-8-10-8-3-5v-8l3-3 28-9 6-4 11-16z" fill="#86A0EA"/>
<path transform="translate(526,1184)" d="m0 0 4 2 7 7 10 14 3 3 26 8 9 5-1 6-7 11-10 12-2 3v37l-3 1-27-9-10 1-22 7h-5l-2-5-1-26-4-9-7-9-6-10-3-8 1-6 3-2 5-1h13l10-5 10-9 8-15z" fill="#86A0EA"/>
<path transform="translate(1513,1183)" d="m0 0 5 1 7 8 10 14 5 5 18 4 10 5 3 2-1 5-8 11-9 9h-2l-2 5-1 2v14l1 8v11l-1 2h-6l-17-7-8-2-8 1-24 8-6 1v-38l-4-8-7-10-4-10 1-4 10-5 15-6 8-8 9-12 5-5z" fill="#86A0EA"/>
<path transform="translate(750,1297)" d="m0 0 5 2 11 16 8 7 16 8 14 6 3 4-19 19-4 6-1 10-1 23-2 3-9-1-19-7h-9l-28 9h-3l1-21v-15l-6-10-7-10-4-10 1-3 7-3 14-3 14-7 7-7 7-12z" fill="#86A0EA"/>
<path transform="translate(1295,1299)" d="m0 0h6l10 18 7 7 10 5 18 6 5 5-2 5-15 14-5 6-1 2-1 36-5 1-21-8-7-1-17 4-9 3h-5l-2-2 1-18v-16l-4-5-8-7-6-7-3-6 1-5 3-1 12-1 12-6 11-10 7-10 6-8z" fill="#86A0EA"/>
<path transform="translate(839,938)" d="m0 0 16 1-2 2-11 1 8 1 4 5v4l8 2h3v-4l-3-2-6-2 2-1 1-2 2 2h16l6 1h10l-1-1h-5v-2h24l8-1h25l40 1h130l33-1 28 1 16-2-1 2-14 3-5 5h2v5h-5v-5l-4 1-5-1-4 3-5-1-1-3 1-3h-36l-7-1h-178l1 3 10 2 10 1v2h-13l-4-1h-41l-8-2-1 2 2 1v2l5 2 1 3-6 2-5-3h-6l-2 4-5 1-1 3-4 1-5-1-3-1-1-4-5-2-6 1v7h-3l-3 12 1 5h2l-2 7h3v6l4 2h5l-2-4 8-4h2l1-2v2l7-1 1-1h5v2l3-1-1-4 6-1 1 2-1 4h4l2-5 12-1 3 2-2 4 5 1 7-1 8 1 1-1-15-1-2-4 4-1h15l9 1 1 2-7 4 17 3h37l21-2h46l9 1 14 1v2l6-2v2h11v1l-16 1h-17l-12 2h-14l-7-1-3 1h200l11 2 4 2 1 3-14-2h-343v-1h-32l-9-1 1-3-5-1-4-2v-49h1l2 10 4 1 1-7-1-6-3-1 1-4h5l-1-2-3-2z" fill="#07181D"/>
<path transform="translate(751,1177)" d="m0 0 3 1 5 9 10 17 9 16 6 12-9 3-16 6-21 11-7 3-6-8-11-20-10-15-6-8v-2l23-10 18-8z" fill="#86A0EA"/>
<path transform="translate(832,1073)" d="m0 0 15 2-4 2h-2l2 6-4 2v2h-3l3 8-2 6h-1v-6l-2 6v4h2l-1 8 3 3 2 6-1 2 1 5h6l-3 3 1 3 9-1v-2l4-1 31 1-1-4 6-2h7l5-1h43l24 1 13 1 15 1 10 1v1l18 1 5 1h21l2-1h8v2l9-1h62l20-1 4 2v-2h2l1 1v-1h14v2h18l6 2 1 4-3 1v-2l-239-1h-42l-49 1-10-1h-2l-6 3h-22l-2-1v-63z" fill="#07181D"/>
<path transform="translate(1296,1177)" d="m0 0 5 2 11 9 25 16 11 8 2 4-9 15-8 11-7 9-4-1-15-8-18-11-14-8-3-1 2-6 7-13 8-13z" fill="#86A0EA"/>
<path transform="translate(1583,855)" d="m0 0 9 6 18 18 1 4-6 11-10 14-6 13-7-6-16-12-13-11-6-5 3-3 9-5 9-8 9-11z" fill="#86A0EA"/>
<path transform="translate(462,859)" d="m0 0 5 1 11 8 11 9 10 8-3 3-16 9-10 9-11 15-4 1v-2l-4 2-2-2-7-21-7-14v-5l13-10 12-9z" fill="#86A0EA"/>
<path transform="translate(1204,939)" d="m0 0h65v39l-2-3-1-2-4 1-7 2-5-4v-2l-9-1-5-2-2-4-5 1-4-2-1-5-5 1-5-1 1-3 6-1 1-3 7-4-1-1-3 2-2 1-1-2-5-1v2l-10-2-3 1-1 4h-7v-2l-6-1-2-2h10l-1-3z" fill="#07181D"/>
<path transform="translate(1057,1803)" d="m0 0 16 8 17 9 21 12 19 11 27 15 28 14 46 25 23 13 38 19 5 2v2l-7-2-48-24-10-6-11-6-23-12-28-14-5-4-16-8-11-6-8-5-15-8-8-5-24-13-8-5-15-8-3-2z" fill="#FDFDFD"/>
<path transform="translate(1243,1069)" d="m0 0h29l1 16-2 2h-3l1 7-9-1-4-2-2-7 2-5 1-3 4-1v-2l-10 2 1 3-4-2h-5l-1 2-5-2 4-6z" fill="#07181D"/>
<path transform="translate(842,1071)" d="m0 0 10 1 29-1h19l55 1 3 2-27 1-5-1h-26l-13 1-9 1 8 1-3 2h-9l-17 4-7-1-3-2v-2l2-1-1-3-6-1z" fill="#07181D"/>
<path transform="translate(758,1568)" d="m0 0 9 2 19 10 10 6 11 6 23 12 16 9 4 4-2 1-5-2v-2l-6-2-8-4-10-6-12-6-16-9-12-6-11-7h-8l-1 2-2-3z" fill="#F2B411"/>
<path transform="translate(1241,794)" d="m0 0h2v2l-26 17-7 6 1 5-4-2-9-7v-2l-5-2-2-3 6 1v-2l5-3 4-3h5v3l-5 5-1 5 8-4 9-6 13-7z" fill="#ADCBF1"/>
<path transform="translate(1232,1069)" d="m0 0h8l-4 4h-2v2l-12 1v-2l-14 1h-37l-3-1h-23v-2h34l27-1h14l6-1 6 1z" fill="#08181E"/>
<path transform="translate(957,1819)" d="m0 0 2 1-12 7-22 12-10 6-16 9-10 6-9 4-10 4-11 6-7 4-4-1 27-14 20-10 23-13 28-15z" fill="#FDFDFD"/>
<path transform="translate(820,1891)" d="m0 0 2 1-11 7-9 6-6 2-8 7-9 3-5 4-8 2-13 6-2-1 5-5 7-2 19-10 16-8z" fill="#F9F9FC"/>
<path transform="translate(1057,1803)" d="m0 0 16 8 17 9 21 12 19 11 6 4-2 1-19-10-8-5-24-13-8-5-15-8-3-2z" fill="#FDFDFD"/>
<path transform="translate(1224,1894)" d="m0 0 16 8 18 10 34 17 5 2v2l-7-2-48-24-10-6-8-5z" fill="#FBFCFC"/>
<path transform="translate(490,679)" d="m0 0h1v28l3 15v9l-2-4-3-14-1-9v-10z" fill="#94AFEC"/>
<path transform="translate(940 1e3)" d="m0 0h10l2 1 11 1v1l-18 1h-13l-3-2z" fill="#051A1C"/>
<path transform="translate(826,1604)" d="m0 0 11 4 12 7 1 3-7-2v-2l-6-2-8-4-3-2z" fill="#F8B708"/>
<path transform="translate(806,1594)" d="m0 0 7 1 18 10-2 1-7-2-16-9z" fill="#F4B50F"/>
<path transform="translate(603,456)" d="m0 0h5v3l-11 6-2-1v-4z" fill="#08181E"/>
<path transform="translate(846,1878)" d="m0 0 2 1-5 4-16 8-3 1-2-2 16-8z" fill="#FDFDFD"/>
<path transform="translate(820,1891)" d="m0 0 2 1-11 7-9 6h-5l4-4z" fill="#FDFDFD"/>
<path transform="translate(1020,1785)" d="m0 0 6 1 16 9-2 1-12-6-9-1-3-1z" fill="#FDFDFD"/>
<path transform="translate(758,1568)" d="m0 0 9 2 1 3-5 1h-3l-1 2-2-3z" fill="#FBBD06"/>
<path transform="translate(1217,829)" d="m0 0 4 1 10 9 4 3v3l-4-2-14-13z" fill="#A1BEEF"/>
<path transform="translate(943,1669)" d="m0 0 6 1 11 6 1 3-6-2-12-7z" fill="#F6B409"/>
<path transform="translate(852,1619)" d="m0 0 9 2 9 6v2l-5-2-12-6z" fill="#F6B509"/>
<path transform="translate(956,617)" d="m0 0 2 1-16 16v-3l8-9z" fill="#E3AF2C"/>
<path transform="translate(1180,722)" d="m0 0v3l-5 5-4-2 1-3z" fill="#08181E"/>
<path transform="translate(815,1063)" d="m0 0 2 1v4h2l-1 4h-3l-2-3 1-4z" fill="#07171E"/>
<path transform="translate(1435,453)" d="m0 0 8 1 3 2-1 3-11-4z" fill="#08181E"/>
<path transform="translate(818,1599)" d="m0 0 6 2 7 4-2 1-7-2-4-4z" fill="#F0B012"/>
<path transform="translate(840,1611)" d="m0 0 6 2 4 4-2 1-5-2v-2h-2z" fill="#F5B309"/>
<path transform="translate(887,969)" d="m0 0 5 1 1 4-7-1z" fill="#08181E"/>
</svg>
