<?xml version="1.0" encoding="UTF-8"?>
<svg version="1.1" viewBox="0 0 2048 2048" width="1280" height="1280" xmlns="http://www.w3.org/2000/svg">
<path transform="translate(997,88)" d="m0 0h49l27 4 20 5 24 10 22 11 21 12 23 13 28 16 18 10 16 9 46 26 24 13 44 24 23 13 24 13 16 9 24 13 18 10 26 14 23 13 24 13 28 15 22 12 23 12 23 13 24 16 16 13 10 9 7 7 11 14 10 15 9 16 10 21 10 30 4 20 1 9v642l-3 27-5 22-8 24-14 29-12 18-10 13-20 20-18 13-25 15-26 15-27 15-24 14-79 44-23 13-21 13-1 1-1 408-2 10-6 13-7 10-7 7-13 8-14 5h-23l-13-5-17-9-23-14-5-4-2-6h-5l-5-3-11-6-3-3-16-8-19-10-3-3-7-3-40-20-4-4-19-9-17-9-12-6-3-3-40-20-4-4-19-9-6-5-6-3-5-4-7-4-10-6-7-1-70 35-11 7-28 14-18 10-22 12-13 7-14 8-18 10-16 9-15 9-17 9-21 12-7 3-3 5-8 7-24 14-15 7-14 3h-14l-13-3-13-7-12-11-7-10-5-14-2-18-1-29-1-367-23-13-22-12-18-10-44-24-24-14-28-15-23-13-26-15-18-12-10-8-13-11-10-10-9-11-10-13-10-15-12-22-9-22-5-17-3-14-3-22-1-18v-591l1-38 5-28 6-21 8-19 8-15 10-16 10-13 7-9 10-11 7-8 7-7 17-13 24-14 28-15 23-13 28-15 14-8 25-14 26-14 21-12 19-11 54-30 24-13 16-9 20-11 22-12 23-12 23-13 25-14 10-6 23-13 24-13 24-14 29-15 15-7 30-10 14-3z" fill="#071621"/>
<path transform="translate(755,1567)" d="m0 0 5 2 17 10 15 9 28 16 17 10 18 10 27 16 25 14 18 11 19 11 26 14 13 6 17 5 11 2h20l15-3 18-6 29-14 22-12 21-12 34-18 18-10 21-12 30-18 17-10 18-10 22-11 1 7 1 99v253l-2-4h-5l-5-3-11-6-3-3-16-8-19-10-3-3-7-3-40-20-4-4-19-9-17-9-12-6-3-3-40-20-4-4-19-9-6-5-6-3-5-4-7-4-10-6-7-1-70 35-11 7-28 14-18 10-22 12-13 7-14 8-18 10-16 9-15 9-17 9-21 12-7 3-2 4-1-4-1-30v-282z" fill="#718DDE"/>
<path transform="translate(1335,648)" d="m0 0h40l18 3 18 6 14 7 11 8 10 9 8 9 8 15 6 21 1 6v22l-5 23-6 20-6 15-7 13-8 11-11 13-15 12-15 10-23 11-26 8-39 9-45 8-5-1-10-9-23-23-16-12-16-13-17-11-22-12 3-5 8-13 15-29 12-21 14-21 14-19 13-15 7-7 8-7 13-10 20-12 16-8 19-7 12-3z" fill="#FDFDFD"/>
<path transform="translate(678,648)" d="m0 0h20l17 2 18 4 20 7 25 12 16 10 11 9 10 9 8 7 11 11 9 11 11 15 10 16 11 19 10 21 9 22-1 4-10 7-24 13-30 20-14 10-7 7-7 8-9 10-6 5-14-1-29-5-35-9-25-9-18-8-15-9-16-12-10-9-9-9-9-13-8-15-6-17-6-22-2-17v-22l3-15 5-13 7-11 14-15 13-10 17-9 18-6z" fill="#FCFDFD"/>
<path transform="translate(820,1062)" d="m0 0h133l274 1 2 2v48l-1 18-2 6-5 2-14 1-341 1h-45l-2-1-2-11v-44l1-20z" fill="#F8BC0E"/>
<path transform="translate(757,1585)" d="m0 0 2 3v11l1 5-1 17v24l-1 6v14l1 2-1 6 6 7 11 7 11 6 18 10 23 13 17 10 26 14 27 14 15 8 16 8 19 10 19 9 11 4 11 5-4 3-26 13-11 7-28 14-18 10-22 12-13 7-14 8-18 10-16 9-15 9-17 9-21 12-8 3-1-29-1-198 1-108z" fill="#84A1EC"/>
<path transform="translate(1294,1672)" d="m0 0 2 2v248h-5l-5-3-11-6-3-3-16-8-19-10-3-3-7-3-40-20-4-4-19-9-17-9-12-6-3-3-40-20-4-4-19-9-1-2 7-3 16-8 22-12 24-14 28-16 23-13 16-8 19-10 14-7 14-8 10-5 15-8 14-8 3-7z" fill="#84A1EC"/>
<path transform="translate(1468,736)" d="m0 0h1v18l-5 23-6 20-6 15-7 13-8 11-11 13-15 12-15 10-23 11-26 8-39 9-45 8-5-1-10-9-23-23-16-12-16-13-17-11-17-9 4-4 7-3 4 1 5 4 7-1 18-8 15-9 18-12 17-12 18-13 12-9 20-13 14-7 9-1 11 6 8 6 5 8 8 7 2 11 4 5 10 2 10 4 10 6 6 4-1 3-9 4-4 3-8 3-7 4-15 5h-3l1 3 16-4 24-8 10-4 8-2 16-9 17-17 11-16 4-6 3-3h2z" fill="#DFECF7"/>
<path transform="translate(609,949)" d="m0 0h21l22 3 78 17 20 4 2 1-1 7-6 21-7 21-4 20-2 17-2 28-19 2h-42l-19-2-26-5-20-6-14-7-10-8-10-9-10-14-5-11-3-11v-23l4-11 8-11 7-7 13-9 13-5z" fill="#FCFCFD"/>
<path transform="translate(1014,883)" d="m0 0h18l26 3 23 5 24 8 25 12 12 8 16 12 13 11 10 10 9 12 3 6-1 4h-341l6-10 9-11 23-23 13-9 21-12 16-8 17-7 27-7 18-3z" fill="#F8BD0F"/>
<path transform="translate(851,1225)" d="m0 0h124l160 1 55 1 1 2-9 14-11 13-10 9-17 13-21 13-21 10-24 8-22 5-26 3h-12l-27-3-27-6-24-8-23-11-12-8-11-9-10-9-6-5-7-8-10-11-8-10z" fill="#F8BD0E"/>
<path transform="translate(1418,946)" d="m0 0h20l13 3 12 6 12 11 6 7 8 16 2 9v10l-2 15-5 13-6 10-10 12-11 9-10 6-21 8-21 5-29 3-18 1-38 1-1-1-2-22-5-29-6-23-9-29-4-8-1-3 29-5 28-7 35-10 23-6z" fill="#FBFCFD"/>
<path transform="translate(1017,665)" d="m0 0h31l18 4 16 8 9 7 10 12 7 14 3 11v17l-3 11-4 9-6 9-7 8-13 9-12 5-16 4-17 2h-30l-16-4-14-6-8-6-7-7-10-17-4-12v-14l5-19 7-13 11-11 17-10 14-6 13-4z" fill="#F8BC0E"/>
<path transform="translate(586,760)" d="m0 0 3 3 4 6 5 6 15 10 29 15 34 16 35 15 27 9 21 6 29 9 12 3 10 1 8-3 11-7 2-5-9-8-5-3v-2l-6-2-10-4-10-5-1-3 1-7 6-2 11-1 5 3 5 4 6 3 3 3 11 1 2-1 9 1 11 5 12 6 2 4 3 1-18 10-30 20-14 10-7 7-7 8-9 10-6 5-14-1-29-5-35-9-25-9-18-8-15-9-16-12-10-9-9-9-9-13-8-15-6-17-6-22z" fill="#B3CFF2"/>
<path transform="translate(706,739)" d="m0 0h16l21 9 16 8 17 9 21 14 19 14 16 12 13 9 17 10 14 6 5 2 3 1-5 3-6 1-1-4-16-8-10-4h-6l-2 1-11-1-6-5-7-4-3-3-6-1-13 2-1 9 10 5 12 5 4 2v2l5 2 10 9-2 5-10 7-6 3-6 1-16-3-31-9-19-6-23-7-20-8-29-13-34-16-17-9 2-1 19 9 4-1 2-4-1-8 4-6 7-6 11-9 10-6 14-7 13-10z" fill="#DFECF7"/>
<path transform="translate(1020,260)" d="m0 0 4 1 8 11 9 15 10 11 15 4 24 5 13 5 3 2-1 5-6 8-11 13-11 16-3 7-1 12v34l-3 3-8-1-11-6-9-4-19-7h-8l-13 5-23 11h-4l1-17 1-10v-24l-4-12-8-9-5-4-12-16 2-6 5-5 10-5 26-8 8-5 8-11 9-13z" fill="#F6D35A"/>
<path transform="translate(1468,736)" d="m0 0h1v18l-5 23-6 20-6 15-7 13-8 11-11 13-15 12-15 10-23 11-26 8-39 9-45 8-5-1-10-9-23-23-16-12-16-13-17-11 4-3 4-1v-2l4-2 6 2v3h9l10 5 7 2 5 6-1 5-5 9 2 5 5 2 9-4 30-11 28-9 73-20 33-11 20-9 14-9 7-8 9-10 9-14 6-7h2z" fill="#B3CFF2"/>
<path transform="translate(1490,998)" d="m0 0h1v10l-2 15-5 13-6 10-10 12-11 9-10 6-21 8-21 5-29 3-18 1-38 1-1-1-2-22-5-29-1-8 2 2 1 7 36-12 22-7 30-7 28-5 16-1 22-1 18-1 3-1z" fill="#B3CFF2"/>
<path transform="translate(1125,495)" d="m0 0 6 1 11 7 8 7v2l3 1v2l-5 1-11 7-16 12-14 12-12 11-8 8-18 24-6 1-16-4-7-1h-24l-18 3-14 3-11-16-10-13-11-12-14-13-14-11-17-13 2-5 9-7 9-5 10 1 15 6 19 10 19 12 14 10 10 8 10 4h11l12-6 22-15 21-14 20-12 11-5z" fill="#83A0EB"/>
<path transform="translate(552,1009)" d="m0 0 2 1 24 2 18 4 14 7 16 12v2l4 2 7 5 5-1h11l5 1h21l15-3 10-4 2-8 11-6 14-6h3 5l-5 26-2 17-2 28-19 2h-42l-19-2-26-5-20-6-14-7-10-8-10-9-10-14-5-11-3-11z" fill="#B2CEF2"/>
<path transform="translate(1527,1150)" d="m0 0 4 2 9 12 10 14 8 4 20 6 13 7-1 5-9 11-9 10-4 5-3 8-1 18 1 10-1 8-3 2-9-1-18-6-8-2-10 1-22 6h-6l-1-1v-10l3-25v-7l-5-8-14-14-8-12 3-2 19-5 15-5 8-4 9-12z" fill="#F8BD0E"/>
<path transform="translate(525,1147)" d="m0 0 6 5 13 21 4 4v2l4 2 5 3 26 7 7 5-2 5-8 9-7 11-6 7-2 4v16l2 10v12l-5 1-13-4-14-6h-7l-19 5-18 7h-4l2-21 1-7v-16l-11-12-8-13-3-7v-5l8-3 24-8 5-4 13-21z" fill="#F8BC0E"/>
<path transform="translate(1371,430)" d="m0 0 4 1 8 13 10 16 6 4 29 10 6 4-2 5-11 14-9 10-3 5v36l-2 2-14-7-7-3-9-2h-7l-13 5-17 7-7 1-1-3v-27l2-10-6-10-10-14-9-11-3-2 1-3 36-12 8-3 8-11 7-10z" fill="#F8BC0E"/>
<path transform="translate(672,434)" d="m0 0 4 1 16 22 9 7 10 4 17 5 9 5-2 6-9 11-14 14-2 7v25l-1 8-6-1-16-8-9-4h-7l-13 4-17 8-4-1v-22l2-7v-6l-8-11-15-20-2-4 8-3 25-7 6-4 13-20z" fill="#F8BC0E"/>
<path transform="translate(760,1302)" d="m0 0 5 1 6 7 10 17 2 4 5 2 26 7 4 2 1 5-4 7-5 5-8 10-7 16 1 5 2 7v9l-4 6-4 1-11-4-13-5-8-1-13 5-10 4-4 1h-7v-18l2-12v-6l-7-9-17-17 1-6 10-6 28-8 5-5z" fill="#F8BC0E"/>
<path transform="translate(1214,330)" d="m0 0 4 2 9 14 8 12 7 5 15 4 17 4-1 4-11 12-9 11-4 5v13l2 12v13l-2 4-9-1-26-12-3-2-6 1-14 8-12 5h-4l1-9 4-19 1-11-4-7-9-11-7-13 1-5 7-3 20-3 5-4 10-16z" fill="#F8BC0E"/>
<path transform="translate(1285,1298)" d="m0 0 5 3 11 14 9 11 10 4 16 4 10 3 1 4-9 15-11 12-2 4-1 6-1 23-2 5-5 1-8-4-2-2-11 1-2-1-9 1-12 3-15 6h-2l-1-34-7-14-9-12-2-5 15-6 13-9 7-8 8-13z" fill="#F8BC0E"/>
<path transform="translate(831,337)" d="m0 0 7 6 11 19 4 4 17 4 9 4 5 4-2 5-11 13-7 9-1 9 1 26-2 1-25-8-8-1-12 5-10 6-7 2h-4l1-21 1-10v-9l-15-14-5-8-1-5 5-5 10-4 21-5 8-16 8-10z" fill="#F8BC0E"/>
<path transform="translate(1018,1467)" d="m0 0h5l6 5 8 13 4 6 14 7 19 6-1 4-13 18-5 8-2 6v30h-6l-18-6-10-1-24 7h-3l-2-9-1-25-7-8-13-13-3-9 4-4 13-3 13-4 8-5 6-10 6-11z" fill="#F8BC0E"/>
<path transform="translate(1545,540)" d="m0 0 4 2 7 8 9 13 8 7 18 6 9 4-2 4-9 10-9 13-1 2 1 35-3 1-19-8-8-2h-11l-13 5-11 7h-2l-2-9-1-33-5-8-10-13-1-4 13-6 18-6 8-10 7-11z" fill="#F8BC0E"/>
<path transform="translate(511,542)" d="m0 0 4 1 6 7 11 19 3 4v2l9 3 20 6 2 1-1 7-7 9-8 8-4 6-1 24-3 5-4 1-10-3-8-4-10-2-8 1-19 7h-5v-12l1-6v-18l-7-11-11-11-1-4 4-5 10-4 16-4 3-1 2-4 8-11 7-10z" fill="#F8BC0E"/>
<path transform="translate(1053,355)" d="m0 0h8l8 2 3 3 1 3v46l-3 3-8-1-11-6-9-4-19-7h-8l-13 5-23 11h-4l1-17 1-10 1-22 2 1 10-2 11-1 31-3z" fill="#F8BD0E"/>
<path transform="translate(856,556)" d="m0 0 7 1 9 7 14 12 10 9 8 7 13 13 4 5-1 5-5 6-11 9-16 12-5 1-4-5-6-11-10-9-37-24 1-6 7-11 9-10 11-9z" fill="#F8BC0E"/>
<path transform="translate(1189,558)" d="m0 0 4 1 9 10 14 19 5 8v2l-16 8-15 10-13 11-15 15-3-1-9-13-9-10-6-5-1-3 11-12 14-15 14-14 14-10z" fill="#F8BD10"/>
<path transform="translate(552,998)" d="m0 0h1l1 10 25 3 15 3 12 1 20-1h62l19 2 2 1h18l7-6 6-8 2-1 2 2-4 12-2 2-6-1-4 3-10 3-7 4-4 2-3 9-10 4-15 3h-21l-5-1h-11l-5 1-8-6-3-2v-2l-4-2-12-9-14-7-18-4-24-2-2-2z" fill="#DFECF7"/>
<path transform="translate(734,1179)" d="m0 0 2 1 13 30 9 16-1 2-44 22-11-13-13-18v-4l15-12 14-10 13-10z" fill="#718DDE"/>
<path transform="translate(1313,1179)" d="m0 0 1 2 4 2 14 13 17 13 5 4-1 4-12 14-8 11-3 5-11-7-13-10-11-8 1-6 12-24 4-12z" fill="#718DDE"/>
<path transform="translate(1020,260)" d="m0 0 4 1 8 11 9 15 10 11-1 2-2-2-8-2-6-3-6 1-3 1v2l-12 8-16 7-2 2h-9l-3-8h-9l-17 6-3 1-1 8-4-1-1-4 4-7 8-5 25-8 12-5 7-8 9-14z" fill="#FBFBFC"/>
<path transform="translate(734,1179)" d="m0 0 2 1 8 19-1 6-4 1-9-5-4 6-1 3h-2l-2 4-8 3-3 4 1 14 4 8v2l3 1-3 4-4-2-8-10-15-20 2-4 17-13 24-18z" fill="#829FEA"/>
<path transform="translate(1125,495)" d="m0 0 6 1 11 7 8 7v2l3 1v2l-5 1-11 7-16 12-4 2v-2l5-4h2l1-6 2-1-1-3-4-1-1-5 5-5 6-2 1-5-3-2-8 1-3-1-5 1-8 4-3-1 16-8z" fill="#718DDE"/>
<path transform="translate(1314,1183)" d="m0 0 6 2 12 11 14 11 2 5-11-2-9-5-6-4-7-1-2 6-4 7-4 3-3-2 1-8 7-15z" fill="#829FEB"/>
<path transform="translate(927,497)" d="m0 0 10 1 8 3-3 1-5-1-5 5-8 4-6 4-1 3 1 4-4-2-7-5 2-5 9-7z" fill="#718DDE"/>
<path transform="translate(1468,736)" d="m0 0h1v18l-4 19-1 1h-11l-2 5-11 12-4 4-2-1 12-12 11-16 4-6 3-3h2z" fill="#D1E1F5"/>
<path transform="translate(1325,1078)" d="m0 0 3 3 2 5 1 3 10-1 42-2 21-2 11-1-4 2-22 3-31 2h-35l1-4h-2l1-7z" fill="#7793E2"/>
<path transform="translate(1012,583)" d="m0 0h21l17 2 17 5-4 1-16-4-7-1h-24l-18 3-14 3v-3l9-2 6-1z" fill="#718DDE"/>
<path transform="translate(1317,1233)" d="m0 0 6 2 5 2 5 1-1 6-3 3-12-9-2-4z" fill="#809DE9"/>
<path transform="translate(1115,537)" d="m0 0 2 1-12 11-8 7-9 9v-3l19-19z" fill="#718DDE"/>
<path transform="translate(1325,1078)" d="m0 0 3 3 2 5 1 3-7-1v-2h-2l1-7z" fill="#84A1EC"/>
<path transform="translate(994,400)" d="m0 0 3 1-16 8-6 1v-6l9 1z" fill="#F4D361"/>
<path transform="translate(586,760)" d="m0 0 3 3 1 18-2-4-2-8z" fill="#809CE6"/>
<path transform="translate(1291,1569)" d="m0 0h3l1 4-5 2-2-4z" fill="#809DE9"/>
</svg>
