<?xml version="1.0" encoding="UTF-8"?>
<svg version="1.1" viewBox="0 0 2048 2048" width="1280" height="1280" xmlns="http://www.w3.org/2000/svg">
<path transform="translate(991,75)" d="m0 0h61l26 4 21 6 19 7 21 9 22 12 28 16 20 11 24 14 26 14 23 13 25 14 22 12 24 14 27 15 24 13 22 12 34 18 14 8 28 15 66 36 18 10 30 16 23 14 16 11 10 8 10 9 7 6 7 8 11 13 10 15 9 16 11 27 8 27 4 20 1 12 1 34v117l-1 505-1 20-5 24-5 19-8 21-12 23-11 17-9 11-12 14-7 7-14 11-11 8-25 15-25 14-29 16-25 14-47 26-46 26-19 10-4 3h-2l-2 10-8 5-1 8-1 391-5 16-7 11-9 10-15 9-15 5h-17l-16-5-12-5-16-8-15-8-24-14-22-12-14-8-23-13-24-14-20-11-41-23-17-10-22-13-18-10-23-13-19-10-12 6-40 24-22 13-25 14-24 14-24 13-15 9-24 14-28 16-24 14-25 14-21 12-19 10-12 4h-25l-12-4-10-6-10-9-7-8-7-15-1-5-1-31-1-12v-362l-7-9-2-4-17-9-15-9-26-15-28-16-24-14-22-12-23-13-18-10-16-9-22-13-18-12-13-10-12-11-7-7-11-14-10-14-10-17-10-21-10-30-4-17-2-17v-683l5-21 5-17 9-20 10-18 9-14 10-13 9-10 5-6 8-7 12-10 15-11 25-15 52-27 24-14 26-14 27-15 21-12 28-15 22-12 54-30 24-14 27-15 46-26 29-16 23-13 26-14 16-9 24-14 27-14 17-8 15-5 19-5z" fill="#061521"/>
<path transform="translate(1e3 626)" d="m0 0h45l26 4 17 5 20 7 15 7 16 9 7 4 16 12 15 13 7 7 9 11 5 7v2h2v3h2l2 6h2l10 18 8 17 7 22 4 20 2 16v18l-2 19-6 25-5 13-11 23-11 18-5 7-3 2h-6l-12-9-11-5-12-2-16-1-199 1-35 1-22 2-25 5-9 1-14-20-8-14-5-10-6-17-4-20-1-9v-42l5-25 8-24 9-20 10-17 6-8 1-2h2l2-4 9-11 8-7 4-2 1-3 4-2 4-4 4-3h2v-2l22-14 16-8 23-9 19-6 21-4z" fill="#FBC10C"/>
<path transform="translate(877,1030)" d="m0 0h88l56 1h57l35-1h54l5 2 14 14 9 11 10 14 12 21 7 16 5 19 6 32 2 20v9l-1 1-351 1-75-1-1-5 3-26 5-24 6-20 7-19 7-14 7-11 12-17 11-15 8-7z" fill="#FBC10C"/>
<path transform="translate(1107,1308)" d="m0 0h118l3 1-2 9-5 13-11 24-6 10-13 16-9 10-7 8-18 18-16 12-13 8-6 1h-196l-14-8v-2l-5-2-4-3v-2l-4-2-9-7v-2l-4-2-32-32-9-11-7-10-8-15-9-24-1-6 20-1z" fill="#FCC10C"/>
<path transform="translate(1477,1038)" d="m0 0 11 2 56 14 40 11 32 8 5 3-7 27-6 16-8 15-11 16-12 14-17 17-17 12-23 12-20 7-19 5-12 2-11 1h-13l-24-2-20-4-18-6-25-12-17-10-9-8-2-9-3-24-4-19-1-4h47l17-4 23-10 19-12 10-8 7-6 7-8 11-14 11-18z" fill="#9ABD18"/>
<path transform="translate(555,1043)" d="m0 0 4 1 14 19 9 10v2h2l7 8 12 11 18 13 13 8 15 7 15 5 18 3 14 1h15l17-1-1 17-3 27-2 7-7 6-16 8-25 10-18 5-26 5-16 2h-21l-20-2-18-4-17-5-21-9-18-10-16-12-10-9-12-12-8-10-9-15-10-19-8-19-1-3v-7l36-12 34-10 46-13z" fill="#9ABD18"/>
<path transform="translate(1397,652)" d="m0 0h24l12 3 11 5 12 7 12 11 8 16 3 11v29l-3 20-7 23-8 17-7 11-9 12-19 19-13 10-15 10-11 6-24-7-16-3-18-2-4-1v-51l-4-25-6-27-8-23-3-9 1-6 7-9 8-7 8-8 17-12 17-10 16-6 12-3z" fill="#D3E5F7"/>
<path transform="translate(628,656)" d="m0 0h27l14 4 16 8 14 9 9 7 11 9 10 8 8 8 1 6-9 40-3 19-4 43v14l3 16-6 2-35 4-25 5h-7l-14-10-15-12-9-7-10-9-14-14-10-14-8-16-5-15-3-16-1-11v-22l5-15 8-12 10-10 14-10 11-5z" fill="#D3E5F7"/>
<path transform="translate(1561,783)" d="m0 0 9 2 13 5 27 13 8 7 3 10v15l-5 22-6 16-9 17-8 11-9 11-10 10-11 9-15 11-19 12-16 8-17 5-10 2-5-1-8-28-10-17-6-9 2-4 11-6 12-8 11-8 11-9 15-15 11-14 10-15 11-23z" fill="#9ABD18"/>
<path transform="translate(1619,1077)" d="m0 0 1 4-7 25-6 15-7 13-11 16-12 14-17 17-17 12-23 12-20 7-19 5-12 2-11 1h-13l-24-2-20-4-18-6-25-12-17-10-9-8-2-9v-10l1-6 7-1v2l11 3 32 3 13 1 33 1h19l23-2 23-3 17-3 14-4 22-8 17-9 11-7 9-8h2v-2l5-5 9-10 9-13 5-8 4-1 2 1z" fill="#6E9218"/>
<path transform="translate(1478,705)" d="m0 0h1v29l-3 20-7 23-8 17-7 11-9 12-19 19-13 10-15 10-11 6-24-7-16-3-18-2-4-1v-51l-4-25-6-27-5-15 1-3 6 15 3 12 1 1 2 14 2 6 3-7v-13l3-2 6 3 2 5 1 3 12-1 2-1h10l11 4 4 2h12l5 2 8-3 18-13 13-10 17-12 16-13 7-5h2z" fill="#B3D0F5"/>
<path transform="translate(708,933)" d="m0 0h18l13 4 11 7 14 12 9 11 6 8 5 10 1 3v11l-7 14-10 13-8 8-13 8-16 6-12 2h-16l-16-3-16-6-11-7-7-7-5-10-2-8v-10l3-13 7-16 7-12 9-10 7-6 13-6z" fill="#B3D0F5"/>
<path transform="translate(477,799)" d="m0 0h5l8 13 8 14 10 16 10 13 14 15 14 14 11 9 17 13 10 8 1 4-9 16-5 12-6 18-2 1-19-5-15-6-20-10-19-12-13-12-19-19-10-14-7-16-4-18-1-7v-22l3-8 8-5 15-6z" fill="#9ABD18"/>
<path transform="translate(425,1081)" d="m0 0 3 1v2l11 15 5 5 9 8 16 11 14 8 12 6 18 7 31 10 24 6 28 5 26 3h22l18 1 27-1 22-3 6-1 4 3-1 7-3 9 1 2-12 7-24 10-18 6-27 6-23 3h-21l-20-2-18-4-17-5-21-9-18-10-16-12-10-9-12-12-8-10-9-15-10-19-8-19-1-3z" fill="#6E9118"/>
<path transform="translate(1311,420)" d="m0 0h20l13 4 13 7 10 8 6 8 6 12 2 9 1 16-2 14-6 16-6 10-11 12-11 7-13 4-6 1h-10l-16-3-12-5-11-7-6-7-7-14-2-10v-26l4-13 5-9 12-16 8-7 3-3 12-7z" fill="#EBA40D"/>
<path transform="translate(1326,1264)" d="m0 0 17 7 27 13 28 11 31 10 32 8-2 4-18 14-17 11-21 13-23 14-21 12-27 15-22 12-16 8-22 9h-2l2-5 6-9 9-20 10-19 12-27 8-30 7-36z" fill="#99BC18"/>
<path transform="translate(567,700)" d="m0 0 1 3-1 7 13 22 9 11 10 10 15 11 23 12 4 2 9 2 1 1h8l7-3 2-4 5-3 5-4 5-5 8-5 7 1 9 3h12l5 4 3-10h1l-1 12-5 50v14l3 16-6 2-35 4-25 5h-7l-14-10-15-12-9-7-10-9-14-14-10-14-8-16-5-15-3-16-1-11v-22z" fill="#B3D0F5"/>
<path transform="translate(1315,935)" d="m0 0h20l19 3 13 4 11 7 8 8 9 14 3 9v8l-2 10-6 15-7 11-6 7-13 9-11 5-13 3h-16l-15-4-11-6-10-8-16-16-7-10-5-10 3-8 16-24 10-13 10-9 10-4z" fill="#B3D0F5"/>
<path transform="translate(812,281)" d="m0 0h22l17 3 18 6 13 7 12 9 2 4 4 2 5 8-1 4-18 12-26 15-28 16-21 6-17 2h-12l-15-2-18-6-23-11-5-2 1-5 8-12 10-13 8-9 11-9 11-8 12-7 15-6z" fill="#9ABD18"/>
<path transform="translate(1013,325)" d="m0 0h20l13 4 12 7 13 12 9 14 4 11 1 7v14l-3 12-6 12-11 12-10 6-13 4-5 1h-25l-13-4-11-7-12-11-7-9-5-13-1-6v-16l4-16 6-11 9-10 10-7 15-5z" fill="#B3D0F5"/>
<path transform="translate(1221,282)" d="m0 0h20l14 4 13 7 14 10 10 9 7 7 11 15 8 16 2 5v4l-23 3-17 5-22 10-10 3-13 1-14-4-24-10-21-11-26-20-7-6v-6l9-8 26-17 19-10 15-5z" fill="#9ABD18"/>
<path transform="translate(1462,531)" d="m0 0h15l16 3 15 6 11 7 3 3v2h2l5 11 2 8v24l-4 17-6 13-8 11-10 8-9 4-8 2h-12l-16-3-16-6-8-6-7-7-10-17-3-11v-19l3-13 5-9 7-9 7-7 10-7 10-4z" fill="#FAC10C"/>
<path transform="translate(720,1262)" d="m0 0h3l3 29 5 28 8 28 6 15 14 29 11 23 1 5-6-2-25-12-29-15-19-10-25-14-28-17-21-13-15-9-20-11-1-2 36-8 25-7 27-9 21-10 22-13z" fill="#99BC18"/>
<path transform="translate(706,445)" d="m0 0h11l16 4 16 9 11 9 6 7 5 10 2 7v14l-4 16-7 14-9 10-10 8-12 6-16 4h-14l-13-4-11-7-7-7-9-13-5-12-2-10v-14l4-14 6-10 9-11 12-9 11-5z" fill="#FCFCFD"/>
<path transform="translate(409,631)" d="m0 0h21l10 3 15 8 1 3 3 1 7 10 3 9 1 6v16l-3 11-7 13-9 11-11 11-10 7-11 5-8 3h-19l-13-5-9-7-8-9-8-16-2-8v-20l5-15 6-9 9-11 7-5h2v-2l13-6 9-3z" fill="#FBC10C"/>
<path transform="translate(545,534)" d="m0 0h17l11 3 14 7 11 10 8 14 3 11v14l-3 16-4 11-7 11-7 6-12 6-10 3-4 1h-19l-16-5-10-6-3-2v-2l-4-2-6-8-6-12-3-10v-20l3-12 7-12 11-10h2v-2l14-7z" fill="#EBA50D"/>
<path transform="translate(1601,629)" d="m0 0h14l14 4 17 8 17 12 8 8 6 11 3 11v18l-4 13-6 9-9 9-11 7-3 1h-14l-17-2-15-5-15-9-11-11-7-12-3-10-1-7v-14l2-10 6-11 10-10 11-7z" fill="#99BC18"/>
<path transform="translate(927,770)" d="m0 0h11l16 5 12 7 8 7 7 10 4 10 2 10v12l-4 12-4 6-8 9h-2v2l-10 6-12 4-5 1h-16l-10-2-16-8-7-6-7-10-5-12-1-5v-13l2-10 7-14 7-8 13-8 8-3z" fill="#061522"/>
<path transform="translate(1108,775)" d="m0 0h8l15 4 10 6 8 8 6 11 4 8 1 3v17l-4 12-5 10h-2l-2 4-7 6-16 8-6 1h-11l-14-3-12-7-7-7-5-7-5-14-2-9v-10l5-14 6-9 10-9 12-6z" fill="#061421"/>
<path transform="translate(1012,208)" d="m0 0h16l23 3 26 7 21 7 10 6-4 4-26 15-24 15-18 12-4 2h-6l-13-7-19-14-20-12-16-7-15-5v-3l19-9 25-10 14-3z" fill="#98BC18"/>
<path transform="translate(1133,481)" d="m0 0h13l10 2 12 6 10 9 6 9 4 10v15l-5 10-9 10-8 7-12 5-8 2h-10l-14-3-14-7-9-9-5-10-1-3v-16l4-13 6-9 10-8 10-5z" fill="#FBFCFD"/>
<path transform="translate(900,482)" d="m0 0h12l10 3 12 7 11 11 6 10 2 7v9l-3 10-7 11-9 8-12 6-14 3h-12l-12-4-10-8-7-10-4-13v-10l4-13 7-11 5-6 11-7z" fill="#FBFCFD"/>
<path transform="translate(708,933)" d="m0 0h18l13 4 11 7 14 12 9 11 6 8 5 10v8l-6 2-9 2h-51l-16-6-16-8-17-9-5-5-3-4 1-6 11-12 8-6 11-5z" fill="#FCFCFD"/>
<path transform="translate(657,485)" d="m0 0h1l-1 17 4 4 19 6 9 2h9l13-4 11-6 14-9 3-1h32l2-3v14l-4 16-7 14-9 10-10 8-12 6-16 4h-14l-13-4-11-7-7-7-9-13-5-12-2-10v-14z" fill="#B3D0F5"/>
<path transform="translate(1397,652)" d="m0 0h24l12 3 11 5 12 7 12 11 8 16 1 3v15l-5-2-4-7-2-5-10-8-10-5-9-4h-9l-19 7-9 2-10 6-9 2-20 5-5 1-1 3-10 4-13 4-17 1-5 3h-3l-2-8 3-7 4-5 8-7 8-8 17-12 17-10 16-6 12-3z" fill="#FBFCFD"/>
<path transform="translate(1612,823)" d="m0 0 2 1 3 11v3h2l1-2-1 9-6 21-9 19-10 15-11 13-9 9-11 9-15 11-19 12-16 8-17 5-10 2-5-1-8-28-1-3 24-6 16-6 16-8 12-8 14-10 11-10 8-7 7-7 9-11 10-14 8-16z" fill="#6F9218"/>
<path transform="translate(1311,420)" d="m0 0h20l13 4 13 7 10 8 6 8 6 12 2 9v14l-1 10h-1l-1-7-5-3h-16l-9-4-6-2-19-1-5-1-9 1h-12l-9-3-7-4-6 5-1 2h-2l-2 17-1 3v11l2 9 5 9-2 4-6-9-4-10-1-7v-26l4-13 5-9 12-16 8-7 3-3 12-7z" fill="#FAC10C"/>
<path transform="translate(1013,325)" d="m0 0h20l13 4 12 7 13 12 9 14 3 7-1 5-18 2-27 4-28 4-12 1h-14l-2-1-1 2-2-4v3l-5-2-3-3v-4l-2-2 4-1-5-3-1-4 2-10 7-10 7-8 10-7 15-5z" fill="#FBFCFD"/>
<path transform="translate(1450,1318)" d="m0 0h6l-5 5-13 10-25 16-20 12-18 11-50 28-18 10-22 10-13 5h-2l2-5 6-9 9-20 10-19 6-13 4-2 4-4 24-3 23-4 24-5 24-7 26-9 14-6z" fill="#6E9118"/>
<path transform="translate(1319,936)" d="m0 0h10l19 2 15 4 11 4 12 11 9 14 2 5v8l-1 3-4-1-5-5-4-2h-7l-9 4-9 6-7 1-5 1-6 7-5 2h-10l-15-6-18-8-6-3-1-1v-7l3-14 6-8 9-10 5-4z" fill="#FCFCFD"/>
<path transform="translate(628,656)" d="m0 0h27l14 4 16 8 14 9 9 7 11 9 10 8 8 8 1 6-7 31-4 4-8-7-15-10-17-13-9-7v-2l-4-2-9-9-7-8-7-7v-2l-3-1-7-9-7-6-2-1v-2l-7-1h-12l-5 3-5 2-7 4h-2l-2 5-10 7-2-1 7-7 4-5 13-8 10-4z" fill="#FBFCFD"/>
<path transform="translate(441,814)" d="m0 0 2 1-3 3 1 8 8 19 8 16 7 11 12 14 12 12 14 10 14 8 17 9 20 8 15 5 4 2-2 9-5 15-2 1-19-5-15-6-20-10-19-12-13-12-19-19-10-14-7-16-4-18-1-7v-22l3-8z" fill="#628817"/>
<path transform="translate(1143,324)" d="m0 0 1 4 3-1 3-3h7l19 8 23 9 17 5 10 2h26l33-6 13-3h7l4 2v2l4 2h3l4 10v4l-23 3-17 5-22 10-10 3-13 1-14-4-24-10-21-11-26-20-7-6z" fill="#628817"/>
<path transform="translate(610,1320)" d="m0 0 4 1 15 6 11 3 12 5 23 8 19 6 33 10 9 3 5 4 3 2 2 4 6 11 4 6h2l12 25 1 5-6-2-25-12-29-15-19-10-25-14-28-17-5-4-4-4-8-5v-2h-2l-6-7-6-3z" fill="#6E9118"/>
<path transform="translate(894,307)" d="m0 0 2 1v2l4 2 5 8-1 4-18 12-26 15-28 16-21 6-17 2h-12l-15-2-18-6-23-11-5-2 1-5 2-2h2l3-2 10 1 13 4 16 3h13l14-2 18-4 18-6 26-11 23-10 13-8z" fill="#628817"/>
<path transform="translate(976,1534)" d="m0 0h13l15 2h66l6 3 1 3v9l-3 5-10 6-23 12-12 5h-17l-20-12-11-8-5-5-2-3v-14z" fill="#FAC00C"/>
<path transform="translate(1182,1040)" d="m0 0 4 2 2 4 4 1 6 9 2 4 3 1 3 4v2h2l4 6 2 5 2 3v3h2l5 11 5 12 3 13 2 13 3 10v8l1 4 1 16v20l-7 1h-11l-7 2-59 1-12 1h-56l-14 1h-48l-49-1-20-1h-12l-44-2-71-1-19-2-1-1 1-20 3-21 1-3 1-15 3-9 7-16 3-6 2 1-10 30-5 22-3 20-1 16 76 1 350-1-1-22-4-24-6-28-5-13-8-16-9-16-6-8-8-10-7-8z" fill="#081017"/>
<path transform="translate(1283,559)" d="m0 0 5 1 15 5 15 3-3 5-7 7-11 15-16 24-8 10-9 10-6 5-8-8-6-5v-6l8-18 10-18 12-18z" fill="#97BA18"/>
<path transform="translate(425,1081)" d="m0 0 3 1v2l11 15 5 5 9 8 16 11 14 8 12 6 18 7 31 10 18 5v4h-9l-13-3-7-1-10-2-5-2h-11l-6 1-3 9h-2v2l-4-1-4-3-4-1-1 3-7-3-3-2v-2l-3-1-4-5-2-1 3 5 3 3v2l4 2 7 8 1 2-4-2-17-17-8-10-9-15-10-19-8-19-1-3z" fill="#628817"/>
<path transform="translate(756,567)" d="m0 0 7 6 14 14 7 8 9 10 12 14 5 7-1 5-17 14-4 1-12-17-11-11-4-5-11-9-19-14-3-5 8-7 17-10z" fill="#97BA18"/>
<path transform="translate(1516,611)" d="m0 0 4 1-2 8-11 13-5 6-5 3-3 1v2l-5 2 3 2-6 1h-12l-16-3-16-6-8-6-7-7-3-6 3-5 2-1 23 2 18 1h23l16-4z" fill="#E9A40D"/>
<path transform="translate(1513,927)" d="m0 0 7 2 2 4 6 2 4 2-2 1-3 6-5 3v6l-2 2-1 2h-2l1 3-18 6-14 3-5-1-8-28-1-3 24-6 12-2z" fill="#628817"/>
<path transform="translate(1237,846)" d="m0 0 2 4v10l-5 22-4 12-9 20-7 13-8 10-6 5-10 1-8-6-15-6-3-2-8-2h-221l-21 1-15 2h-20l-1 2-13 1-5 2-9 2-10-7-10-12-7-15-2-9-5-15h2l5 14 10 18 7 10 6 8 2 4 9-1 25-5 22-2 35-1 199-1 23 2 9 3 10 5 9 7h6l5-5 11-18 11-21 6-15 5-18z" fill="#060D17"/>
<path transform="translate(832,1346)" d="m0 0h2l8 14 9 11 12 13 25 25 2 1v2l4 2 9 7v2l4 2 5 3v2l5 2 9 5h202l-2 3-29 2-24 2h-9l-10-1h-43l-12-1h-12l-8-1h-44l-8-1-4 1-8-3-16-12-9-8-11-9-29-29v-2h-2l-8-10-4-7-2-10z" fill="#0B1417"/>
<path transform="translate(927,770)" d="m0 0h11l16 5 12 7 8 7 7 10 4 10 2 10v12l-4 12-4 6-8 9h-2v2l-10 6-12 4-5 1h-16l-10-2-16-8-7-6-7-10-5-12-1-5v-13l2-10 7-14 7-8 13-8 8-3zm1 2-12 2-7 4-5 5-6 4-7 10-4 8-1 8h-2l-2 8 3 11 7 12 4 6 10 8 13 6 15 2 14-1 5-2 14-10 2-1v-2l4-2 5-8 7-6v-10l-1-12-3-6-1-5h-2l-1-4-5-5-3-1v-2h-2v-2l-12-7-2-3-6-1v-2l-10-2z" fill="#0A1317"/>
<path transform="translate(442,868)" d="m0 0 2 3 7 14 6 9v2h2l7 8 1 3h2v2h2v2h4v2l4 2 7 6 4 2 4 1 1-3 1 2 9 2 5 3 2 4h3l1 2 9 2 5 6 4-1 2 5 12 6 3 1v2h9l1-9 2-7h-2v-2l7 1 4 2-2 9-5 15-2 1-19-5-15-6-20-10-19-12-13-12-19-19-10-14-6-13z" fill="#6D9018"/>
<path transform="translate(1094,513)" d="m0 0h1v18l2 6 6 9 4 4 3-1 3-5 4-2 7 1v1h-8l2 5h2v4l4-3h8l6-3h5l2 2 15 1 3 5 1 2 6-4 1-5-1-2 8-2 4-2-3 5-10 10-12 6-11 3h-10l-14-3-14-7-9-9-5-10-1-3v-16z" fill="#D1E4F7"/>
<path transform="translate(1331,419)" d="m0 0 9 2 14 4 5 2v2l5 2 8 7 6 9 4 16 2 19v7l-4 20-3 7h-2l-2 7-7 8-4 5h-3l-2 4-4 3h-4v2l-9 4-16 2-3 1h-17l-9-4-4-1v-2l-3-1-4-4-8-5-8-6-3-4-1-6v-8l2 1 7 14 5 6 11 7 12 5 16 3h10l16-4 10-5 10-9 6-8 7-14 4-14 1-16-2-14-4-11-7-11-8-7-14-8-11-4-4-1z" fill="#070F18"/>
<path transform="translate(1298,339)" d="m0 0h7l4 2v2l4 2h3l4 10v4l-23 3-17 5-22 10-6 2h-10l1-2 5-2 8-2 4-2h3v-2l10-4 2-1v-2l6-3 2-3-1-2 2-3h4v-2l8-1 1-2-7-1-5-2 4-2z" fill="#6E9118"/>
<path transform="translate(1151,664)" d="m0 0h6l5 4v2l5 2 5 3v2l4 2 16 16 6 9 7 8 4 5 4 7 3 3 2 5 5 8 7 14 6 17 4 20 1 8v19l-1 26-2 2v-30l-3-23-5-20-7-20-10-20-5-8v-2h-2l-2-6h-2v-3h-2l-9-13-15-16-13-11-12-9z" fill="#060E18"/>
<path transform="translate(863,522)" d="m0 0h1l2 13 5 9 5 2 3 1 1 3 7 3 12 3 14-1 14-6 7-2v2l5 1 1-5 6-1-2 5-7 7-10 6-13 4-6 1h-12l-12-4-10-8-7-10-4-13z" fill="#D1E4F7"/>
<path transform="translate(561,535)" d="m0 0 10 1 16 8 11 10 8 14 3 11v14l-3 16-4 11-7 11-7 6-12 6-10 3-7 1-13-1v-1l13-1 1-2 9-2 12-5 9-7 7-8 3-8 4-24v-6l-5-14-9-13-4-3v-2l-4-1-1-2-3-1v-2l-9-3-8-3z" fill="#F2BF0D"/>
<path transform="translate(425,1081)" d="m0 0 3 1v2l11 15 5 5 9 8 10 7v5l5 5 1 3 4 2v2l-4-2-2-2-3 2-2-5-7-1 1 3v4l2 1v9l-5-5-4-2-14-26-7-16-3-8z" fill="#6E9118"/>
<path transform="translate(1450,1318)" d="m0 0h6l-5 5-13 10-25 16h-2v-3l-9 5-1 1-7-1-4-2 4-8 4-3h2v-2l29-10 17-7z" fill="#628817"/>
<path transform="translate(484,802)" d="m0 0 4 2 1 4 3 1 7 11 4 7 12 17 5 5 9 10 5 6 8 7 14 12 9 7v2l3 1v2h2v2l4 2 4 4 3 4v2l4 2-1 3-12-10-16-12-14-12-20-20-9-11-10-14-14-24z" fill="#060D18"/>
<path transform="translate(1122,1437)" d="m0 0h6l-2 3-29 2-24 2h-9l-10-1h-43l-12-1h-12l-8-1h-44l-6-1v-1l26-1z" fill="#060D18"/>
<path transform="translate(539,535)" d="m0 0h9v3h-11l-1 3-8 4-10 4v2l-5 5-8 10-3 13v12l-1 10 3 9 3 6 8 10v2h2l6 10-5-1-4-3v-2l-4-2-6-8-6-12-3-10v-20l3-12 7-12 11-10h2v-2l14-7z" fill="#F0BE0D"/>
<path transform="translate(589,1320)" d="m0 0 5 1 18 10 16 10 21 13 15 9 23 13 23 12 22 12 12 6-1 2-6-2-16-8-9-5-13-5-18-10-12-6-16-9-11-7-16-10-5-4-8-5-5-3-3-3-10-5-6-5z" fill="#060D19"/>
<path transform="translate(304,567)" d="m0 0h1l1 270v50l1 4v86l-1 13-2 4z" fill="#121D17"/>
<path transform="translate(609,590)" d="m0 0 2 1v11l-5 18-7 12-7 7h-3v2l-7 4-7 2-5 3-8-1h-16l-12-2-14-4-10-5-8-8-5-9-2-4 1-9 2-1 5 12 7 10 4 3v2l18 9 11 3h19l11-3 12-5 9-7 7-11 4-11z" fill="#080F17"/>
<path transform="translate(1108,775)" d="m0 0h8v1l-17 3-4 2h-2l-2 4-10 7-3 4h-2l-2 5-3 8-2 7-1 9 1 8 5 12 3 5v2h2l4 5 13 9 1 2 7 2-1 2-10-2-12-7-7-7-5-7-5-14-2-9v-10l5-14 6-9 10-9 12-6z" fill="#0A1317"/>
<path transform="translate(1237,846)" d="m0 0 2 4v10l-5 22-4 12-9 20-7 13-8 10-6 5-10 1-8-6-15-6-3-2-8-2v-2l11 1 14 7 9 7h6l5-5 11-18 11-21 6-15 5-18z" fill="#0A1217"/>
<path transform="translate(559,1044)" d="m0 0 4 2 5 5v2h2l1 4 4 2 5 4 8 10 11 11 5 4v2l4 2 11 8 9 5 1 2 9 5 11 6 8 4 2 4-10-3-19-9-16-11-13-10-13-12-4-4v-2h-2l-7-8-12-16z" fill="#060D18"/>
<path transform="translate(732,1376)" d="m0 0h7l4 4v2h2l6 10 2 1v2l2 1 3 4 5 5 2-1 5 10 1 5-6-2-9-4v-4l-5-2v-2l-5-2-7-7-1-4-4-1-3-7-3-5z" fill="#628817"/>
<path transform="translate(1219,1333)" d="m0 0 3 1-1 5-2 7h-2l-1 7-9 16-5 6h-2l-1 3h-2v2h-2l-1 3h-2l-2 4-2 3h-2l-1 4-5 6h-2l-2 4-5 4-10 10-13 11-14 8-4-2 15-10 14-11 21-21 9-11 8-9 8-11 9-17z" fill="#0B1417"/>
<path transform="translate(1283,559)" d="m0 0 5 1 15 5 15 3-2 3v-2h-5l1 4-11 8-4 5-5 2-1 3-1-2v-5h-2l-1-4 1-2-3-6-5-5h-3z" fill="#6E9118"/>
<path transform="translate(442,635)" d="m0 0 6 1 11 5v2h2l4 6 3 3 3 7 2 18-1 16-3 10-5 10-4 5h-2l-1 4h-2l-2 4-5 5-8 7-7 3h-4v2l-5 1v-2l9-5 10-8 10-10 9-13 5-10 2-9v-16l-3-12-5-9-6-7-13-7z" fill="#0C1518"/>
<path transform="translate(631,1522)" d="m0 0h1l1 320h1v81h-1l-1-31-1-12z" fill="#628817"/>
<path transform="translate(702,1268)" d="m0 0h8v2l-25 14-20 9-35 11-21 5-1-2 10-3 22-6 17-6 2-2 4-1 1-2 11-6 8-4 15-7z" fill="#060D18"/>
<path transform="translate(380,734)" d="m0 0 14 1 6 2 18 1-2 6-2 3-3 1h-19l-13-5-2-2h2v-2l-3-1 1-3z" fill="#E6A50D"/>
<path transform="translate(1376,978)" d="m0 0h7l7 4 3 4 3 1 1-7h1v8l-2 10-2 6-3 1-3-6-1-7-1-3-9-1-5-2-13 4-4 2-5-1-2-2h7l9-5 6-4z" fill="#D1E4F7"/>
<path transform="translate(1464,1055)" d="m0 0 1 3-8 11-9 10-13 13-13 9-17 10-17 7-2-2 8-4 4-1 2-4 5-1v-2l10-5h2v-2l11-7 10-7 4-1v-2h2v-2l3-3h2l2-4 3-5h2l2-4z" fill="#060D18"/>
<path transform="translate(660,963)" d="m0 0 4 5 5 5 19 10 21 10 9 3h51l15-3-1 5-4 1h-51l-13-1-18-7-3-2-14-4-9-4v-2l-4-2-6-4v-2h-2v-7z" fill="#D3E5F7"/>
<path transform="translate(1509,539)" d="m0 0 5 1v2l4 2 6 5 4 4 4 10 1 8v24l-2 16-5 14-8 11h-2v2l-8 6-6 1v2l-2-1 3-3 10-8 8-11 5-12 4-17v-24l-4-13-2-3v-3h-2l-4-5-10-6z" fill="#0B1417"/>
<path transform="translate(406,627)" d="m0 0h10l9 1v3l-16 1-12 3-12 5-4 1v2l-7 5h-2l-2 4-8 9-6 12-3 10h-1l1-10 3-8 1-2h2l2-7 4-5 4-6 3-1v-2l6-3 6-4h2v-2l13-4z" fill="#081018"/>
<path transform="translate(950,635)" d="m0 0h2l-1 3-25 10-16 8-15 10-5 2v2l-7 5h-2l-1 3-5 1 1-6 5-4 4-2h4l2-4 4-4 7-5 9-4 12-5 15-5h2l1-2z" fill="#081018"/>
<path transform="translate(1660,723)" d="m0 0 3 1-8 7-9 6 4 2-3 1h-14l-17-2-10-3v-1l7-2 5-1 6 2 10-1 15-4 9-4z" fill="#6C8F18"/>
<path transform="translate(431,1105)" d="m0 0h2l8 17 11 19 7 9 11 12 10 10 16 12 13 8v2l-6-2-15-10-4-3v-2l-6-3v-2h-2v-2l-4-2-16-16v-2l-4-2-6-9-2-1-8-17-3-9-2-4z" fill="#060D18"/>
<path transform="translate(561,937)" d="m0 0 7 1 4 2-2 9-5 15-2 1-10-4v-2l-5 1-2-1-1-7 6 1v2h9l1-9 2-7h-2z" fill="#6D9118"/>
<path transform="translate(609,590)" d="m0 0 2 1v11l-5 18-7 12-7 7h-3v2l-7 4-7 2-5 3-8-2 1-2 16-5 12-7 8-10 4-8 4-16z" fill="#0D1617"/>
<path transform="translate(739,494)" d="m0 0h33l-1 8-5 1h-8l-6 1-9-2-12-4z" fill="#D4E6F8"/>
<path transform="translate(1306,939)" d="m0 0 2 1-10 9-8 10-2 5-2 11v7l3 3-8-1-10-4 1-5 4-1v-2l4-4 10-14 6-8h2l1-3z" fill="#D4E6F8"/>
<path transform="translate(1315,935)" d="m0 0h20l19 3 13 4 3 3-9-3-13-3-19-2h-10l-16 4-8 7-12 17-5 7h-2v2l-3 1-1 2h-2l2-5 12-17 11-12 8-5z" fill="#B3D0F5"/>
<path transform="translate(425,1081)" d="m0 0 3 1v2l11 15 5 5 9 8 5 5v3l-8-1-8-6-1-5-4 1-6-12-3-4-2-2-1-3z" fill="#638917"/>
<path transform="translate(817,879)" d="m0 0h2l5 14 10 18 7 10 6 8 2 4 9-1 11-2-1 2-8 3-9 2-10-7-10-12-7-15-2-9z" fill="#0C1617"/>
<path transform="translate(874,1030)" d="m0 0 3 1-6 4-7 8-12 17-11 16-7 12-5 10-1-4 8-15 2-7 8-14 4-3h2l2-9 8-5 3-6 5-1 1-3z" fill="#081018"/>
<path transform="translate(351,683)" d="m0 0h1l1 20 4 13 7 12 9 10 10 6 9 3h19l7-2-4 4-3 1h-19l-13-4-11-7-6-6v-2l-3-1-4-9-3-13-2-5z" fill="#0A1318"/>
<path transform="translate(445,883)" d="m0 0h2l9 14 11 12 18 18 14 10 16 9-1 2-6-2-15-9v-2l-4-1-15-12v-2h-2l-3-3-3-5-15-16-3-6-3-5z" fill="#060D19"/>
<path transform="translate(1331,419)" d="m0 0 9 2 14 4 5 2v2l5 2 8 7 6 9 2 8v5l-2-1-7-14-7-8-14-9-11-5-8-2z" fill="#091218"/>
<path transform="translate(863,522)" d="m0 0h1l2 13 6 11v2l4 2 8 6 3 1-2 1 7 3 5 1 8 3h9v1l-6 1h-12l-12-4-10-8-7-10-4-13z" fill="#B5D1F5"/>
<path transform="translate(1263,289)" d="m0 0 9 3 5 2 3 3 7 4 9 9v2l3 1 5 9 2 1v2h2l2 8h-2l-8-11-9-10-11-10-17-11z" fill="#060D18"/>
<path transform="translate(1097,238)" d="m0 0 2 1-10 7h-2l-1 3-6 4-7 4-6 3-3 3-9 6-7 4-10 4 1-3 23-15 23-14z" fill="#060D18"/>
<path transform="translate(1594,857)" d="m0 0 4 1-1 5-4 4-2 4-2 8-2 4-7 1-3-3 2-5 11-13z" fill="#628817"/>
<path transform="translate(1310,418)" d="m0 0h10l6 1v1l-15 1-10 4-6 4h-2l-1 3-8 7-13 18-5 11-2 4-1-2 4-12 4-6 2-5 4-4 5-8 4-4 5-3h2v-2l4-1v-2l12-4z" fill="#0B1418"/>
<path transform="translate(932,771)" d="m0 0h10l12 4 12 7 8 7 7 10 4 10 1 5h-2l-4-7v-6h-2l-4-7-5-3v-2h-2v-2l-6-2-7-5-1-2-6-2v-2l-10-1-5-1z" fill="#081017"/>
<path transform="translate(731,591)" d="m0 0 4 1 19 14 11 10 7 8 9 10 2 5-5-2-4-6-6-7-2-1v-2l-4-2-9-7-6-7-2-1v-2l-5-2-3-3v-2l-5-2z" fill="#060D18"/>
<path transform="translate(571,534)" d="m0 0 6 3 8 1 10 8 5 5 5 6 3 6 1 12-2-1-5-12-7-10-8-7-17-9z" fill="#091118"/>
<path transform="translate(1452,530)" d="m0 0h10v2l-9 2-12 6-13 12-7 10-5 11-1-4 6-12 4-7 2-4 4-2 2-3h2v-2l4-2 10-6z" fill="#070F18"/>
<path transform="translate(966,361)" d="m0 0h1v7l3 3 5 1-3 2-2 1 1 5 5 4 2-3 3 3 16 1v1l-12 1h-20v-22z" fill="#D3E5F7"/>
<path transform="translate(864,344)" d="m0 0 2 2-6 5-26 15-7-1 2-1v-2l8-4 7-4 7-3h2v-2l5-2z" fill="#6C9018"/>
<path transform="translate(827,1099)" d="m0 0 2 1-10 30-5 22-2 14-2 2 1-16 2-7 1-15 3-9 7-16z" fill="#070E17"/>
<path transform="translate(783,993)" d="m0 0 1 3-1 2-4 1h-51l-13-1-5-2v-2l8 2h51z" fill="#D4E6F8"/>
<path transform="translate(1509,539)" d="m0 0 5 1v2l4 2 6 5 4 4 4 10 1 8v24h-2l-1-24-4-13-2-3v-3h-2l-4-5-10-6z" fill="#070F18"/>
<path transform="translate(871,682)" d="m0 0v3l-6 6h-2l-2 4-9 11h-2l-2 5-7 10-8 14-1-3 8-15 4-6 3-7 2-3 6-2 1-3h2l1-3h2l2-4 3-3h2l1-3z" fill="#0A1318"/>
<path transform="translate(1157,835)" d="m0 0 1 4-7 15h-2l-2 4-7 6-11 6-3-1 7-4h2l2-6h2v-2l6-3v-2h2l2-4 4-4 3-7z" fill="#060D17"/>
<path transform="translate(528,1184)" d="m0 0 7 1 3 2-1 6-3 1-2 2-4 1-4-4 2-1-1-4-2-1z" fill="#648917"/>
<path transform="translate(428,1092)" d="m0 0 4 4 2 6 7 12 5 13 5 9 1 3-3-1-14-26-7-16z" fill="#8AAE18"/>
<path transform="translate(1138,784)" d="m0 0 4 2 7 7 6 11 4 8 1 3v17l-2-1v-8l-1-7-3-4-8-18-7-8z" fill="#0C1517"/>
<path transform="translate(1367,521)" d="m0 0 1 3-11 12-11 7-7 1 3-4 7-4 10-8 3-3z" fill="#EFBF0D"/>
<path transform="translate(729,1303)" d="m0 0h2l5 20 2 15-3-1-6-22-1-8z" fill="#060D18"/>
<path transform="translate(611,660)" d="m0 0 3 1-3 4-7 2-8 5h-2l-2 5-10 7-2-1 7-7 4-5 13-8z" fill="#EFF5FC"/>
<path transform="translate(840,1309)" d="m0 0h68v1l-59 1h-26l2 13-2-1-3-13z" fill="#F2F6FA"/>
<path transform="translate(1652,643)" d="m0 0 4 2 4 3v2l6 1v2l4 2 4 6v2h2l4 8v4l-3-1-5-10-9-10-11-8z" fill="#060D19"/>
<path transform="translate(633,1842)" d="m0 0h1v81h-1l-1-31-1-12v-11h2z" fill="#63891A"/>
<path transform="translate(654,1293)" d="m0 0h2l-1 3-25 8-21 5-1-2 10-3 22-6z" fill="#060F1A"/>
<path transform="translate(1286,561)" d="m0 0 8 1 9 3v2l2 1-7 1-12-1-1-5z" fill="#93B618"/>
<path transform="translate(533,949)" d="m0 0 5 3 4 1 2 1 1-2 1 3v4h7v2l5 1-4 1-21-7-2-2h2v-2l-3-1z" fill="#628817"/>
<path transform="translate(1332,1178)" d="m0 0 8 6 16 10 14 7-1 2-9-3-18-11-9-6v-3l-2-1z" fill="#060E1A"/>
<path transform="translate(1292,556)" d="m0 0 6 2 6 5 11 1 3 3-1 1-10-1-13-4v-2l-3-1z" fill="#060D18"/>
<path transform="translate(1315,935)" d="m0 0h20l19 3 13 4 3 3-9-3-13-3-19-2h-10l-10 2 1-3z" fill="#BBD5F5"/>
<path transform="translate(475,1169)" d="m0 0 4 2 17 13 13 8v2l-6-2-15-10-4-3v-2l-6-3v-2h-2z" fill="#060F1A"/>
<path transform="translate(1094,513)" d="m0 0h1v18l2 6 6 9 3 5 2 1v2l4 2 3 3-5-2-8-7-4-5-4-8-1-3v-16z" fill="#BBD5F5"/>
<path transform="translate(1381,477)" d="m0 0h1l-1 16-4 14-8 16-2-3 8-16 3-11 1-1z" fill="#CDAD10"/>
<path transform="translate(711,1390)" d="m0 0 6 2 27 14-1 2-6-2-16-8-9-5z" fill="#060F1A"/>
<path transform="translate(1597,891)" d="m0 0 1 3-8 11-11 12-4 4-3-1 4-2 2-4 4-5 5-5z" fill="#89AD18"/>
<path transform="translate(1303,360)" d="m0 0 8 1v1l-12 2-12 3-9 2v-2l15-5z" fill="#060D18"/>
<path transform="translate(1452,530)" d="m0 0h10v2l-9 2-14 7v-4l10-6z" fill="#060D18"/>
<path transform="translate(1415,605)" d="m0 0 2 2 3 8 9 14 8 8h-3l-10-10-5-7-4-11z" fill="#0A1217"/>
<path transform="translate(1068,1559)" d="m0 0 2 1zm-2 1 2 1-8 7-4 2-5-1-2 4h-3v-3z" fill="#0F1A17"/>
<path transform="translate(1450,1318)" d="m0 0h6l-5 5-10 8-3-1 6-5 2-3-3-2z" fill="#6D9118"/>
<path transform="translate(875,292)" d="m0 0 4 1 8 4 4 3v2l4 2 2 4-4-2-14-10-4-2z" fill="#060E19"/>
<path transform="translate(978,249)" d="m0 0 5 1 15 10 7 5-2 2-10-7-2-1v-2l-4-1-9-6z" fill="#060D19"/>
<path transform="translate(1180,542)" d="m0 0 2 1-7 8-9 8h-2v-2l6-4 1-5-1-2 8-2z" fill="#C8DEF6"/>
<path transform="translate(515,545)" d="m0 0v3l-9 8-5 8h-1v-6l3-1 1-4z" fill="#0A1318"/>
<path transform="translate(1379,460)" d="m0 0 3 3 2 19v7l-3 2v-14z" fill="#060D18"/>
<path transform="translate(1452,1321)" d="m0 0h3l-1 4-7 4-4 4-5 1 1-3 12-9z" fill="#060E1A"/>
<path transform="translate(594,669)" d="m0 0 2 1-5 8-9 6-2-1 7-7 4-5z" fill="#F5F8FD"/>
<path transform="translate(1429,627)" d="m0 0 6 2 4 5v3l3 1v2l-5-2-8-8z" fill="#ECBA0D"/>
<path transform="translate(445,883)" d="m0 0h2l9 14 5 7-4-2-7-8-3-5z" fill="#060E1A"/>
<path transform="translate(950,635)" d="m0 0h2l-1 3-21 8v-3l5-2 5-1 1-2z" fill="#060D18"/>
<path transform="translate(1143,324)" d="m0 0 1 4 3-1 3-3h7l2 2-7 3-3-1-1 3-5-1z" fill="#6D9018"/>
<path transform="translate(1328,684)" d="m0 0 2 1-22 22v-3l4-5 8-7z" fill="#DFECFA"/>
<path transform="translate(1082,373)" d="m0 0h1v7l-5-3-1-1-19 1v-1l12-2z" fill="#D4E6F8"/>
<path transform="translate(752,309)" d="m0 0h2l-2 4-7 6-4 5h-2l2-5 3-1 2-4z" fill="#060D18"/>
<path transform="translate(515,939)" d="m0 0 8 3 4 2 4 4-1 2h-3l-4-4-6-3v-2l-3-1z" fill="#628817"/>
<path transform="translate(878,336)" d="m0 0 2 2-4 4-5 3-5-1 5-4z" fill="#6C9018"/>
<path transform="translate(729,345)" d="m0 0h5l-2 3h-4v2l-4 4h-3l1-5 2-2h2z" fill="#739618"/>
<path transform="translate(517,1180)" d="m0 0h3v2l8-1 5-1 2 2-7 2-9 1z" fill="#628817"/>
<path transform="translate(360,661)" d="m0 0v3l-5 12-2 7h-1l1-10 3-8z" fill="#060D18"/>
<path transform="translate(1691,425)" d="m0 0 4 2 5 6v4l-4-2-5-8z" fill="#0E1918"/>
<path transform="translate(900,107)" d="m0 0h2l-1 5-4 1-2-1v2l-6 2-1-2z" fill="#1F2D28"/>
<path transform="translate(984,814)" d="m0 0h2l1 5v12l-2 2-1-9z" fill="#203117"/>
<path transform="translate(1375,505)" d="m0 0h2l-3 9-5 9-2-3z" fill="#DDB40E"/>
<path transform="translate(1277,1416)" d="m0 0 3 3-1 3-9 3 2-5z" fill="#84A818"/>
<path transform="translate(1098,544)" d="m0 0 4 1 4 6 2 1v2l4 2 3 3-5-2-8-7-4-5z" fill="#B5D1F5"/>
<path transform="translate(1581,1158)" d="m0 0 2 2-4 6-6 4-2 2v-3l9-9z" fill="#060E19"/>
<path transform="translate(1597,891)" d="m0 0 1 3-8 11-3 2 1-4z" fill="#88AB18"/>
<path transform="translate(1272,452)" d="m0 0v3l-6 13-2 4-1-2 4-12z" fill="#060D18"/>
<path transform="translate(837,1079)" d="m0 0 1 2-9 17-1-4 8-14z" fill="#060D18"/>
<path transform="translate(1262,484)" d="m0 0h1l1 25-3-1z" fill="#2C4017"/>
<path transform="translate(1310,418)" d="m0 0h10l6 1v1l-15 1-8 2 3-3z" fill="#060D18"/>
<path transform="translate(553,531)" d="m0 0 7 1 1 2h-16v-2z" fill="#060E1A"/>
<path transform="translate(842,716)" d="m0 0v3l-9 16-1-3 7-13z" fill="#060D18"/>
<path transform="translate(1289,363)" d="m0 0 4 1h-2v2l-11 3h-2v-2z" fill="#060F1B"/>
<path transform="translate(969,226)" d="m0 0h4l-2 4-4 3-3-1 1-4z" fill="#6F9219"/>
<path transform="translate(1618,812)" d="m0 0 2 4 1 4v15h-1l-2-17-1-4z" fill="#668B17"/>
<path transform="translate(351,683)" d="m0 0h1l1 25-3-4z" fill="#060D18"/>
<path transform="translate(751,567)" d="m0 0v3l-14 8 2-4 5-2v-2z" fill="#060E1A"/>
<path transform="translate(1669,723)" d="m0 0h2v4l-10 6 2-4z" fill="#060E19"/>
<path transform="translate(425,1081)" d="m0 0 3 1v2l3 5h-3v2h-2l-1-3z" fill="#6B8F17"/>
<path transform="translate(426,637)" d="m0 0 10 1-1 3-3 1-5-2z" fill="#EDA60C"/>
<path transform="translate(1509,539)" d="m0 0 5 1v2l4 2 2 3-5-2-7-4z" fill="#162118"/>
<path transform="translate(539,535)" d="m0 0h9v3h-10z" fill="#E9B90D"/>
<path transform="translate(536,534)" d="m0 0h5l-2 2-12 4-3-1 5-3z" fill="#060E19"/>
<path transform="translate(479,342)" d="m0 0v3l-1 2-8 3-2-2z" fill="#283930"/>
<path transform="translate(1229,1309)" d="m0 0 1 4-2 5-2 4-2-1 4-10z" fill="#091117"/>
<path transform="translate(980,802)" d="m0 0 3 1 3 11h-2l-4-7z" fill="#101A17"/>
<path transform="translate(1143,657)" d="m0 0 5 1 3 5h-3l-7-4z" fill="#101A17"/>
<path transform="translate(894,307)" d="m0 0 2 1v2l4 2-1 3-5-1-2-1 2-4z" fill="#6E9118"/>
<path transform="translate(1248,635)" d="m0 0 4 2 5 5v2l-4-1-5-6z" fill="#060E19"/>
<path transform="translate(687,1973)" d="m0 0h14v1h-14z" fill="#BDD6F6"/>
<path transform="translate(680,1973)" d="m0 0 2 1z" fill="#C3DBF6"/>
<path transform="translate(705,1973)" d="m0 0" fill="#FDFDFE"/>
</svg>
